<svg width="24" height="24" viewBox="0 0 24 24" fill="none" xmlns="http://www.w3.org/2000/svg">
<path d="M23.6408 14.9029C22.0379 21.3315 15.5261 25.2438 9.09602 23.6407C2.66859 22.038 -1.24421 15.5266 0.359461 9.09838C1.96163 2.66907 8.47346 -1.24364 14.9016 0.359095C21.3313 1.96183 25.2437 8.47401 23.6408 14.9029Z" fill="#1275E9"/>
<path d="M4.15182 15L3.08782 15L5.19994 9.15204L6.24794 9.15206L8.35982 15.0001L7.27982 15.0001L6.80785 13.6481L4.62385 13.648L4.15182 15ZM5.5919 10.8961L4.92787 12.784L6.51187 12.7841L5.8399 10.8961C5.79191 10.7441 5.73591 10.5681 5.71991 10.4481C5.69591 10.5601 5.64791 10.7361 5.5919 10.8961ZM12.7251 15.0002L9.09314 15.0001L9.09325 9.15212L12.7253 9.15219L12.7252 10.0962L10.1172 10.0961L10.1172 11.6001L12.4532 11.6002L12.4532 12.5042L10.1172 12.5041L10.1172 14.0561L12.7252 14.0562L12.7251 15.0002ZM15.9393 15.0003L13.8353 15.0002L13.8354 9.15221L15.8834 9.15225C17.6114 9.15228 18.8034 10.3443 18.8034 12.0883C18.8033 13.8083 17.6353 15.0003 15.9393 15.0003ZM15.7874 10.0962L14.8594 10.0962L14.8593 14.0562L15.8433 14.0563C17.0113 14.0563 17.7234 13.3043 17.7234 12.0883C17.7234 10.8483 16.9954 10.0963 15.7874 10.0962Z" fill="white"/>
</svg>
