<svg width="24" height="24" viewBox="0 0 24 24" fill="none" xmlns="http://www.w3.org/2000/svg">
<path d="M23.6408 14.9029C22.0379 21.3315 15.5261 25.2438 9.09602 23.6407C2.66859 22.038 -1.24421 15.5266 0.359461 9.09838C1.96163 2.66907 8.47346 -1.24364 14.9016 0.359095C21.3313 1.96183 25.2437 8.47401 23.6408 14.9029Z" fill="#1275E9"/>
<path d="M5.15182 15L4.08782 15L6.19994 9.15204L7.24794 9.15206L9.35982 15.0001L8.27982 15.0001L7.80785 13.6481L5.62385 13.648L5.15182 15ZM6.5919 10.8961L5.92787 12.784L7.51187 12.7841L6.8399 10.8961C6.79191 10.7441 6.73591 10.5681 6.71991 10.4481C6.69591 10.5601 6.64791 10.7361 6.5919 10.8961ZM11.1173 9.15214L11.1172 14.0561L13.5652 14.0562L13.5651 15.0002L10.0931 15.0001L10.0933 9.15212L11.1173 9.15214ZM15.4219 9.15222L15.4218 14.0562L17.8698 14.0563L17.8698 15.0003L14.3978 15.0002L14.3979 9.1522L15.4219 9.15222Z" fill="white"/>
</svg>
