<svg width="24" height="24" viewBox="0 0 24 24" fill="none" xmlns="http://www.w3.org/2000/svg">
<path d="M23.6408 14.9029C22.0379 21.3315 15.5261 25.2438 9.09602 23.6407C2.66859 22.038 -1.24421 15.5266 0.359461 9.09838C1.96163 2.66907 8.47346 -1.24364 14.9016 0.359095C21.3313 1.96183 25.2437 8.47401 23.6408 14.9029Z" fill="#1275E9"/>
<path d="M3.15182 15L2.08782 15L4.19994 9.15204L5.24794 9.15206L7.35982 15.0001L6.27982 15.0001L5.80785 13.6481L3.62385 13.648L3.15182 15ZM4.5919 10.8961L3.92787 12.784L5.51187 12.7841L4.8399 10.8961C4.79191 10.7441 4.73591 10.5681 4.71991 10.4481C4.69591 10.5601 4.64791 10.7361 4.5919 10.8961ZM9.08514 15.0001L8.09314 15.0001L8.09325 9.15212L9.08525 9.15214L10.9732 13.8082L12.8613 9.15221L13.8693 9.15223L13.8691 15.0002L12.8771 15.0002L12.8772 13.2002C12.8772 12.0242 12.8772 11.6802 12.9332 11.2642L11.4451 15.0002L10.5011 15.0002L9.02121 11.2721C9.0772 11.6241 9.08519 12.1761 9.08518 12.9041L9.08514 15.0001ZM17.2674 15.0003L15.1634 15.0003L15.1636 9.15226L17.2116 9.1523C18.9396 9.15233 20.1315 10.3444 20.1315 12.0884C20.1315 13.8084 18.9634 15.0003 17.2674 15.0003ZM17.1155 10.0963L16.1875 10.0963L16.1875 14.0563L17.1715 14.0563C18.3395 14.0563 19.0515 13.3043 19.0515 12.0883C19.0515 10.8483 18.3235 10.0963 17.1155 10.0963Z" fill="white"/>
</svg>
