<svg width="24" height="24" viewBox="0 0 24 24" fill="none" xmlns="http://www.w3.org/2000/svg">
<path d="M23.6408 14.9029C22.0379 21.3315 15.5261 25.2438 9.09602 23.6407C2.66859 22.038 -1.24421 15.5266 0.359461 9.09838C1.96163 2.66907 8.47346 -1.24364 14.9016 0.359095C21.3313 1.96183 25.2437 8.47401 23.6408 14.9029Z" fill="#1275E9"/>
<path d="M4.15182 15L3.08782 15L5.19994 9.15204L6.24794 9.15206L8.35982 15.0001L7.27982 15.0001L6.80785 13.6481L4.62385 13.648L4.15182 15ZM5.5919 10.8961L4.92787 12.784L6.51187 12.7841L5.8399 10.8961C5.79191 10.7441 5.73591 10.5681 5.71991 10.4481C5.69591 10.5601 5.64791 10.7361 5.5919 10.8961ZM10.1011 15.0001L9.09314 15.0001L9.09325 9.15212L10.1093 9.15214L12.8532 13.2962L12.8533 9.15219L13.8613 9.15221L13.8611 15.0002L12.8531 15.0002L10.1012 10.8561L10.1011 15.0001ZM17.7157 10.0163C16.5557 10.0163 15.8917 10.8563 15.8917 12.1203C15.8917 13.4243 16.6437 14.1363 17.7237 14.1363C18.7397 14.1363 19.3557 13.5763 19.3557 12.6403L19.3557 12.6163L17.5877 12.6163L17.5877 11.7123L20.3077 11.7123L20.3076 15.0003L19.4436 15.0003L19.3797 14.3283C19.0596 14.7763 18.3956 15.0883 17.6036 15.0883C15.9636 15.0883 14.8197 13.8962 14.8197 12.0962C14.8197 10.3202 15.9798 9.05625 17.7398 9.05629C19.0758 9.05631 20.1077 9.83233 20.2757 11.0243L19.1957 11.0243C19.0117 10.3363 18.4197 10.0163 17.7157 10.0163Z" fill="white"/>
</svg>
