<svg width="24" height="24" viewBox="0 0 24 24" fill="none" xmlns="http://www.w3.org/2000/svg">
<path d="M23.6408 14.9029C22.0379 21.3315 15.5261 25.2438 9.09602 23.6407C2.66859 22.038 -1.24421 15.5266 0.359461 9.09838C1.96163 2.66907 8.47346 -1.24364 14.9016 0.359095C21.3313 1.96183 25.2437 8.47401 23.6408 14.9029Z" fill="#1275E9"/>
<path d="M4.15182 15L3.08782 15L5.19994 9.15204L6.24794 9.15206L8.35982 15.0001L7.27982 15.0001L6.80785 13.6481L4.62385 13.648L4.15182 15ZM5.5919 10.8961L4.92787 12.784L6.51187 12.7841L5.8399 10.8961C5.79191 10.7441 5.73591 10.5681 5.71991 10.4481C5.69591 10.5601 5.64791 10.7361 5.5919 10.8961ZM14.1401 12.0722C14.1401 13.8482 12.9721 15.0962 11.2921 15.0962C9.62007 15.0961 8.4681 13.8561 8.46813 12.0721C8.46817 10.2961 9.62819 9.04813 11.3002 9.04816C12.9722 9.04819 14.1402 10.2882 14.1401 12.0722ZM13.0601 12.0722C13.0602 10.8242 12.3722 10.0322 11.3002 10.0322C10.2282 10.0321 9.54016 10.8241 9.54013 12.0721C9.54011 13.3201 10.2281 14.1121 11.3001 14.1122C12.3721 14.1122 13.0601 13.3042 13.0601 12.0722ZM15.3081 15.0002L14.2441 15.0002L16.3562 9.15226L17.4042 9.15228L19.5161 15.0003L18.4361 15.0003L17.9641 13.6483L15.7801 13.6482L15.3081 15.0002ZM16.7482 10.8963L16.0841 12.7843L17.6681 12.7843L16.9962 10.8963C16.9482 10.7443 16.8922 10.5683 16.8762 10.4483C16.8522 10.5603 16.8042 10.7363 16.7482 10.8963Z" fill="white"/>
</svg>
