<svg width="24" height="24" viewBox="0 0 24 24" fill="none" xmlns="http://www.w3.org/2000/svg">
<path d="M23.6408 14.9029C22.0379 21.3315 15.5261 25.2438 9.09602 23.6407C2.66859 22.038 -1.24421 15.5266 0.359461 9.09838C1.96163 2.66907 8.47346 -1.24364 14.9016 0.359095C21.3313 1.96183 25.2437 8.47401 23.6408 14.9029Z" fill="#1275E9"/>
<path d="M5.15182 15L4.08782 15L6.19994 9.15204L7.24794 9.15206L9.35982 15.0001L8.27982 15.0001L7.80785 13.6481L5.62385 13.648L5.15182 15ZM6.5919 10.8961L5.92787 12.784L7.51187 12.7841L6.8399 10.8961C6.79191 10.7441 6.73591 10.5681 6.71991 10.4481C6.69591 10.5601 6.64791 10.7361 6.5919 10.8961ZM11.1171 15.0001L10.0931 15.0001L10.0933 9.15212L12.3253 9.15216C13.6533 9.15219 14.4292 9.8242 14.4292 10.9762C14.4292 11.7602 14.0612 12.3202 13.3732 12.6002L14.4851 15.0002L13.3651 15.0002L12.3732 12.8162L11.1172 12.8161L11.1171 15.0001ZM11.1172 10.0641L11.1172 11.9121L12.3252 11.9122C12.9732 11.9122 13.3572 11.5682 13.3572 10.9762C13.3572 10.3922 12.9732 10.0642 12.3252 10.0642L11.1172 10.0641ZM15.1166 10.7842C15.1166 9.76022 15.9646 9.04823 17.1966 9.04826C18.3806 9.04828 19.1326 9.70429 19.1646 10.7603L18.1406 10.7603C18.1166 10.2563 17.7566 9.96027 17.1806 9.96026C16.5486 9.96024 16.1406 10.2642 16.1406 10.7522C16.1406 11.1682 16.3646 11.4002 16.8526 11.5123L17.7726 11.7123C18.7726 11.9283 19.2606 12.4403 19.2605 13.3123C19.2605 14.4003 18.4125 15.1043 17.1245 15.1043C15.8765 15.1042 15.0605 14.4402 15.0365 13.3922L16.0605 13.3922C16.0685 13.8882 16.4685 14.1842 17.1245 14.1843C17.8045 14.1843 18.2365 13.8883 18.2365 13.4003C18.2366 13.0083 18.0366 12.7763 17.5566 12.6723L16.6286 12.4642C15.6366 12.2482 15.1166 11.6802 15.1166 10.7842Z" fill="white"/>
</svg>
