<svg width="24" height="24" viewBox="0 0 24 24" fill="none" xmlns="http://www.w3.org/2000/svg">
<path d="M23.6408 14.9029C22.0379 21.3315 15.5261 25.2438 9.09602 23.6407C2.66859 22.038 -1.24421 15.5266 0.359461 9.09838C1.96163 2.66907 8.47346 -1.24364 14.9016 0.359095C21.3313 1.96183 25.2437 8.47401 23.6408 14.9029Z" fill="#1275E9"/>
<path d="M4.15182 15L3.08782 15L5.19994 9.15204L6.24794 9.15206L8.35982 15.0001L7.27982 15.0001L6.80785 13.6481L4.62385 13.648L4.15182 15ZM5.5919 10.8961L4.92787 12.784L6.51187 12.7841L5.8399 10.8961C5.79191 10.7441 5.73591 10.5681 5.71991 10.4481C5.69591 10.5601 5.64791 10.7361 5.5919 10.8961ZM8.81099 12.8641L8.81106 9.15211L9.83506 9.15213L9.83499 12.8001C9.83498 13.6401 10.291 14.1041 11.123 14.1042C11.955 14.1042 12.419 13.6322 12.419 12.8002L12.4191 9.15218L13.4431 9.1522L13.443 12.8642C13.443 14.2322 12.5469 15.0962 11.1229 15.0962C9.70695 15.0961 8.81096 14.2401 8.81099 12.8641ZM16.8065 15.0003L14.7025 15.0002L14.7026 9.15223L16.7506 9.15227C18.4786 9.1523 19.6706 10.3443 19.6706 12.0883C19.6705 13.8083 18.5025 15.0003 16.8065 15.0003ZM16.6546 10.0963L15.7266 10.0962L15.7265 14.0562L16.7105 14.0563C17.8785 14.0563 18.5905 13.3043 18.5906 12.0883C18.5906 10.8483 17.8626 10.0963 16.6546 10.0963Z" fill="white"/>
</svg>
