<svg width="24" height="24" viewBox="0 0 24 24" fill="none" xmlns="http://www.w3.org/2000/svg">
<path d="M23.6408 14.9029C22.0379 21.3315 15.5261 25.2438 9.09602 23.6407C2.66859 22.038 -1.24421 15.5266 0.359461 9.09838C1.96163 2.66907 8.47346 -1.24364 14.9016 0.359095C21.3313 1.96183 25.2437 8.47401 23.6408 14.9029Z" fill="#1275E9"/>
<path d="M3.15182 15L2.08782 15L4.19994 9.15204L5.24794 9.15206L7.35982 15.0001L6.27982 15.0001L5.80785 13.6481L3.62385 13.648L3.15182 15ZM4.5919 10.8961L3.92787 12.784L5.51187 12.7841L4.8399 10.8961C4.79191 10.7441 4.73591 10.5681 4.71991 10.4481C4.69591 10.5601 4.64791 10.7361 4.5919 10.8961ZM8.67632 15.0001L6.93244 9.1521L7.99644 9.15212L8.92438 12.2401C9.01237 12.5601 9.10037 12.8881 9.18836 13.4001C9.28437 12.8801 9.37237 12.5761 9.47638 12.2401L10.3964 9.15216L11.5244 9.15219L12.4284 12.2402C12.5244 12.5682 12.6124 12.9042 12.7084 13.4002C12.8204 12.8562 12.9004 12.5442 12.9884 12.2482L13.9324 9.15223L14.9724 9.15225L13.1963 15.0002L12.2043 15.0002L10.9564 10.7442L9.68432 15.0001L8.67632 15.0001ZM18.0829 10.0163C16.9229 10.0163 16.2589 10.8563 16.2589 12.1203C16.2589 13.4243 17.0108 14.1363 18.0908 14.1363C19.1068 14.1363 19.7229 13.5763 19.7229 12.6403L19.7229 12.6163L17.9549 12.6163L17.9549 11.7123L20.6749 11.7124L20.6748 15.0004L19.8108 15.0003L19.7468 14.3283C19.4268 14.7763 18.7628 15.0883 17.9708 15.0883C16.3308 15.0883 15.1868 13.8963 15.1869 12.0963C15.1869 10.3203 16.3469 9.05628 18.1069 9.05631C19.4429 9.05634 20.4749 9.83236 20.6429 11.0244L19.5629 11.0243C19.3789 10.3363 18.7869 10.0163 18.0829 10.0163Z" fill="white"/>
</svg>
