<svg width="24" height="24" viewBox="0 0 24 24" fill="none" xmlns="http://www.w3.org/2000/svg">
<path d="M23.6408 14.9029C22.0379 21.3315 15.5261 25.2438 9.09602 23.6407C2.66859 22.038 -1.24421 15.5266 0.359461 9.09838C1.96163 2.66907 8.47346 -1.24364 14.9016 0.359095C21.3313 1.96183 25.2437 8.47401 23.6408 14.9029Z" fill="#1275E9"/>
<path d="M4.15182 15L3.08782 15L5.19994 9.15204L6.24794 9.15206L8.35982 15.0001L7.27982 15.0001L6.80785 13.6481L4.62385 13.648L4.15182 15ZM5.5919 10.8961L4.92787 12.784L6.51187 12.7841L5.8399 10.8961C5.79191 10.7441 5.73591 10.5681 5.71991 10.4481C5.69591 10.5601 5.64791 10.7361 5.5919 10.8961ZM12.9011 15.0002L8.69314 15.0001L8.69316 14.0481L11.5812 10.0962L8.75723 10.0961L8.75725 9.15211L12.8533 9.15219L12.8532 10.0642L9.94116 14.0561L12.9012 14.0562L12.9011 15.0002ZM14.8043 15.0002L13.7963 15.0002L13.7964 9.15221L14.8124 9.15223L17.5563 13.2963L17.5564 9.15228L18.5644 9.1523L18.5643 15.0003L17.5563 15.0003L14.8043 10.8562L14.8043 15.0002Z" fill="white"/>
</svg>
