<svg width="24" height="24" viewBox="0 0 24 24" fill="none" xmlns="http://www.w3.org/2000/svg">
<path d="M23.6408 14.9029C22.0379 21.3315 15.5261 25.2438 9.09602 23.6407C2.66859 22.038 -1.24421 15.5266 0.359461 9.09838C1.96163 2.66907 8.47346 -1.24364 14.9016 0.359095C21.3313 1.96183 25.2437 8.47401 23.6408 14.9029Z" fill="#1275E9"/>
<path d="M3.64782 15L3.64794 9.15201L5.97594 9.15206C7.12794 9.15208 7.83193 9.75209 7.83191 10.7281C7.8319 11.3761 7.54389 11.8401 6.99188 12.0721C7.60788 12.2721 7.91987 12.7361 7.91986 13.4161C7.91984 14.4161 7.22382 15.0001 6.01582 15.0001L3.64782 15ZM5.88792 10.0561L4.67192 10.056L4.67189 11.648L5.91189 11.6481C6.47189 11.6481 6.7839 11.3521 6.78391 10.8321C6.78392 10.3281 6.46392 10.0561 5.88792 10.0561ZM5.97587 12.5121L4.67187 12.512L4.67184 14.096L5.97584 14.0961C6.55184 14.0961 6.87185 13.8161 6.87186 13.2881C6.87187 12.7921 6.54387 12.5121 5.97587 12.5121ZM9.28464 15.0001L8.22064 15.0001L10.3328 9.15214L11.3808 9.15216L13.4926 15.0002L12.4126 15.0002L11.9407 13.6482L9.75666 13.6481L9.28464 15.0001ZM10.7247 10.8962L10.0607 12.7841L11.6447 12.7842L10.9727 10.8962C10.9247 10.7442 10.8687 10.5682 10.8527 10.4482C10.8287 10.5602 10.7807 10.7362 10.7247 10.8962ZM15.2179 15.0002L14.2259 15.0002L14.2261 9.15222L15.2181 9.15224L17.106 13.8083L18.9941 9.15231L20.0021 9.15233L20.0019 15.0003L19.0099 15.0003L19.01 13.2003C19.01 12.0243 19.01 11.6803 19.066 11.2643L17.5779 15.0003L16.6339 15.0003L15.154 11.2722C15.21 11.6242 15.218 12.1762 15.218 12.9042L15.2179 15.0002Z" fill="white"/>
</svg>
