<svg width="24" height="24" viewBox="0 0 24 24" fill="none" xmlns="http://www.w3.org/2000/svg">
<path d="M23.6408 14.9029C22.0379 21.3315 15.5261 25.2438 9.09602 23.6407C2.66859 22.038 -1.24421 15.5266 0.359461 9.09838C1.96163 2.66907 8.47346 -1.24364 14.9016 0.359095C21.3313 1.96183 25.2437 8.47401 23.6408 14.9029Z" fill="#1275E9"/>
<path d="M4.64782 15L4.64794 9.15201L6.97594 9.15206C8.12794 9.15208 8.83193 9.75209 8.83191 10.7281C8.8319 11.3761 8.54389 11.8401 7.99188 12.0721C8.60788 12.2721 8.91987 12.7361 8.91986 13.4161C8.91984 14.4161 8.22382 15.0001 7.01582 15.0001L4.64782 15ZM6.88792 10.0561L5.67192 10.056L5.67189 11.648L6.91189 11.6481C7.47189 11.6481 7.7839 11.3521 7.78391 10.8321C7.78392 10.3281 7.46392 10.0561 6.88792 10.0561ZM6.97587 12.5121L5.67187 12.512L5.67184 14.096L6.97584 14.0961C7.55184 14.0961 7.87185 13.8161 7.87186 13.2881C7.87187 12.7921 7.54387 12.5121 6.97587 12.5121ZM9.85876 15.0001L9.85888 9.15211L12.1869 9.15216C13.3389 9.15218 14.0429 9.7522 14.0428 10.7282C14.0428 11.3762 13.7548 11.8402 13.2028 12.0722C13.8188 12.2722 14.1308 12.7362 14.1308 13.4162C14.1308 14.4162 13.4348 15.0002 12.2268 15.0002L9.85876 15.0001ZM12.0989 10.0562L10.8829 10.0561L10.8828 11.6481L12.1228 11.6482C12.6828 11.6482 12.9948 11.3522 12.9948 10.8322C12.9949 10.3282 12.6749 10.0562 12.0989 10.0562ZM12.1868 12.5122L10.8828 12.5121L10.8828 14.0961L12.1868 14.0962C12.7628 14.0962 13.0828 13.8162 13.0828 13.2882C13.0828 12.7922 12.7548 12.5122 12.1868 12.5122ZM17.1737 15.0003L15.0697 15.0002L15.0698 9.15222L17.1178 9.15226C18.8458 9.15229 20.0378 10.3443 20.0378 12.0883C20.0377 13.8083 18.8697 15.0003 17.1737 15.0003ZM17.0218 10.0963L16.0938 10.0962L16.0937 14.0562L17.0777 14.0563C18.2457 14.0563 18.9577 13.3043 18.9578 12.0883C18.9578 10.8483 18.2298 10.0963 17.0218 10.0963Z" fill="white"/>
</svg>
