<svg width="24" height="24" viewBox="0 0 24 24" fill="none" xmlns="http://www.w3.org/2000/svg">
<path d="M23.6408 14.9029C22.0379 21.3315 15.5261 25.2438 9.09602 23.6407C2.66859 22.038 -1.24421 15.5266 0.359461 9.09838C1.96163 2.66907 8.47346 -1.24364 14.9016 0.359095C21.3313 1.96183 25.2437 8.47401 23.6408 14.9029Z" fill="#1275E9"/>
<path d="M3.64782 15L3.64794 9.15201L5.97594 9.15206C7.12794 9.15208 7.83193 9.75209 7.83191 10.7281C7.8319 11.3761 7.54389 11.8401 6.99188 12.0721C7.60788 12.2721 7.91987 12.7361 7.91986 13.4161C7.91984 14.4161 7.22382 15.0001 6.01582 15.0001L3.64782 15ZM5.88792 10.0561L4.67192 10.056L4.67189 11.648L5.91189 11.6481C6.47189 11.6481 6.7839 11.3521 6.78391 10.8321C6.78392 10.3281 6.46392 10.0561 5.88792 10.0561ZM5.97587 12.5121L4.67187 12.512L4.67184 14.096L5.97584 14.0961C6.55184 14.0961 6.87185 13.8161 6.87186 13.2881C6.87187 12.7921 6.54387 12.5121 5.97587 12.5121ZM11.4189 10.0162C10.2589 10.0161 9.59484 10.8561 9.59482 12.1201C9.59479 13.4241 10.3468 14.1361 11.4268 14.1362C12.4428 14.1362 13.0588 13.5762 13.0588 12.6402L13.0588 12.6162L11.2908 12.6162L11.2908 11.7122L14.0108 11.7122L14.0108 15.0002L13.1468 15.0002L13.0828 14.3282C12.7628 14.7762 12.0988 15.0882 11.3068 15.0882C9.66676 15.0881 8.52278 13.8961 8.52282 12.0961C8.52285 10.3201 9.68288 9.05613 11.4429 9.05616C12.7789 9.05619 13.8109 9.83221 13.9788 11.0242L12.8988 11.0242C12.7149 10.3362 12.1229 10.0162 11.4189 10.0162ZM16.1246 15.0003L15.1166 15.0002L15.1167 9.15224L16.1327 9.15226L18.8766 13.2963L18.8767 9.15231L19.8847 9.15233L19.8846 15.0003L18.8766 15.0003L16.1247 10.8563L16.1246 15.0003Z" fill="white"/>
</svg>
