<svg width="24" height="24" viewBox="0 0 24 24" fill="none" xmlns="http://www.w3.org/2000/svg">
<path d="M23.6408 14.9029C22.0379 21.3315 15.5261 25.2438 9.09602 23.6407C2.66859 22.038 -1.24421 15.5266 0.359461 9.09838C1.96163 2.66907 8.47346 -1.24364 14.9016 0.359095C21.3313 1.96183 25.2437 8.47401 23.6408 14.9029Z" fill="#1275E9"/>
<path d="M6.64782 15L6.64794 9.15201L8.97594 9.15206C10.1279 9.15208 10.8319 9.75209 10.8319 10.7281C10.8319 11.3761 10.5439 11.8401 9.99188 12.0721C10.6079 12.2721 10.9199 12.7361 10.9199 13.4161C10.9198 14.4161 10.2238 15.0001 9.01582 15.0001L6.64782 15ZM8.88792 10.0561L7.67192 10.056L7.67189 11.648L8.91189 11.6481C9.47189 11.6481 9.7839 11.3521 9.78391 10.8321C9.78392 10.3281 9.46392 10.0561 8.88792 10.0561ZM8.97587 12.5121L7.67187 12.512L7.67184 14.096L8.97584 14.0961C9.55184 14.0961 9.87185 13.8161 9.87186 13.2881C9.87187 12.7921 9.54387 12.5121 8.97587 12.5121ZM12.8829 9.15213L12.8828 15.0001L11.8588 15.0001L11.8589 9.15211L12.8829 9.15213ZM17.3791 12.6082L15.2031 12.6082L15.2031 15.0002L14.1791 15.0002L14.1792 9.15216L17.7952 9.15223L17.7952 10.0962L15.2032 10.0962L15.2031 11.6882L17.3791 11.6882L17.3791 12.6082Z" fill="white"/>
</svg>
