<svg width="24" height="24" viewBox="0 0 24 24" fill="none" xmlns="http://www.w3.org/2000/svg">
<path d="M23.6408 14.9029C22.0379 21.3315 15.5261 25.2438 9.09602 23.6407C2.66859 22.038 -1.24421 15.5266 0.359461 9.09838C1.96163 2.66907 8.47346 -1.24364 14.9016 0.359095C21.3313 1.96183 25.2437 8.47401 23.6408 14.9029Z" fill="#1275E9"/>
<path d="M3.64782 15L3.64794 9.15201L5.97594 9.15206C7.12794 9.15208 7.83193 9.75209 7.83191 10.7281C7.8319 11.3761 7.54389 11.8401 6.99188 12.0721C7.60788 12.2721 7.91987 12.7361 7.91986 13.4161C7.91984 14.4161 7.22382 15.0001 6.01582 15.0001L3.64782 15ZM5.88792 10.0561L4.67192 10.056L4.67189 11.648L5.91189 11.6481C6.47189 11.6481 6.7839 11.3521 6.78391 10.8321C6.78392 10.3281 6.46392 10.0561 5.88792 10.0561ZM5.97587 12.5121L4.67187 12.512L4.67184 14.096L5.97584 14.0961C6.55184 14.0961 6.87185 13.8161 6.87186 13.2881C6.87187 12.7921 6.54387 12.5121 5.97587 12.5121ZM9.85076 15.0001L8.85876 15.0001L8.85888 9.15211L9.85088 9.15213L11.7388 13.8082L13.6269 9.15221L14.6349 9.15223L14.6348 15.0002L13.6428 15.0002L13.6428 13.2002C13.6428 12.0242 13.6428 11.6802 13.6988 11.2642L12.2108 15.0002L11.2668 15.0002L9.78683 11.2721C9.84283 11.6241 9.85082 12.1761 9.8508 12.9041L9.85076 15.0001ZM18.0331 15.0003L15.9291 15.0003L15.9292 9.15225L17.9772 9.15229C19.7052 9.15233 20.8972 10.3443 20.8971 12.0883C20.8971 13.8083 19.7291 15.0003 18.0331 15.0003ZM17.8812 10.0963L16.9532 10.0963L16.9531 14.0563L17.9371 14.0563C19.1051 14.0563 19.8171 13.3043 19.8171 12.0883C19.8172 10.8483 19.0892 10.0963 17.8812 10.0963Z" fill="white"/>
</svg>
