<svg width="24" height="24" viewBox="0 0 24 24" fill="none" xmlns="http://www.w3.org/2000/svg">
<path d="M23.6408 14.9029C22.0379 21.3315 15.5261 25.2438 9.09602 23.6407C2.66859 22.038 -1.24421 15.5266 0.359461 9.09838C1.96163 2.66907 8.47346 -1.24364 14.9016 0.359095C21.3313 1.96183 25.2437 8.47401 23.6408 14.9029Z" fill="#1275E9"/>
<path d="M3.64782 15L3.64794 9.15201L5.97594 9.15206C7.12794 9.15208 7.83193 9.75209 7.83191 10.7281C7.8319 11.3761 7.54389 11.8401 6.99188 12.0721C7.60788 12.2721 7.91987 12.7361 7.91986 13.4161C7.91984 14.4161 7.22382 15.0001 6.01582 15.0001L3.64782 15ZM5.88792 10.0561L4.67192 10.056L4.67189 11.648L5.91189 11.6481C6.47189 11.6481 6.7839 11.3521 6.78391 10.8321C6.78392 10.3281 6.46392 10.0561 5.88792 10.0561ZM5.97587 12.5121L4.67187 12.512L4.67184 14.096L5.97584 14.0961C6.55184 14.0961 6.87185 13.8161 6.87186 13.2881C6.87187 12.7921 6.54387 12.5121 5.97587 12.5121ZM14.1948 12.0722C14.1948 13.8482 13.0268 15.0962 11.3468 15.0962C9.67476 15.0961 8.52278 13.8561 8.52282 12.0721C8.52285 10.2961 9.68288 9.04813 11.3549 9.04816C13.0269 9.0482 14.1949 10.2882 14.1948 12.0722ZM13.1148 12.0722C13.1148 10.8242 12.4269 10.0322 11.3549 10.0322C10.2829 10.0321 9.59484 10.8241 9.59482 12.0721C9.59479 13.3201 10.2828 14.1121 11.3548 14.1122C12.4268 14.1122 13.1148 13.3042 13.1148 12.0722ZM15.1478 15.0002L15.1479 9.15224L17.4759 9.15228C18.6279 9.1523 19.3319 9.75232 19.3319 10.7283C19.3319 11.3763 19.0439 11.8403 18.4919 12.0723C19.1079 12.2723 19.4199 12.7363 19.4199 13.4163C19.4198 14.4163 18.7238 15.0003 17.5158 15.0003L15.1478 15.0002ZM17.3879 10.0563L16.1719 10.0563L16.1719 11.6483L17.4119 11.6483C17.9719 11.6483 18.2839 11.3523 18.2839 10.8323C18.2839 10.3283 17.9639 10.0563 17.3879 10.0563ZM17.4759 12.5123L16.1719 12.5123L16.1718 14.0963L17.4758 14.0963C18.0518 14.0963 18.3718 13.8163 18.3719 13.2883C18.3719 12.7923 18.0439 12.5123 17.4759 12.5123Z" fill="white"/>
</svg>
