<svg width="24" height="24" viewBox="0 0 24 24" fill="none" xmlns="http://www.w3.org/2000/svg">
<path d="M23.6408 14.9029C22.0379 21.3315 15.5261 25.2438 9.09602 23.6407C2.66859 22.038 -1.24421 15.5266 0.359461 9.09838C1.96163 2.66907 8.47346 -1.24364 14.9016 0.359095C21.3313 1.96183 25.2437 8.47401 23.6408 14.9029Z" fill="#1275E9"/>
<path d="M4.64782 15L4.64794 9.15201L6.97594 9.15206C8.12794 9.15208 8.83193 9.75209 8.83191 10.7281C8.8319 11.3761 8.54389 11.8401 7.99188 12.0721C8.60788 12.2721 8.91987 12.7361 8.91986 13.4161C8.91984 14.4161 8.22382 15.0001 7.01582 15.0001L4.64782 15ZM6.88792 10.0561L5.67192 10.056L5.67189 11.648L6.91189 11.6481C7.47189 11.6481 7.7839 11.3521 7.78391 10.8321C7.78392 10.3281 7.46392 10.0561 6.88792 10.0561ZM6.97587 12.5121L5.67187 12.512L5.67184 14.096L6.97584 14.0961C7.55184 14.0961 7.87185 13.8161 7.87186 13.2881C7.87187 12.7921 7.54387 12.5121 6.97587 12.5121ZM9.52284 10.7841C9.52286 9.76011 10.3709 9.04812 11.6029 9.04815C12.7869 9.04817 13.5389 9.70419 13.5708 10.7602L12.5468 10.7602C12.5229 10.2562 12.1629 9.96016 11.5869 9.96015C10.9549 9.96014 10.5469 10.2641 10.5468 10.7521C10.5468 11.1681 10.7708 11.4001 11.2588 11.5121L12.1788 11.7122C13.1788 11.9282 13.6668 12.4402 13.6668 13.3122C13.6668 14.4002 12.8188 15.1042 11.5308 15.1041C10.2828 15.1041 9.46677 14.4401 9.44279 13.3921L10.4668 13.3921C10.4748 13.8881 10.8748 14.1841 11.5308 14.1841C12.2108 14.1842 12.6428 13.8882 12.6428 13.4002C12.6428 13.0082 12.4428 12.7762 11.9628 12.6722L11.0348 12.4641C10.0428 12.2481 9.52283 11.6801 9.52284 10.7841ZM16.6971 15.0002L14.5931 15.0002L14.5933 9.15221L16.6413 9.15225C18.3693 9.15228 19.5612 10.3443 19.5612 12.0883C19.5612 13.8083 18.3931 15.0003 16.6971 15.0002ZM16.5452 10.0962L15.6172 10.0962L15.6172 14.0562L16.6012 14.0562C17.7692 14.0563 18.4812 13.3043 18.4812 12.0883C18.4812 10.8483 17.7532 10.0963 16.5452 10.0962Z" fill="white"/>
</svg>
