<svg width="24" height="24" viewBox="0 0 24 24" fill="none" xmlns="http://www.w3.org/2000/svg">
<path d="M23.6408 14.9029C22.0379 21.3315 15.5261 25.2438 9.09602 23.6407C2.66859 22.038 -1.24421 15.5266 0.359461 9.09838C1.96163 2.66907 8.47346 -1.24364 14.9016 0.359095C21.3313 1.96183 25.2437 8.47401 23.6408 14.9029Z" fill="#1275E9"/>
<path d="M3.64831 15L3.64843 9.15201L5.97643 9.15206C7.12843 9.15208 7.83242 9.75209 7.8324 10.7281C7.83238 11.3761 7.54437 11.8401 6.99237 12.0721C7.60837 12.2721 7.92036 12.7361 7.92034 13.4161C7.92032 14.4161 7.22431 15.0001 6.01631 15.0001L3.64831 15ZM5.88841 10.0561L4.67241 10.056L4.67238 11.648L5.91238 11.6481C6.47238 11.6481 6.78438 11.3521 6.78439 10.8321C6.7844 10.3281 6.46441 10.0561 5.88841 10.0561ZM5.97636 12.5121L4.67236 12.512L4.67233 14.096L5.97633 14.0961C6.55233 14.0961 6.87234 13.8161 6.87235 13.2881C6.87236 12.7921 6.54436 12.5121 5.97636 12.5121ZM9.95806 15.0001L8.21418 9.1521L9.27818 9.15212L10.2061 12.2401C10.2941 12.5601 10.3821 12.8881 10.4701 13.4001C10.5661 12.8801 10.6541 12.5761 10.7581 12.2402L11.6782 9.15217L12.8062 9.15219L13.7101 12.2402C13.8061 12.5682 13.8941 12.9042 13.9901 13.4002C14.1021 12.8562 14.1821 12.5442 14.2701 12.2482L15.2142 9.15224L16.2542 9.15226L14.4781 15.0002L13.4861 15.0002L12.2381 10.7442L10.9661 15.0002L9.95806 15.0001ZM19.3354 12.9843L18.0474 12.9843L18.0473 15.0003L17.0233 15.0003L17.0234 9.15227L19.3354 9.15232C20.5114 9.15234 21.2714 9.92036 21.2714 11.0644C21.2714 12.1924 20.5034 12.9843 19.3354 12.9843ZM19.1354 10.0643L18.0474 10.0643L18.0474 12.0723L19.1194 12.0723C19.8234 12.0723 20.1994 11.6963 20.1994 11.0563C20.1994 10.4163 19.8154 10.0643 19.1354 10.0643Z" fill="white"/>
</svg>
