<svg width="24" height="24" viewBox="0 0 24 24" fill="none" xmlns="http://www.w3.org/2000/svg">
<path d="M23.6408 14.9029C22.0379 21.3315 15.5261 25.2438 9.09602 23.6407C2.66859 22.038 -1.24421 15.5266 0.359461 9.09838C1.96163 2.66907 8.47346 -1.24364 14.9016 0.359095C21.3313 1.96183 25.2437 8.47401 23.6408 14.9029Z" fill="#1275E9"/>
<path d="M4.64782 15L4.64794 9.15201L6.97594 9.15206C8.12794 9.15208 8.83193 9.75209 8.83191 10.7281C8.8319 11.3761 8.54389 11.8401 7.99188 12.0721C8.60788 12.2721 8.91987 12.7361 8.91986 13.4161C8.91984 14.4161 8.22382 15.0001 7.01582 15.0001L4.64782 15ZM6.88792 10.0561L5.67192 10.056L5.67189 11.648L6.91189 11.6481C7.47189 11.6481 7.7839 11.3521 7.78391 10.8321C7.78392 10.3281 7.46392 10.0561 6.88792 10.0561ZM6.97587 12.5121L5.67187 12.512L5.67184 14.096L6.97584 14.0961C7.55184 14.0961 7.87185 13.8161 7.87186 13.2881C7.87187 12.7921 7.54387 12.5121 6.97587 12.5121ZM11.0481 12.6961L9.07213 9.1521L10.2161 9.15212L11.3681 11.2801C11.4561 11.4401 11.5121 11.5681 11.5761 11.7121C11.6481 11.5681 11.6801 11.4721 11.7841 11.2802L12.9281 9.15217L14.0401 9.1522L12.0721 12.6962L12.072 15.0002L11.048 15.0001L11.0481 12.6961ZM15.773 15.0002L14.765 15.0002L14.7651 9.15221L15.7811 9.15223L18.525 13.2963L18.5251 9.15228L19.5331 9.1523L19.533 15.0003L18.525 15.0003L15.7731 10.8562L15.773 15.0002Z" fill="white"/>
</svg>
