<svg width="24" height="24" viewBox="0 0 24 24" fill="none" xmlns="http://www.w3.org/2000/svg">
<path d="M23.6408 14.9029C22.0379 21.3315 15.5261 25.2438 9.09602 23.6407C2.66859 22.038 -1.24421 15.5266 0.359461 9.09838C1.96163 2.66907 8.47346 -1.24364 14.9016 0.359095C21.3313 1.96183 25.2437 8.47401 23.6408 14.9029Z" fill="#1275E9"/>
<path d="M4.64782 15L4.64794 9.15201L6.97594 9.15206C8.12794 9.15208 8.83193 9.75209 8.83191 10.7281C8.8319 11.3761 8.54389 11.8401 7.99188 12.0721C8.60788 12.2721 8.91987 12.7361 8.91986 13.4161C8.91984 14.4161 8.22382 15.0001 7.01582 15.0001L4.64782 15ZM6.88792 10.0561L5.67192 10.056L5.67189 11.648L6.91189 11.6481C7.47189 11.6481 7.7839 11.3521 7.78391 10.8321C7.78392 10.3281 7.46392 10.0561 6.88792 10.0561ZM6.97587 12.5121L5.67187 12.512L5.67184 14.096L6.97584 14.0961C7.55184 14.0961 7.87185 13.8161 7.87186 13.2881C7.87187 12.7921 7.54387 12.5121 6.97587 12.5121ZM13.6668 15.0002L9.45876 15.0001L9.45878 14.0481L12.3469 10.0962L9.52286 10.0961L9.52288 9.15211L13.6189 9.15219L13.6189 10.0642L10.7068 14.0561L13.6668 14.0562L13.6668 15.0002ZM16.6659 15.0002L14.5619 15.0002L14.562 9.15221L16.61 9.15225C18.338 9.15228 19.53 10.3443 19.5299 12.0883C19.5299 13.8083 18.3619 15.0003 16.6659 15.0002ZM16.514 10.0962L15.586 10.0962L15.5859 14.0562L16.5699 14.0562C17.7379 14.0563 18.4499 13.3043 18.4499 12.0883C18.45 10.8483 17.722 10.0963 16.514 10.0962Z" fill="white"/>
</svg>
