<svg width="24" height="24" viewBox="0 0 24 24" fill="none" xmlns="http://www.w3.org/2000/svg">
<path d="M23.6408 14.9029C22.0379 21.3315 15.5261 25.2438 9.09602 23.6407C2.66859 22.038 -1.24421 15.5266 0.359461 9.09838C1.96163 2.66907 8.47346 -1.24364 14.9016 0.359095C21.3313 1.96183 25.2437 8.47401 23.6408 14.9029Z" fill="#1275E9"/>
<path d="M6.11982 15.0961C4.41582 15.096 3.31185 13.912 3.31188 12.08C3.31192 10.264 4.45594 9.05603 6.16794 9.05606C7.55194 9.05609 8.58392 9.86411 8.7839 11.1201L7.7039 11.1201C7.50391 10.4401 6.91992 10.0401 6.14392 10.0401C5.06392 10.04 4.38391 10.824 4.38388 12.072C4.38386 13.312 5.07184 14.112 6.14384 14.1121C6.93584 14.1121 7.54385 13.6961 7.73586 13.0481L8.79986 13.0481C8.57584 14.2801 7.50382 15.0961 6.11982 15.0961ZM9.97214 15.0001L8.90814 15.0001L11.0203 9.15216L12.0683 9.15218L14.1801 15.0002L13.1001 15.0002L12.6282 13.6482L10.4442 13.6481L9.97214 15.0001ZM11.4122 10.8962L10.7482 12.7842L12.3322 12.7842L11.6602 10.8962C11.6122 10.7442 11.5562 10.5682 11.5402 10.4482C11.5162 10.5602 11.4682 10.7362 11.4122 10.8962ZM17.0174 15.0003L14.9134 15.0002L14.9136 9.15223L16.9616 9.15227C18.6896 9.15231 19.8815 10.3443 19.8815 12.0883C19.8815 13.8083 18.7134 15.0003 17.0174 15.0003ZM16.8655 10.0963L15.9375 10.0963L15.9375 14.0563L16.9215 14.0563C18.0895 14.0563 18.8015 13.3043 18.8015 12.0883C18.8015 10.8483 18.0735 10.0963 16.8655 10.0963Z" fill="white"/>
</svg>
