<svg width="24" height="24" viewBox="0 0 24 24" fill="none" xmlns="http://www.w3.org/2000/svg">
<path d="M23.6408 14.9029C22.0379 21.3315 15.5261 25.2438 9.09602 23.6407C2.66859 22.038 -1.24421 15.5266 0.359461 9.09838C1.96163 2.66907 8.47346 -1.24364 14.9016 0.359095C21.3313 1.96183 25.2437 8.47401 23.6408 14.9029Z" fill="#1275E9"/>
<path d="M6.11982 15.0961C4.41582 15.096 3.31185 13.912 3.31188 12.08C3.31192 10.264 4.45594 9.05603 6.16794 9.05606C7.55194 9.05609 8.58392 9.86411 8.7839 11.1201L7.7039 11.1201C7.50391 10.4401 6.91992 10.0401 6.14392 10.0401C5.06392 10.04 4.38391 10.824 4.38388 12.072C4.38386 13.312 5.07184 14.112 6.14384 14.1121C6.93584 14.1121 7.54385 13.6961 7.73586 13.0481L8.79986 13.0481C8.57584 14.2801 7.50382 15.0961 6.11982 15.0961ZM11.8221 15.0002L9.71814 15.0001L9.71825 9.15213L11.7663 9.15217C13.4943 9.1522 14.6862 10.3442 14.6862 12.0882C14.6862 13.8082 13.5181 15.0002 11.8221 15.0002ZM11.6702 10.0962L10.7422 10.0962L10.7422 14.0562L11.7262 14.0562C12.8942 14.0562 13.6062 13.3042 13.6062 12.0882C13.6062 10.8482 12.8782 10.0962 11.6702 10.0962ZM18.8401 12.6083L16.6641 12.6083L16.664 15.0003L15.64 15.0002L15.6401 9.15225L19.2561 9.15232L19.2561 10.0963L16.6641 10.0963L16.6641 11.6883L18.8401 11.6883L18.8401 12.6083Z" fill="white"/>
</svg>
