<svg width="24" height="24" viewBox="0 0 24 24" fill="none" xmlns="http://www.w3.org/2000/svg">
<path d="M23.6408 14.9029C22.0379 21.3315 15.5261 25.2438 9.09602 23.6407C2.66859 22.038 -1.24421 15.5266 0.359461 9.09838C1.96163 2.66907 8.47346 -1.24364 14.9016 0.359095C21.3313 1.96183 25.2437 8.47401 23.6408 14.9029Z" fill="#1275E9"/>
<path d="M7.12 15.0962C5.416 15.0962 4.312 13.9122 4.312 12.0802C4.312 10.2642 5.456 9.05616 7.168 9.05616C8.552 9.05616 9.584 9.86416 9.784 11.1202H8.704C8.504 10.4402 7.92 10.0402 7.144 10.0402C6.064 10.0402 5.384 10.8242 5.384 12.0722C5.384 13.3122 6.072 14.1122 7.144 14.1122C7.936 14.1122 8.544 13.6962 8.736 13.0482H9.8C9.576 14.2802 8.504 15.0962 7.12 15.0962ZM11.7423 15.0002H10.7183V9.15216H11.7423V11.5682H14.3343V9.15216H15.3583V15.0002H14.3343V12.5202H11.7423V15.0002ZM19.8558 12.6082H17.6798V15.0002H16.6558V9.15216H20.2718V10.0962H17.6798V11.6882H19.8558V12.6082Z" fill="white"/>
</svg>
