<svg width="24" height="24" viewBox="0 0 24 24" fill="none" xmlns="http://www.w3.org/2000/svg">
<path d="M23.6408 14.9029C22.0379 21.3315 15.5261 25.2438 9.09602 23.6407C2.66859 22.038 -1.24421 15.5266 0.359461 9.09838C1.96163 2.66907 8.47346 -1.24364 14.9016 0.359095C21.3313 1.96183 25.2437 8.47401 23.6408 14.9029Z" fill="#1275E9"/>
<path d="M6.11982 15.0961C4.41582 15.096 3.31185 13.912 3.31188 12.08C3.31192 10.264 4.45594 9.05603 6.16794 9.05606C7.55194 9.05609 8.58392 9.86411 8.7839 11.1201L7.7039 11.1201C7.50391 10.4401 6.91992 10.0401 6.14392 10.0401C5.06392 10.04 4.38391 10.824 4.38388 12.072C4.38386 13.312 5.07184 14.112 6.14384 14.1121C6.93584 14.1121 7.54385 13.6961 7.73586 13.0481L8.79986 13.0481C8.57584 14.2801 7.50382 15.0961 6.11982 15.0961ZM10.7261 15.0002L9.71814 15.0001L9.71825 9.15213L10.7343 9.15215L13.4782 13.2962L13.4783 9.1522L14.4863 9.15222L14.4861 15.0002L13.4781 15.0002L10.7262 10.8562L10.7261 15.0002ZM17.1887 12.6963L15.2128 9.15224L16.3568 9.15226L17.5087 11.2803C17.5967 11.4403 17.6527 11.5683 17.7167 11.7123C17.7887 11.5683 17.8207 11.4723 17.9247 11.2803L19.0688 9.15231L20.1808 9.15233L18.2127 12.6963L18.2126 15.0003L17.1886 15.0003L17.1887 12.6963Z" fill="white"/>
</svg>
