<svg width="24" height="24" viewBox="0 0 24 24" fill="none" xmlns="http://www.w3.org/2000/svg">
<path d="M23.6408 14.9029C22.0379 21.3315 15.5261 25.2438 9.09602 23.6407C2.66859 22.038 -1.24421 15.5266 0.359461 9.09838C1.96163 2.66907 8.47346 -1.24364 14.9016 0.359095C21.3313 1.96183 25.2437 8.47401 23.6408 14.9029Z" fill="#1275E9"/>
<path d="M6.11982 15.0961C4.41582 15.096 3.31185 13.912 3.31188 12.08C3.31192 10.264 4.45594 9.05603 6.16794 9.05606C7.55194 9.05609 8.58392 9.86411 8.7839 11.1201L7.7039 11.1201C7.50391 10.4401 6.91992 10.0401 6.14392 10.0401C5.06392 10.04 4.38391 10.824 4.38388 12.072C4.38386 13.312 5.07184 14.112 6.14384 14.1121C6.93584 14.1121 7.54385 13.6961 7.73586 13.0481L8.79986 13.0481C8.57584 14.2801 7.50382 15.0961 6.11982 15.0961ZM15.0542 12.0722C15.0542 13.8482 13.8861 15.0962 12.2061 15.0962C10.5341 15.0961 9.38216 13.8561 9.38219 12.0721C9.38223 10.2961 10.5423 9.04815 12.2143 9.04818C13.8863 9.04821 15.0542 10.2882 15.0542 12.0722ZM13.9742 12.0722C13.9742 10.8242 13.2862 10.0322 12.2142 10.0322C11.1422 10.0322 10.4542 10.8241 10.4542 12.0721C10.4542 13.3201 11.1422 14.1122 12.2142 14.1122C13.2862 14.1122 13.9742 13.3042 13.9742 12.0722ZM18.3192 12.9843L17.0312 12.9843L17.0312 15.0003L16.0072 15.0003L16.0073 9.15225L18.3193 9.1523C19.4953 9.15232 20.2553 9.92034 20.2553 11.0643C20.2553 12.1923 19.4872 12.9843 18.3192 12.9843ZM18.1193 10.0643L17.0313 10.0643L17.0313 12.0723L18.1033 12.0723C18.8073 12.0723 19.1833 11.6963 19.1833 11.0563C19.1833 10.4163 18.7993 10.0643 18.1193 10.0643Z" fill="white"/>
</svg>
