<svg width="24" height="24" viewBox="0 0 24 24" fill="none" xmlns="http://www.w3.org/2000/svg">
<path d="M23.6408 14.9029C22.0379 21.3315 15.5261 25.2438 9.09602 23.6407C2.66859 22.038 -1.24421 15.5266 0.359461 9.09838C1.96163 2.66907 8.47346 -1.24364 14.9016 0.359095C21.3313 1.96183 25.2437 8.47401 23.6408 14.9029Z" fill="#1275E9"/>
<path d="M6.11982 15.0961C4.41582 15.096 3.31185 13.912 3.31188 12.08C3.31192 10.264 4.45594 9.05603 6.16794 9.05606C7.55194 9.05609 8.58392 9.86411 8.7839 11.1201L7.7039 11.1201C7.50391 10.4401 6.91992 10.0401 6.14392 10.0401C5.06392 10.04 4.38391 10.824 4.38388 12.072C4.38386 13.312 5.07184 14.112 6.14384 14.1121C6.93584 14.1121 7.54385 13.6961 7.73586 13.0481L8.79986 13.0481C8.57584 14.2801 7.50382 15.0961 6.11982 15.0961ZM10.7421 15.0002L9.71814 15.0001L9.71825 9.15213L11.9503 9.15217C13.2783 9.1522 14.0542 9.82422 14.0542 10.9762C14.0542 11.7602 13.6862 12.3202 12.9982 12.6002L14.1101 15.0002L12.9901 15.0002L11.9982 12.8162L10.7422 12.8162L10.7421 15.0002ZM10.7422 10.0642L10.7422 11.9122L11.9502 11.9122C12.5982 11.9122 12.9822 11.5682 12.9822 10.9762C12.9822 10.3922 12.5982 10.0642 11.9502 10.0642L10.7422 10.0642ZM17.5339 15.0963C15.8299 15.0963 14.7259 13.9122 14.7259 12.0802C14.726 10.2642 15.87 9.05625 17.582 9.05628C18.966 9.05631 19.998 9.86433 20.198 11.1203L19.118 11.1203C18.918 10.4403 18.334 10.0403 17.558 10.0403C16.478 10.0403 15.798 10.8242 15.7979 12.0722C15.7979 13.3122 16.4859 14.1123 17.5579 14.1123C18.3499 14.1123 18.9579 13.6963 19.1499 13.0483L20.2139 13.0483C19.9899 14.2803 18.9179 15.0963 17.5339 15.0963Z" fill="white"/>
</svg>
