<svg width="24" height="24" viewBox="0 0 24 24" fill="none" xmlns="http://www.w3.org/2000/svg">
<path d="M23.6408 14.9029C22.0379 21.3315 15.5261 25.2438 9.09602 23.6407C2.66859 22.038 -1.24421 15.5266 0.359461 9.09838C1.96163 2.66907 8.47346 -1.24364 14.9016 0.359095C21.3313 1.96183 25.2437 8.47401 23.6408 14.9029Z" fill="#1275E9"/>
<path d="M6.11982 15.0961C4.41582 15.096 3.31185 13.912 3.31188 12.08C3.31192 10.264 4.45594 9.05603 6.16794 9.05606C7.55194 9.05609 8.58392 9.86411 8.7839 11.1201L7.7039 11.1201C7.50391 10.4401 6.91992 10.0401 6.14392 10.0401C5.06392 10.04 4.38391 10.824 4.38388 12.072C4.38386 13.312 5.07184 14.112 6.14384 14.1121C6.93584 14.1121 7.54385 13.6961 7.73586 13.0481L8.79986 13.0481C8.57584 14.2801 7.50382 15.0961 6.11982 15.0961ZM9.67818 12.8641L9.67825 9.15213L10.7023 9.15215L10.7022 12.8002C10.7022 13.6402 11.1582 14.1042 11.9902 14.1042C12.8222 14.1042 13.2862 13.6322 13.2862 12.8002L13.2863 9.1522L14.3103 9.15222L14.3102 12.8642C14.3102 14.2322 13.4141 15.0962 11.9901 15.0962C10.5741 15.0961 9.67815 14.2401 9.67818 12.8641ZM17.8817 12.9843L16.5937 12.9843L16.5937 15.0003L15.5697 15.0002L15.5698 9.15225L17.8818 9.15229C19.0578 9.15231 19.8178 9.92033 19.8178 11.0643C19.8178 12.1923 19.0497 12.9843 17.8817 12.9843ZM17.6818 10.0643L16.5938 10.0643L16.5938 12.0723L17.6658 12.0723C18.3698 12.0723 18.7458 11.6963 18.7458 11.0563C18.7458 10.4163 18.3618 10.0643 17.6818 10.0643Z" fill="white"/>
</svg>
