<svg width="24" height="24" viewBox="0 0 24 24" fill="none" xmlns="http://www.w3.org/2000/svg">
<path d="M23.6408 14.9029C22.0379 21.3315 15.5261 25.2438 9.09602 23.6407C2.66859 22.038 -1.24421 15.5266 0.359461 9.09838C1.96163 2.66907 8.47346 -1.24364 14.9016 0.359095C21.3313 1.96183 25.2437 8.47401 23.6408 14.9029V14.9029Z" fill="#1275E9"/>
<path d="M6.11982 15.0961C4.41582 15.096 3.31185 13.912 3.31188 12.08C3.31192 10.264 4.45594 9.05603 6.16794 9.05606C7.55194 9.05609 8.58392 9.86411 8.7839 11.1201L7.7039 11.1201C7.50391 10.4401 6.91992 10.0401 6.14392 10.0401C5.06392 10.04 4.38391 10.824 4.38388 12.072C4.38386 13.312 5.07184 14.112 6.14384 14.1121C6.93584 14.1121 7.54385 13.6961 7.73586 13.0481L8.79986 13.0481C8.57584 14.2801 7.50382 15.0961 6.11982 15.0961ZM11.2019 15.0002L8.994 9.15212L10.082 9.15214L11.3619 12.5202C11.4899 12.8722 11.6019 13.2162 11.7299 13.6882C11.8739 13.1762 11.9939 12.8162 12.1059 12.5202L13.37 9.1522L14.434 9.15222L12.2579 15.0002L11.2019 15.0002ZM18.7954 15.0003L15.1634 15.0002L15.1636 9.15224L18.7956 9.15231L18.7955 10.0963L16.1875 10.0963L16.1875 11.6003L18.5235 11.6003L18.5235 12.5043L16.1875 12.5043L16.1875 14.0563L18.7955 14.0563L18.7954 15.0003Z" fill="white"/>
</svg>
