<svg width="24" height="24" viewBox="0 0 24 24" fill="none" xmlns="http://www.w3.org/2000/svg">
<path d="M23.6408 14.9029C22.0379 21.3315 15.5261 25.2438 9.09602 23.6407C2.66859 22.038 -1.24421 15.5266 0.359461 9.09838C1.96163 2.66907 8.47346 -1.24364 14.9016 0.359095C21.3313 1.96183 25.2437 8.47401 23.6408 14.9029Z" fill="#1275E9"/>
<path d="M7.11982 15.0961C5.41582 15.096 4.31185 13.912 4.31188 12.08C4.31192 10.264 5.45594 9.05603 7.16794 9.05606C8.55194 9.05609 9.58392 9.86411 9.7839 11.1201L8.7039 11.1201C8.50391 10.4401 7.91992 10.0401 7.14392 10.0401C6.06392 10.04 5.38391 10.824 5.38388 12.072C5.38386 13.312 6.07184 14.112 7.14384 14.1121C7.93584 14.1121 8.54385 13.6961 8.73586 13.0481L9.79986 13.0481C9.57584 14.2801 8.50382 15.0961 7.11982 15.0961ZM14.4793 15.0002L10.2713 15.0001L10.2713 14.0481L13.1594 10.0962L10.3354 10.0961L10.3354 9.15212L14.4314 9.1522L14.4314 10.0642L11.5193 14.0561L14.4793 14.0562L14.4793 15.0002ZM16.3985 9.15224L16.3984 12.2242L18.7665 9.15229L19.9745 9.15231L18.0385 11.6483L19.9984 15.0003L18.8144 15.0003L17.3664 12.5123L16.3984 13.7522L16.3984 15.0002L15.3744 15.0002L15.3745 9.15222L16.3985 9.15224Z" fill="white"/>
</svg>
