<svg width="24" height="24" viewBox="0 0 24 24" fill="none" xmlns="http://www.w3.org/2000/svg">
<path d="M23.6408 14.9029C22.0379 21.3315 15.5261 25.2438 9.09602 23.6407C2.66859 22.038 -1.24421 15.5266 0.359461 9.09838C1.96163 2.66907 8.47346 -1.24364 14.9016 0.359095C21.3313 1.96183 25.2437 8.47401 23.6408 14.9029Z" fill="#1275E9"/>
<path d="M6.75182 15.0001L4.64782 15L4.64794 9.15201L6.69594 9.15205C8.42394 9.15209 9.61592 10.3441 9.61588 12.0881C9.61585 13.8081 8.44782 15.0001 6.75182 15.0001ZM6.59992 10.0961L5.67192 10.096L5.67184 14.056L6.65584 14.0561C7.82384 14.0561 8.53586 13.3041 8.53588 12.0881C8.53591 10.8481 7.80792 10.0961 6.59992 10.0961ZM10.0817 13.3521L10.0817 13.0081L11.0657 13.0081L11.0657 13.3521C11.0657 13.8001 11.3137 14.1521 11.8897 14.1522C12.4657 14.1522 12.7057 13.8242 12.7057 13.3122L12.7058 9.15217L13.7298 9.15219L13.7297 13.3682C13.7297 14.4002 13.0097 15.1042 11.8977 15.1042C10.6977 15.1041 10.0817 14.3601 10.0817 13.3521ZM18.1838 12.6083L16.0078 12.6082L16.0078 15.0002L14.9838 15.0002L14.9839 9.15221L18.5999 9.15228L18.5999 10.0963L16.0079 10.0962L16.0078 11.6882L18.1838 11.6883L18.1838 12.6083Z" fill="white"/>
</svg>
