<svg width="24" height="24" viewBox="0 0 24 24" fill="none" xmlns="http://www.w3.org/2000/svg">
<path d="M23.6408 14.9029C22.0379 21.3315 15.5261 25.2438 9.09602 23.6407C2.66859 22.038 -1.24421 15.5266 0.359461 9.09838C1.96163 2.66907 8.47346 -1.24364 14.9016 0.359095C21.3313 1.96183 25.2437 8.47401 23.6408 14.9029Z" fill="#1275E9"/>
<path d="M5.75182 15.0001L3.64782 15L3.64794 9.15201L5.69594 9.15205C7.42394 9.15209 8.61592 10.3441 8.61588 12.0881C8.61585 13.8081 7.44782 15.0001 5.75182 15.0001ZM5.59992 10.0961L4.67192 10.096L4.67184 14.056L5.65584 14.0561C6.82384 14.0561 7.53586 13.3041 7.53588 12.0881C7.53591 10.8481 6.80792 10.0961 5.59992 10.0961ZM10.5938 9.15215L10.5938 12.2241L12.9618 9.15219L14.1698 9.15222L12.2338 11.6482L14.1937 15.0002L13.0097 15.0002L11.5617 12.5122L10.5937 13.7521L10.5937 15.0001L9.5697 15.0001L9.56981 9.15213L10.5938 9.15215ZM15.9844 9.15225L15.9844 12.2243L18.3524 9.1523L19.5604 9.15232L17.6244 11.6483L19.5843 15.0003L18.4003 15.0003L16.9524 12.5123L15.9843 13.7523L15.9843 15.0003L14.9603 15.0002L14.9604 9.15223L15.9844 9.15225Z" fill="white"/>
</svg>
