<svg width="24" height="24" viewBox="0 0 24 24" fill="none" xmlns="http://www.w3.org/2000/svg">
<path d="M23.6408 14.9029C22.0379 21.3315 15.5261 25.2438 9.09602 23.6407C2.66859 22.038 -1.24421 15.5266 0.359461 9.09838C1.96163 2.66907 8.47346 -1.24364 14.9016 0.359095C21.3313 1.96183 25.2437 8.47401 23.6408 14.9029Z" fill="#1275E9"/>
<path d="M5.75182 15.0001L3.64782 15L3.64794 9.15201L5.69594 9.15205C7.42394 9.15209 8.61592 10.3441 8.61588 12.0881C8.61585 13.8081 7.44782 15.0001 5.75182 15.0001ZM5.59992 10.0961L4.67192 10.096L4.67184 14.056L5.65584 14.0561C6.82384 14.0561 7.53586 13.3041 7.53588 12.0881C7.53591 10.8481 6.80792 10.0961 5.59992 10.0961ZM14.9058 12.0722C14.9057 13.8482 13.7377 15.0962 12.0577 15.0962C10.3857 15.0961 9.23372 13.8561 9.23376 12.0721C9.23379 10.2961 10.3938 9.04814 12.0658 9.04818C13.7378 9.04821 14.9058 10.2882 14.9058 12.0722ZM13.8258 12.0722C13.8258 10.8242 13.1378 10.0322 12.0658 10.0322C10.9938 10.0322 10.3058 10.8241 10.3058 12.0721C10.3057 13.3201 10.9937 14.1122 12.0657 14.1122C13.1377 14.1122 13.8257 13.3042 13.8258 12.0722ZM18.1708 12.9843L16.8828 12.9843L16.8828 15.0003L15.8588 15.0003L15.8589 9.15225L18.1709 9.1523C19.3469 9.15232 20.1069 9.92033 20.1068 11.0643C20.1068 12.1923 19.3388 12.9843 18.1708 12.9843ZM17.9709 10.0643L16.8829 10.0643L16.8828 12.0723L17.9548 12.0723C18.6588 12.0723 19.0348 11.6963 19.0348 11.0563C19.0349 10.4163 18.6509 10.0643 17.9709 10.0643Z" fill="white"/>
</svg>
