<svg width="24" height="24" viewBox="0 0 24 24" fill="none" xmlns="http://www.w3.org/2000/svg">
<path d="M23.6408 14.9029C22.0379 21.3315 15.5261 25.2438 9.09602 23.6407C2.66859 22.038 -1.24421 15.5266 0.359461 9.09838C1.96163 2.66907 8.47346 -1.24364 14.9016 0.359095C21.3313 1.96183 25.2437 8.47401 23.6408 14.9029Z" fill="#1275E9"/>
<path d="M5.75182 15.0001L3.64782 15L3.64794 9.15201L5.69594 9.15205C7.42394 9.15209 8.61592 10.3441 8.61588 12.0881C8.61585 13.8081 7.44782 15.0001 5.75182 15.0001ZM5.59992 10.0961L4.67192 10.096L4.67184 14.056L5.65584 14.0561C6.82384 14.0561 7.53586 13.3041 7.53588 12.0881C7.53591 10.8481 6.80792 10.0961 5.59992 10.0961ZM13.3777 15.0002L9.1697 15.0001L9.16972 14.0481L12.0578 10.0962L9.2338 10.0961L9.23381 9.15212L13.3298 9.1522L13.3298 10.0642L10.4177 14.0561L13.3777 14.0562L13.3777 15.0002ZM16.3768 15.0003L14.2728 15.0002L14.2729 9.15222L16.3209 9.15226C18.0489 9.15229 19.2409 10.3443 19.2409 12.0883C19.2408 13.8083 18.0728 15.0003 16.3768 15.0003ZM16.2249 10.0963L15.2969 10.0962L15.2968 14.0562L16.2808 14.0563C17.4488 14.0563 18.1609 13.3043 18.1609 12.0883C18.1609 10.8483 17.4329 10.0963 16.2249 10.0963Z" fill="white"/>
</svg>
