<svg width="24" height="24" viewBox="0 0 24 24" fill="none" xmlns="http://www.w3.org/2000/svg">
<path d="M23.6408 14.9029C22.0379 21.3315 15.5261 25.2438 9.09602 23.6407C2.66859 22.038 -1.24421 15.5266 0.359461 9.09838C1.96163 2.66907 8.47346 -1.24364 14.9016 0.359095C21.3313 1.96183 25.2437 8.47401 23.6408 14.9029Z" fill="#1275E9"/>
<path d="M7.27982 15.0001L3.64782 15L3.64794 9.15201L7.27994 9.15208L7.27992 10.0961L4.67192 10.096L4.67189 11.6L7.00789 11.6001L7.00787 12.5041L4.67187 12.504L4.67184 14.056L7.27984 14.0561L7.27982 15.0001ZM10.9501 10.0162C9.79011 10.0161 9.12609 10.8561 9.12607 12.1201C9.12604 13.4241 9.87803 14.1361 10.958 14.1362C11.974 14.1362 12.59 13.5762 12.5901 12.6402L12.5901 12.6162L10.8221 12.6162L10.8221 11.7122L13.5421 11.7122L13.542 15.0002L12.678 15.0002L12.614 14.3282C12.294 14.7762 11.63 15.0882 10.838 15.0882C9.19801 15.0881 8.05403 13.8961 8.05407 12.0961C8.0541 10.3201 9.21413 9.05612 10.9741 9.05616C12.3101 9.05618 13.3421 9.8322 13.5101 11.0242L12.4301 11.0242C12.2461 10.3362 11.6541 10.0162 10.9501 10.0162ZM16.9599 12.9843L15.6719 12.9842L15.6718 15.0002L14.6478 15.0002L14.6479 9.15223L16.9599 9.15227C18.1359 9.1523 18.8959 9.92031 18.8959 11.0643C18.8959 12.1923 18.1279 12.9843 16.9599 12.9843ZM16.7599 10.0643L15.6719 10.0642L15.6719 12.0722L16.7439 12.0723C17.4479 12.0723 17.8239 11.6963 17.8239 11.0563C17.8239 10.4163 17.4399 10.0643 16.7599 10.0643Z" fill="white"/>
</svg>
