<svg width="24" height="24" viewBox="0 0 24 24" fill="none" xmlns="http://www.w3.org/2000/svg">
<path d="M23.6408 14.9029C22.0379 21.3315 15.5261 25.2438 9.09602 23.6407C2.66859 22.038 -1.24421 15.5266 0.359461 9.09838C1.96163 2.66907 8.47346 -1.24364 14.9016 0.359095C21.3313 1.96183 25.2437 8.47401 23.6408 14.9029Z" fill="#1275E9"/>
<path d="M7.27982 15.0001L3.64782 15L3.64794 9.15201L7.27994 9.15208L7.27992 10.0961L4.67192 10.096L4.67189 11.6L7.00789 11.6001L7.00787 12.5041L4.67187 12.504L4.67184 14.056L7.27984 14.0561L7.27982 15.0001ZM9.41401 15.0001L8.39001 15.0001L8.39013 9.15211L10.6221 9.15215C11.9501 9.15217 12.7261 9.82419 12.7261 10.9762C12.7261 11.7602 12.3581 12.3202 11.6701 12.6002L12.782 15.0002L11.662 15.0002L10.6701 12.8161L9.41405 12.8161L9.41401 15.0001ZM9.41411 10.0641L9.41407 11.9121L10.6221 11.9121C11.2701 11.9122 11.6541 11.5682 11.6541 10.9762C11.6541 10.3922 11.2701 10.0642 10.6221 10.0641L9.41411 10.0641ZM14.7574 15.0002L13.7494 15.0002L13.7495 9.15221L14.7655 9.15223L17.5094 13.2963L17.5095 9.15228L18.5175 9.1523L18.5174 15.0003L17.5094 15.0003L14.7575 10.8562L14.7574 15.0002Z" fill="white"/>
</svg>
