<svg width="24" height="24" viewBox="0 0 24 24" fill="none" xmlns="http://www.w3.org/2000/svg">
<path d="M23.6408 14.9029C22.0379 21.3315 15.5261 25.2438 9.09602 23.6407C2.66859 22.038 -1.24421 15.5266 0.359461 9.09838C1.96163 2.66907 8.47346 -1.24364 14.9016 0.359095C21.3313 1.96183 25.2437 8.47401 23.6408 14.9029Z" fill="#1275E9"/>
<path d="M8.27982 15.0001L4.64782 15L4.64794 9.15201L8.27994 9.15208L8.27992 10.0961L5.67192 10.096L5.67189 11.6L8.00789 11.6001L8.00787 12.5041L5.67187 12.504L5.67184 14.056L8.27984 14.0561L8.27982 15.0001ZM8.87811 10.0961L8.87813 9.1521L13.3261 9.15218L13.3261 10.0962L11.6141 10.0961L11.614 15.0001L10.59 15.0001L10.5901 10.0961L8.87811 10.0961ZM14.1088 15.0002L14.1089 9.1522L16.4369 9.15224C17.5889 9.15226 18.2929 9.75228 18.2928 10.7283C18.2928 11.3763 18.0048 11.8403 17.4528 12.0723C18.0688 12.2723 18.3808 12.7363 18.3808 13.4163C18.3808 14.4163 17.6848 15.0003 16.4768 15.0002L14.1088 15.0002ZM16.3489 10.0562L15.1329 10.0562L15.1328 11.6482L16.3728 11.6482C16.9328 11.6483 17.2448 11.3523 17.2448 10.8323C17.2449 10.3283 16.9249 10.0563 16.3489 10.0562ZM16.4368 12.5122L15.1328 12.5122L15.1328 14.0962L16.4368 14.0962C17.0128 14.0963 17.3328 13.8163 17.3328 13.2883C17.3328 12.7923 17.0048 12.5123 16.4368 12.5122Z" fill="white"/>
</svg>
