<svg width="24" height="24" viewBox="0 0 24 24" fill="none" xmlns="http://www.w3.org/2000/svg">
<path d="M23.6408 14.9029C22.0379 21.3315 15.5261 25.2438 9.09602 23.6407C2.66859 22.038 -1.24421 15.5266 0.359461 9.09838C1.96163 2.66907 8.47346 -1.24364 14.9016 0.359095C21.3313 1.96183 25.2437 8.47401 23.6408 14.9029Z" fill="#1275E9"/>
<path d="M8.27982 15.0001L4.64782 15L4.64794 9.15201L8.27994 9.15208L8.27992 10.0961L5.67192 10.096L5.67189 11.6L8.00789 11.6001L8.00787 12.5041L5.67187 12.504L5.67184 14.056L8.27984 14.0561L8.27982 15.0001ZM9.35005 12.8641L9.35013 9.1521L10.3741 9.15212L10.3741 12.8001C10.374 13.6401 10.83 14.1041 11.662 14.1041C12.494 14.1042 12.958 13.6322 12.9581 12.8002L12.9581 9.15217L13.9821 9.15219L13.9821 12.8642C13.982 14.2322 13.086 15.0962 11.662 15.0961C10.246 15.0961 9.35003 14.2401 9.35005 12.8641ZM16.2656 15.0002L15.2416 15.0002L15.2417 9.15222L17.4737 9.15226C18.8017 9.15229 19.5777 9.8243 19.5777 10.9763C19.5776 11.7603 19.2096 12.3203 18.5216 12.6003L19.6336 15.0003L18.5136 15.0003L17.5216 12.8163L16.2656 12.8162L16.2656 15.0002ZM16.2657 10.0642L16.2656 11.9122L17.4736 11.9123C18.1216 11.9123 18.5056 11.5683 18.5057 10.9763C18.5057 10.3923 18.1217 10.0643 17.4737 10.0643L16.2657 10.0642Z" fill="white"/>
</svg>
