<svg width="24" height="24" viewBox="0 0 24 24" fill="none" xmlns="http://www.w3.org/2000/svg">
<path d="M23.6408 14.9029C22.0379 21.3315 15.5261 25.2438 9.09602 23.6407C2.66859 22.038 -1.24421 15.5266 0.359461 9.09838C1.96163 2.66907 8.47346 -1.24364 14.9016 0.359095C21.3313 1.96183 25.2437 8.47401 23.6408 14.9029Z" fill="#1275E9"/>
<path d="M7.84787 12.6081L5.67187 12.608L5.67182 15L4.64782 15L4.64794 9.15201L8.26394 9.15208L8.26392 10.0961L5.67192 10.096L5.67189 11.688L7.84789 11.6881L7.84787 12.6081ZM8.26923 13.3521L8.26924 13.0081L9.25324 13.0081L9.25323 13.3521C9.25322 13.8001 9.50122 14.1521 10.0772 14.1521C10.6532 14.1521 10.8932 13.8241 10.8932 13.3121L10.8933 9.15213L11.9173 9.15215L11.9172 13.3682C11.9172 14.4002 11.1972 15.1041 10.0852 15.1041C8.8852 15.1041 8.26921 14.3601 8.26923 13.3521ZM15.2753 15.0002L13.1713 15.0002L13.1714 9.15218L15.2194 9.15222C16.9474 9.15225 18.1394 10.3443 18.1393 12.0883C18.1393 13.8083 16.9713 15.0003 15.2753 15.0002ZM15.1234 10.0962L14.1954 10.0962L14.1953 14.0562L15.1793 14.0562C16.3473 14.0562 17.0593 13.3043 17.0593 12.0883C17.0593 10.8483 16.3314 10.0962 15.1234 10.0962Z" fill="white"/>
</svg>
