<svg width="24" height="24" viewBox="0 0 24 24" fill="none" xmlns="http://www.w3.org/2000/svg">
<path d="M23.6408 14.9029C22.0379 21.3315 15.5261 25.2438 9.09602 23.6407C2.66859 22.038 -1.24421 15.5266 0.359461 9.09838C1.96163 2.66907 8.47346 -1.24364 14.9016 0.359095C21.3313 1.96183 25.2437 8.47401 23.6408 14.9029Z" fill="#1275E9"/>
<path d="M7.84787 12.6081L5.67187 12.608L5.67182 15L4.64782 15L4.64794 9.15201L8.26394 9.15208L8.26392 10.0961L5.67192 10.096L5.67189 11.688L7.84789 11.6881L7.84787 12.6081ZM10.211 9.15212L10.2109 12.2241L12.579 9.15217L13.787 9.15219L11.851 11.6482L13.8109 15.0002L12.6269 15.0002L11.1789 12.5121L10.2109 13.7521L10.2109 15.0001L9.18689 15.0001L9.187 9.1521L10.211 9.15212ZM16.8896 12.9843L15.6016 12.9842L15.6015 15.0002L14.5775 15.0002L14.5776 9.15221L16.8896 9.15225C18.0656 9.15227 18.8256 9.92029 18.8256 11.0643C18.8256 12.1923 18.0576 12.9843 16.8896 12.9843ZM16.6896 10.0642L15.6016 10.0642L15.6016 12.0722L16.6736 12.0722C17.3776 12.0723 17.7536 11.6963 17.7536 11.0563C17.7536 10.4163 17.3696 10.0643 16.6896 10.0642Z" fill="white"/>
</svg>
