<svg width="24" height="24" viewBox="0 0 24 24" fill="none" xmlns="http://www.w3.org/2000/svg">
<path d="M23.6408 14.9029C22.0379 21.3315 15.5261 25.2438 9.09602 23.6407C2.66859 22.038 -1.24421 15.5266 0.359461 9.09838C1.96163 2.66907 8.47346 -1.24364 14.9016 0.359095C21.3313 1.96183 25.2437 8.47401 23.6408 14.9029Z" fill="#1275E9"/>
<path d="M6.20792 10.0161C5.04792 10.016 4.38391 10.856 4.38388 12.12C4.38386 13.424 5.13584 14.136 6.21584 14.1361C7.23184 14.1361 7.84785 13.5761 7.84787 12.6401L7.84787 12.6161L6.07987 12.6161L6.07989 11.7121L8.79989 11.7121L8.79982 15.0001L7.93582 15.0001L7.87184 14.3281C7.55183 14.7761 6.88782 15.0881 6.09582 15.0881C4.45582 15.088 3.31185 13.896 3.31188 12.096C3.31192 10.32 4.47194 9.05603 6.23194 9.05606C7.56794 9.05609 8.59993 9.83211 8.7679 11.0241L7.6879 11.0241C7.50392 10.3361 6.91192 10.0161 6.20792 10.0161ZM9.90564 15.0001L9.90575 9.15213L12.2338 9.15218C13.3858 9.1522 14.0897 9.75222 14.0897 10.7282C14.0897 11.3762 13.8017 11.8402 13.2497 12.0722C13.8657 12.2722 14.1777 12.7362 14.1777 13.4162C14.1776 14.4162 13.4816 15.0002 12.2736 15.0002L9.90564 15.0001ZM12.1457 10.0562L10.9297 10.0562L10.9297 11.6482L12.1697 11.6482C12.7297 11.6482 13.0417 11.3522 13.0417 10.8322C13.0417 10.3282 12.7217 10.0562 12.1457 10.0562ZM12.2337 12.5122L10.9297 12.5122L10.9297 14.0962L12.2337 14.0962C12.8097 14.0962 13.1297 13.8162 13.1297 13.2882C13.1297 12.7922 12.8017 12.5122 12.2337 12.5122ZM17.4286 12.9843L16.1406 12.9843L16.1406 15.0003L15.1166 15.0002L15.1167 9.15224L17.4287 9.15228C18.6047 9.1523 19.3647 9.92032 19.3647 11.0643C19.3646 12.1923 18.5966 12.9843 17.4286 12.9843ZM17.2287 10.0643L16.1407 10.0643L16.1406 12.0723L17.2126 12.0723C17.9166 12.0723 18.2926 11.6963 18.2927 11.0563C18.2927 10.4163 17.9087 10.0643 17.2287 10.0643Z" fill="white"/>
</svg>
