<svg width="24" height="24" viewBox="0 0 24 24" fill="none" xmlns="http://www.w3.org/2000/svg">
<path d="M23.6408 14.9029C22.0379 21.3315 15.5261 25.2438 9.09602 23.6407C2.66859 22.038 -1.24421 15.5266 0.359461 9.09838C1.96163 2.66907 8.47346 -1.24364 14.9016 0.359095C21.3313 1.96183 25.2437 8.47401 23.6408 14.9029Z" fill="#1275E9"/>
<path d="M7.20792 10.0161C6.04792 10.016 5.38391 10.856 5.38388 12.12C5.38386 13.424 6.13584 14.136 7.21584 14.1361C8.23184 14.1361 8.84785 13.5761 8.84787 12.6401L8.84787 12.6161L7.07987 12.6161L7.07989 11.7121L9.79989 11.7121L9.79982 15.0001L8.93582 15.0001L8.87184 14.3281C8.55183 14.7761 7.88782 15.0881 7.09582 15.0881C5.45582 15.088 4.31185 13.896 4.31188 12.096C4.31192 10.32 5.47194 9.05603 7.23194 9.05606C8.56794 9.05609 9.59993 9.83211 9.7679 11.0241L8.6879 11.0241C8.50392 10.3361 7.91192 10.0161 7.20792 10.0161ZM14.7798 15.0002L11.1478 15.0001L11.1479 9.15214L14.7799 9.15221L14.7799 10.0962L12.1719 10.0962L12.1719 11.6002L14.5079 11.6002L14.5079 12.5042L12.1719 12.5042L12.1718 14.0562L14.7798 14.0562L14.7798 15.0002ZM16.9141 9.15225L16.914 14.0563L19.362 14.0563L19.362 15.0003L15.89 15.0002L15.8901 9.15223L16.9141 9.15225Z" fill="white"/>
</svg>
