<svg width="24" height="24" viewBox="0 0 24 24" fill="none" xmlns="http://www.w3.org/2000/svg">
<path d="M23.6408 14.9029C22.0379 21.3315 15.5261 25.2438 9.09602 23.6407C2.66859 22.038 -1.24421 15.5266 0.359461 9.09838C1.96163 2.66907 8.47346 -1.24364 14.9016 0.359095C21.3313 1.96183 25.2437 8.47401 23.6408 14.9029Z" fill="#1275E9"/>
<path d="M6.20792 10.0161C5.04792 10.016 4.38391 10.856 4.38388 12.12C4.38386 13.424 5.13584 14.136 6.21584 14.1361C7.23184 14.1361 7.84785 13.5761 7.84787 12.6401L7.84787 12.6161L6.07987 12.6161L6.07989 11.7121L8.79989 11.7121L8.79982 15.0001L7.93582 15.0001L7.87184 14.3281C7.55183 14.7761 6.88782 15.0881 6.09582 15.0881C4.45582 15.088 3.31185 13.896 3.31188 12.096C3.31192 10.32 4.47194 9.05603 6.23194 9.05606C7.56794 9.05609 8.59993 9.83211 8.7679 11.0241L7.6879 11.0241C7.50392 10.3361 6.91192 10.0161 6.20792 10.0161ZM10.9296 15.0002L9.90564 15.0001L9.90575 9.15213L10.9298 9.15215L10.9297 11.5682L13.5217 11.5682L13.5218 9.15221L14.5458 9.15223L14.5456 15.0002L13.5216 15.0002L13.5217 12.5202L10.9297 12.5202L10.9296 15.0002ZM15.5072 10.7842C15.5072 9.76024 16.3553 9.04826 17.5873 9.04828C18.7713 9.04831 19.5232 9.70432 19.5552 10.7603L18.5312 10.7603C18.5072 10.2563 18.1472 9.96029 17.5712 9.96028C16.9392 9.96027 16.5312 10.2643 16.5312 10.7523C16.5312 11.1683 16.7552 11.4003 17.2432 11.5123L18.1632 11.7123C19.1632 11.9283 19.6512 12.4403 19.6512 13.3123C19.6511 14.4003 18.8031 15.1043 17.5151 15.1043C16.2671 15.1043 15.4511 14.4402 15.4272 13.3922L16.4512 13.3923C16.4592 13.8883 16.8592 14.1843 17.5152 14.1843C18.1952 14.1843 18.6272 13.8883 18.6272 13.4003C18.6272 13.0083 18.4272 12.7763 17.9472 12.6723L17.0192 12.4643C16.0272 12.2483 15.5072 11.6802 15.5072 10.7842Z" fill="white"/>
</svg>
