<svg width="24" height="24" viewBox="0 0 24 24" fill="none" xmlns="http://www.w3.org/2000/svg">
<path d="M23.6408 14.9029C22.0379 21.3315 15.5261 25.2438 9.09602 23.6407C2.66859 22.038 -1.24421 15.5266 0.359461 9.09838C1.96163 2.66907 8.47346 -1.24364 14.9016 0.359095C21.3313 1.96183 25.2437 8.47401 23.6408 14.9029Z" fill="#1275E9"/>
<path d="M8.20792 10.0161C7.04792 10.016 6.38391 10.856 6.38388 12.12C6.38386 13.424 7.13584 14.136 8.21584 14.1361C9.23184 14.1361 9.84785 13.5761 9.84787 12.6401L9.84787 12.6161L8.07987 12.6161L8.07989 11.7121L10.7999 11.7121L10.7998 15.0001L9.93582 15.0001L9.87184 14.3281C9.55183 14.7761 8.88782 15.0881 8.09582 15.0881C6.45582 15.088 5.31185 13.896 5.31188 12.096C5.31192 10.32 6.47194 9.05603 8.23194 9.05606C9.56794 9.05609 10.5999 9.83211 10.7679 11.0241L9.6879 11.0241C9.50392 10.3361 8.91192 10.0161 8.20792 10.0161ZM12.9298 9.15215L12.9296 15.0002L11.9056 15.0001L11.9058 9.15213L12.9298 9.15215ZM16.538 12.9842L15.25 12.9842L15.2499 15.0002L14.2259 15.0002L14.2261 9.15218L16.5381 9.15222C17.7141 9.15225 18.474 9.92026 18.474 11.0643C18.474 12.1923 17.706 12.9842 16.538 12.9842ZM16.338 10.0642L15.25 10.0642L15.25 12.0722L16.322 12.0722C17.026 12.0722 17.402 11.6962 17.402 11.0562C17.402 10.4162 17.018 10.0642 16.338 10.0642Z" fill="white"/>
</svg>
