<svg width="24" height="24" viewBox="0 0 24 24" fill="none" xmlns="http://www.w3.org/2000/svg">
<path d="M23.6408 14.9029C22.0379 21.3315 15.5261 25.2438 9.09602 23.6407C2.66859 22.038 -1.24421 15.5266 0.359461 9.09838C1.96163 2.66907 8.47346 -1.24364 14.9016 0.359095C21.3313 1.96183 25.2437 8.47401 23.6408 14.9029Z" fill="#1275E9"/>
<path d="M5.20792 10.0161C4.04792 10.016 3.38391 10.856 3.38388 12.12C3.38386 13.424 4.13584 14.136 5.21584 14.1361C6.23184 14.1361 6.84785 13.5761 6.84787 12.6401L6.84787 12.6161L5.07987 12.6161L5.07989 11.7121L7.79989 11.7121L7.79982 15.0001L6.93582 15.0001L6.87184 14.3281C6.55183 14.7761 5.88782 15.0881 5.09582 15.0881C3.45582 15.088 2.31185 13.896 2.31188 12.096C2.31192 10.32 3.47194 9.05603 5.23194 9.05606C6.56794 9.05609 7.59993 9.83211 7.7679 11.0241L6.6879 11.0241C6.50392 10.3361 5.91192 10.0161 5.20792 10.0161ZM9.89764 15.0002L8.90564 15.0001L8.90575 9.15213L9.89775 9.15215L11.7857 13.8082L13.6738 9.15223L14.6818 9.15225L14.6816 15.0002L13.6896 15.0002L13.6897 13.2002C13.6897 12.0242 13.6897 11.6802 13.7457 11.2642L12.2576 15.0002L11.3136 15.0002L9.83371 11.2722C9.8897 11.6242 9.89769 12.1762 9.89768 12.9042L9.89764 15.0002ZM18.0799 15.0003L15.9759 15.0003L15.9761 9.15227L18.0241 9.15231C19.7521 9.15235 20.944 10.3444 20.944 12.0884C20.944 13.8084 19.7759 15.0003 18.0799 15.0003ZM17.928 10.0963L17 10.0963L17 14.0563L17.984 14.0563C19.152 14.0563 19.864 13.3043 19.864 12.0883C19.864 10.8483 19.136 10.0963 17.928 10.0963Z" fill="white"/>
</svg>
