<svg width="24" height="24" viewBox="0 0 24 24" fill="none" xmlns="http://www.w3.org/2000/svg">
<path d="M23.6408 14.9029C22.0379 21.3315 15.5261 25.2438 9.09602 23.6407C2.66859 22.038 -1.24421 15.5266 0.359461 9.09838C1.96163 2.66907 8.47346 -1.24364 14.9016 0.359095C21.3313 1.96183 25.2437 8.47401 23.6408 14.9029Z" fill="#1275E9"/>
<path d="M6.20792 10.0161C5.04792 10.016 4.38391 10.856 4.38388 12.12C4.38386 13.424 5.13584 14.136 6.21584 14.1361C7.23184 14.1361 7.84785 13.5761 7.84787 12.6401L7.84787 12.6161L6.07987 12.6161L6.07989 11.7121L8.79989 11.7121L8.79982 15.0001L7.93582 15.0001L7.87184 14.3281C7.55183 14.7761 6.88782 15.0881 6.09582 15.0881C4.45582 15.088 3.31185 13.896 3.31188 12.096C3.31192 10.32 4.47194 9.05603 6.23194 9.05606C7.56794 9.05609 8.59993 9.83211 8.7679 11.0241L7.6879 11.0241C7.50392 10.3361 6.91192 10.0161 6.20792 10.0161ZM10.9136 15.0002L9.90564 15.0001L9.90575 9.15213L10.9218 9.15215L13.6657 13.2962L13.6658 9.15221L14.6738 9.15223L14.6736 15.0002L13.6656 15.0002L10.9137 10.8562L10.9136 15.0002ZM19.1682 12.6083L16.9922 12.6083L16.9921 15.0003L15.9681 15.0003L15.9683 9.15225L19.5843 9.15232L19.5842 10.0963L16.9922 10.0963L16.9922 11.6883L19.1682 11.6883L19.1682 12.6083Z" fill="white"/>
</svg>
