<svg width="24" height="24" viewBox="0 0 24 24" fill="none" xmlns="http://www.w3.org/2000/svg">
<path d="M23.6408 14.9029C22.0379 21.3315 15.5261 25.2438 9.09602 23.6407C2.66859 22.038 -1.24421 15.5266 0.359461 9.09838C1.96163 2.66907 8.47346 -1.24364 14.9016 0.359095C21.3313 1.96183 25.2437 8.47401 23.6408 14.9029Z" fill="#1275E9"/>
<path d="M6.20792 10.0161C5.04792 10.016 4.38391 10.856 4.38388 12.12C4.38386 13.424 5.13584 14.136 6.21584 14.1361C7.23184 14.1361 7.84785 13.5761 7.84787 12.6401L7.84787 12.6161L6.07987 12.6161L6.07989 11.7121L8.79989 11.7121L8.79982 15.0001L7.93582 15.0001L7.87184 14.3281C7.55183 14.7761 6.88782 15.0881 6.09582 15.0881C4.45582 15.088 3.31185 13.896 3.31188 12.096C3.31192 10.32 4.47194 9.05603 6.23194 9.05606C7.56794 9.05609 8.59993 9.83211 8.7679 11.0241L7.6879 11.0241C7.50392 10.3361 6.91192 10.0161 6.20792 10.0161ZM9.22186 10.0961L9.22188 9.15212L13.6699 9.15221L13.6699 10.0962L11.9579 10.0962L11.9578 15.0002L10.9338 15.0002L10.9339 10.0962L9.22186 10.0961ZM18.8101 15.4403L18.1701 14.7203C17.7541 14.9603 17.2581 15.0963 16.7061 15.0963C15.0341 15.0962 13.8822 13.8562 13.8822 12.0722C13.8822 10.2962 15.0423 9.04823 16.7143 9.04827C18.3863 9.0483 19.5542 10.2883 19.5542 12.0723C19.5542 12.9123 19.2982 13.6323 18.8422 14.1603L19.4661 14.8563L18.8101 15.4403ZM18.4742 12.0723C18.4742 10.8243 17.7862 10.0323 16.7142 10.0323C15.6422 10.0322 14.9542 10.8242 14.9542 12.0722C14.9542 13.3202 15.6422 14.1122 16.7142 14.1123C17.0022 14.1123 17.2582 14.0563 17.4902 13.9443L16.7142 13.0723L17.3622 12.4883L18.1382 13.3603C18.3542 13.0243 18.4742 12.5843 18.4742 12.0723Z" fill="white"/>
</svg>
