<svg width="24" height="24" viewBox="0 0 24 24" fill="none" xmlns="http://www.w3.org/2000/svg">
<path d="M23.6408 14.9029C22.0379 21.3315 15.5261 25.2438 9.09602 23.6407C2.66859 22.038 -1.24421 15.5266 0.359461 9.09838C1.96163 2.66907 8.47346 -1.24364 14.9016 0.359095C21.3313 1.96183 25.2437 8.47401 23.6408 14.9029Z" fill="#1275E9"/>
<path d="M6.20792 10.0161C5.04792 10.016 4.38391 10.856 4.38388 12.12C4.38386 13.424 5.13584 14.136 6.21584 14.1361C7.23184 14.1361 7.84785 13.5761 7.84787 12.6401L7.84787 12.6161L6.07987 12.6161L6.07989 11.7121L8.79989 11.7121L8.79982 15.0001L7.93582 15.0001L7.87184 14.3281C7.55183 14.7761 6.88782 15.0881 6.09582 15.0881C4.45582 15.088 3.31185 13.896 3.31188 12.096C3.31192 10.32 4.47194 9.05603 6.23194 9.05606C7.56794 9.05609 8.59993 9.83211 8.7679 11.0241L7.6879 11.0241C7.50392 10.3361 6.91192 10.0161 6.20792 10.0161ZM10.9621 12.6962L8.98619 9.15212L10.1302 9.15214L11.2821 11.2802C11.3701 11.4402 11.4261 11.5682 11.4901 11.7122C11.5621 11.5682 11.5941 11.4722 11.6981 11.2802L12.8422 9.15219L13.9542 9.15221L11.9861 12.6962L11.9861 15.0002L10.9621 15.0002L10.9621 12.6962ZM16.7831 15.0003L14.6791 15.0002L14.6792 9.15223L16.7272 9.15227C18.4552 9.1523 19.6472 10.3443 19.6471 12.0883C19.6471 13.8083 18.4791 15.0003 16.7831 15.0003ZM16.6312 10.0963L15.7032 10.0962L15.7031 14.0562L16.6871 14.0563C17.8551 14.0563 18.5671 13.3043 18.5671 12.0883C18.5672 10.8483 17.8392 10.0963 16.6312 10.0963Z" fill="white"/>
</svg>
