<svg width="24" height="24" viewBox="0 0 24 24" fill="none" xmlns="http://www.w3.org/2000/svg">
<path d="M23.6408 14.9029C22.0379 21.3315 15.5261 25.2438 9.09602 23.6407C2.66859 22.038 -1.24421 15.5266 0.359461 9.09838C1.96163 2.66907 8.47346 -1.24364 14.9016 0.359095C21.3313 1.96183 25.2437 8.47401 23.6408 14.9029Z" fill="#1275E9"/>
<path d="M4.67182 15L3.64782 15L3.64794 9.15201L4.67194 9.15203L4.67189 11.568L7.26389 11.5681L7.26394 9.15208L8.28794 9.1521L8.28782 15.0001L7.26382 15.0001L7.26387 12.5201L4.67187 12.52L4.67182 15ZM10.6094 9.15215L10.6094 12.2241L12.9774 9.15219L14.1854 9.15222L12.2494 11.6482L14.2093 15.0002L13.0253 15.0002L11.5774 12.5122L10.6093 13.7521L10.6093 15.0001L9.58532 15.0001L9.58544 9.15213L10.6094 9.15215ZM17.0799 15.0003L14.9759 15.0002L14.9761 9.15223L17.0241 9.15227C18.7521 9.15231 19.944 10.3443 19.944 12.0883C19.944 13.8083 18.7759 15.0003 17.0799 15.0003ZM16.928 10.0963L16 10.0963L16 14.0563L16.984 14.0563C18.152 14.0563 18.864 13.3043 18.864 12.0883C18.864 10.8483 18.136 10.0963 16.928 10.0963Z" fill="white"/>
</svg>
