<svg width="24" height="24" viewBox="0 0 24 24" fill="none" xmlns="http://www.w3.org/2000/svg">
<path d="M23.6408 14.9029C22.0379 21.3315 15.5261 25.2438 9.09602 23.6407C2.66859 22.038 -1.24421 15.5266 0.359461 9.09838C1.96163 2.66907 8.47346 -1.24364 14.9016 0.359095C21.3313 1.96183 25.2437 8.47401 23.6408 14.9029Z" fill="#1275E9"/>
<path d="M4.67182 15L3.64782 15L3.64794 9.15201L4.67194 9.15203L4.67189 11.568L7.26389 11.5681L7.26394 9.15208L8.28794 9.1521L8.28782 15.0001L7.26382 15.0001L7.26387 12.5201L4.67187 12.52L4.67182 15ZM10.5933 15.0001L9.58532 15.0001L9.58544 9.15213L10.6014 9.15215L13.3454 13.2962L13.3454 9.1522L14.3534 9.15222L14.3533 15.0002L13.3453 15.0002L10.5934 10.8561L10.5933 15.0001ZM16.6719 9.15227L16.6718 14.0563L19.1198 14.0563L19.1198 15.0003L15.6478 15.0002L15.6479 9.15225L16.6719 9.15227Z" fill="white"/>
</svg>
