<svg width="24" height="24" viewBox="0 0 24 24" fill="none" xmlns="http://www.w3.org/2000/svg">
<path d="M23.6408 14.9029C22.0379 21.3315 15.5261 25.2438 9.09602 23.6407C2.66859 22.038 -1.24421 15.5266 0.359461 9.09838C1.96163 2.66907 8.47346 -1.24364 14.9016 0.359095C21.3313 1.96183 25.2437 8.47401 23.6408 14.9029Z" fill="#1275E9"/>
<path d="M4.67182 15L3.64782 15L3.64794 9.15201L4.67194 9.15203L4.67189 11.568L7.26389 11.5681L7.26394 9.15208L8.28794 9.1521L8.28782 15.0001L7.26382 15.0001L7.26387 12.5201L4.67187 12.52L4.67182 15ZM10.6093 15.0001L9.58532 15.0001L9.58544 9.15213L11.8174 9.15217C13.1454 9.1522 13.9214 9.82421 13.9214 10.9762C13.9214 11.7602 13.5534 12.3202 12.8654 12.6002L13.9773 15.0002L12.8573 15.0002L11.8654 12.8162L10.6094 12.8161L10.6093 15.0001ZM10.6094 10.0641L10.6094 11.9121L11.8174 11.9122C12.4654 11.9122 12.8494 11.5682 12.8494 10.9762C12.8494 10.3922 12.4654 10.0642 11.8174 10.0642L10.6094 10.0641ZM15.9688 9.15225L15.9688 12.2243L18.3368 9.1523L19.5448 9.15232L17.6088 11.6483L19.5687 15.0003L18.3847 15.0003L16.9367 12.5123L15.9687 13.7523L15.9687 15.0003L14.9447 15.0002L14.9448 9.15223L15.9688 9.15225Z" fill="white"/>
</svg>
