<svg width="24" height="24" viewBox="0 0 24 24" fill="none" xmlns="http://www.w3.org/2000/svg">
<path d="M23.6408 14.9029C22.0379 21.3315 15.5261 25.2438 9.09602 23.6407C2.66859 22.038 -1.24421 15.5266 0.359461 9.09838C1.96163 2.66907 8.47346 -1.24364 14.9016 0.359095C21.3313 1.96183 25.2437 8.47401 23.6408 14.9029Z" fill="#1275E9"/>
<path d="M4.67182 15L3.64782 15L3.64794 9.15201L4.67194 9.15203L4.67189 11.568L7.26389 11.5681L7.26394 9.15208L8.28794 9.1521L8.28782 15.0001L7.26382 15.0001L7.26387 12.5201L4.67187 12.52L4.67182 15ZM9.54537 12.8641L9.54544 9.15213L10.5694 9.15215L10.5694 12.8001C10.5694 13.6401 11.0253 14.1042 11.8573 14.1042C12.6893 14.1042 13.1534 13.6322 13.1534 12.8002L13.1534 9.1522L14.1774 9.15222L14.1774 12.8642C14.1773 14.2322 13.2813 15.0962 11.8573 15.0962C10.4413 15.0961 9.54534 14.2401 9.54537 12.8641ZM18.6369 12.6083L16.4609 12.6083L16.4609 15.0003L15.4369 15.0002L15.437 9.15224L19.053 9.15231L19.053 10.0963L16.461 10.0963L16.461 11.6883L18.637 11.6883L18.6369 12.6083Z" fill="white"/>
</svg>
