<svg width="24" height="24" viewBox="0 0 24 24" fill="none" xmlns="http://www.w3.org/2000/svg">
<path d="M23.6408 14.9029C22.0379 21.3315 15.5261 25.2438 9.09602 23.6407C2.66859 22.038 -1.24421 15.5266 0.359461 9.09838C1.96163 2.66907 8.47346 -1.24364 14.9016 0.359095C21.3313 1.96183 25.2437 8.47401 23.6408 14.9029Z" fill="#1275E9"/>
<path d="M6.67194 9.15203L6.67182 15L5.64782 15L5.64794 9.15201L6.67194 9.15203ZM10.0721 15.0001L7.96814 15.0001L7.96825 9.15206L10.0163 9.1521C11.7443 9.15213 12.9362 10.3442 12.9362 12.0882C12.9362 13.8082 11.7681 15.0001 10.0721 15.0001ZM9.92023 10.0961L8.99223 10.0961L8.99216 14.0561L9.97616 14.0561C11.1442 14.0561 11.8562 13.3041 11.8562 12.0881C11.8562 10.8481 11.1282 10.0961 9.92023 10.0961ZM14.914 15.0002L13.89 15.0002L13.8901 9.15217L16.1221 9.15222C17.4501 9.15224 18.2261 9.82426 18.2261 10.9763C18.2261 11.7603 17.8581 12.3203 17.1701 12.6002L18.282 15.0003L17.162 15.0002L16.1701 12.8162L14.9141 12.8162L14.914 15.0002ZM14.9141 10.0642L14.9141 11.9122L16.1221 11.9122C16.7701 11.9122 17.1541 11.5682 17.1541 10.9762C17.1541 10.3922 16.7701 10.0642 16.1221 10.0642L14.9141 10.0642Z" fill="white"/>
</svg>
