<svg width="24" height="24" viewBox="0 0 24 24" fill="none" xmlns="http://www.w3.org/2000/svg">
<path d="M23.6408 14.9029C22.0379 21.3315 15.5261 25.2438 9.09602 23.6407C2.66859 22.038 -1.24421 15.5266 0.359461 9.09838C1.96163 2.66907 8.47346 -1.24364 14.9016 0.359095C21.3313 1.96183 25.2437 8.47401 23.6408 14.9029Z" fill="#1275E9"/>
<path d="M6.67194 9.15203L6.67182 15L5.64782 15L5.64794 9.15201L6.67194 9.15203ZM8.99225 9.15208L8.99219 12.2241L11.3603 9.15212L12.5683 9.15215L10.6322 11.6481L12.5921 15.0001L11.4081 15.0001L9.96019 12.5121L8.99216 13.7521L8.99214 15.0001L7.96814 15.0001L7.96825 9.15206L8.99225 9.15208ZM14.3828 15.0002L13.3588 15.0002L13.3589 9.15216L15.5909 9.15221C16.9189 9.15223 17.6949 9.82425 17.6948 10.9762C17.6948 11.7602 17.3268 12.3202 16.6388 12.6002L17.7508 15.0002L16.6308 15.0002L15.6388 12.8162L14.3828 12.8162L14.3828 15.0002ZM14.3829 10.0642L14.3828 11.9122L15.5908 11.9122C16.2388 11.9122 16.6228 11.5682 16.6228 10.9762C16.6229 10.3922 16.2389 10.0642 15.5909 10.0642L14.3829 10.0642Z" fill="white"/>
</svg>
