<svg width="24" height="24" viewBox="0 0 24 24" fill="none" xmlns="http://www.w3.org/2000/svg">
<path d="M23.6408 14.9029C22.0379 21.3315 15.5261 25.2438 9.09602 23.6407C2.66859 22.038 -1.24421 15.5266 0.359461 9.09838C1.96163 2.66907 8.47346 -1.24364 14.9016 0.359095C21.3313 1.96183 25.2437 8.47401 23.6408 14.9029Z" fill="#1275E9"/>
<path d="M7.67194 9.15203L7.67182 15L6.64782 15L6.64794 9.15201L7.67194 9.15203ZM9.99225 9.15208L9.99216 14.0561L12.4402 14.0561L12.4401 15.0001L8.96814 15.0001L8.96825 9.15206L9.99225 9.15208ZM12.7338 10.7841C12.7338 9.76013 13.5818 9.04815 14.8138 9.04817C15.9978 9.04819 16.7498 9.70421 16.7818 10.7602L15.7578 10.7602C15.7338 10.2562 15.3738 9.96018 14.7978 9.96017C14.1658 9.96016 13.7578 10.2642 13.7578 10.7522C13.7578 11.1682 13.9818 11.4002 14.4698 11.5122L15.3898 11.7122C16.3898 11.9282 16.8777 12.4402 16.8777 13.3122C16.8777 14.4002 16.0297 15.1042 14.7417 15.1042C13.4937 15.1041 12.6777 14.4401 12.6537 13.3921L13.6777 13.3921C13.6857 13.8881 14.0857 14.1842 14.7417 14.1842C15.4217 14.1842 15.8537 13.8882 15.8537 13.4002C15.8537 13.0082 15.6537 12.7762 15.1737 12.6722L14.2457 12.4642C13.2538 12.2481 12.7338 11.6801 12.7338 10.7841Z" fill="white"/>
</svg>
