<svg width="24" height="24" viewBox="0 0 24 24" fill="none" xmlns="http://www.w3.org/2000/svg">
<path d="M23.6408 14.9029C22.0379 21.3315 15.5261 25.2438 9.09602 23.6407C2.66859 22.038 -1.24421 15.5266 0.359461 9.09838C1.96163 2.66907 8.47346 -1.24364 14.9016 0.359095C21.3313 1.96183 25.2437 8.47401 23.6408 14.9029Z" fill="#1275E9"/>
<path d="M6.67194 9.15203L6.67182 15L5.64782 15L5.64794 9.15201L6.67194 9.15203ZM8.97614 15.0001L7.96814 15.0001L7.96825 9.15206L8.98425 9.15208L11.7282 13.2961L11.7283 9.15213L12.7363 9.15215L12.7361 15.0002L11.7281 15.0001L8.97622 10.8561L8.97614 15.0001ZM15.0546 15.0002L14.0306 15.0002L14.0308 9.15218L16.2628 9.15222C17.5908 9.15225 18.3667 9.82426 18.3667 10.9763C18.3667 11.7603 17.9987 12.3203 17.3107 12.6002L18.4226 15.0003L17.3026 15.0002L16.3107 12.8162L15.0547 12.8162L15.0546 15.0002ZM15.0547 10.0642L15.0547 11.9122L16.2627 11.9122C16.9107 11.9122 17.2947 11.5682 17.2947 10.9762C17.2947 10.3922 16.9107 10.0642 16.2627 10.0642L15.0547 10.0642Z" fill="white"/>
</svg>
