<svg width="24" height="24" viewBox="0 0 24 24" fill="none" xmlns="http://www.w3.org/2000/svg">
<path d="M23.6408 14.9029C22.0379 21.3315 15.5261 25.2438 9.09602 23.6407C2.66859 22.038 -1.24421 15.5266 0.359461 9.09838C1.96163 2.66907 8.47346 -1.24364 14.9016 0.359095C21.3313 1.96183 25.2437 8.47401 23.6408 14.9029Z" fill="#1275E9"/>
<path d="M6.67194 9.15203L6.67182 15L5.64782 15L5.64794 9.15201L6.67194 9.15203ZM12.5601 15.4401L11.9201 14.7201C11.5041 14.9601 11.0081 15.0961 10.4561 15.0961C8.78414 15.0961 7.63216 13.8561 7.63219 12.0721C7.63223 10.2961 8.79225 9.04807 10.4643 9.04811C12.1363 9.04814 13.3042 10.2882 13.3042 12.0722C13.3042 12.9122 13.0482 13.6322 12.5922 14.1601L13.2161 14.8562L12.5601 15.4401ZM12.2242 12.0721C12.2242 10.8241 11.5362 10.0321 10.4642 10.0321C9.39223 10.0321 8.70422 10.8241 8.70419 12.0721C8.70417 13.3201 9.39215 14.1121 10.4642 14.1121C10.7522 14.1121 11.0082 14.0561 11.2402 13.9441L10.4642 13.0721L11.1122 12.4881L11.8882 13.3601C12.1042 13.0241 12.2242 12.5841 12.2242 12.0721ZM16.3612 15.0002L14.2572 15.0002L14.2573 9.15218L16.3053 9.15222C18.0333 9.15225 19.2253 10.3443 19.2253 12.0883C19.2252 13.8083 18.0572 15.0003 16.3612 15.0002ZM16.2093 10.0962L15.2813 10.0962L15.2812 14.0562L16.2652 14.0562C17.4332 14.0562 18.1452 13.3043 18.1453 12.0883C18.1453 10.8483 17.4173 10.0962 16.2093 10.0962Z" fill="white"/>
</svg>
