<svg width="24" height="24" viewBox="0 0 24 24" fill="none" xmlns="http://www.w3.org/2000/svg">
<path d="M23.6408 14.9029C22.0379 21.3315 15.5261 25.2438 9.09602 23.6407C2.66859 22.038 -1.24421 15.5266 0.359461 9.09838C1.96163 2.66907 8.47346 -1.24364 14.9016 0.359095C21.3313 1.96183 25.2437 8.47401 23.6408 14.9029Z" fill="#1275E9"/>
<path d="M7.67194 9.15203L7.67182 15L6.64782 15L6.64794 9.15201L7.67194 9.15203ZM9.99214 15.0001L8.96814 15.0001L8.96825 9.15206L11.2003 9.1521C12.5283 9.15213 13.3042 9.82414 13.3042 10.9761C13.3042 11.7601 12.9362 12.3201 12.2482 12.6001L13.3601 15.0001L12.2401 15.0001L11.2482 12.8161L9.99218 12.8161L9.99214 15.0001ZM9.99223 10.0641L9.9922 11.9121L11.2002 11.9121C11.8482 11.9121 12.2322 11.5681 12.2322 10.9761C12.2322 10.3921 11.8482 10.0641 11.2002 10.0641L9.99223 10.0641ZM15.3515 15.0002L14.3275 15.0002L14.3276 9.15216L16.5596 9.15221C17.8876 9.15223 18.6636 9.82425 18.6636 10.9762C18.6636 11.7602 18.2956 12.3202 17.6076 12.6002L18.7195 15.0002L17.5995 15.0002L16.6076 12.8162L15.3516 12.8162L15.3515 15.0002ZM15.3516 10.0642L15.3516 11.9122L16.5596 11.9122C17.2076 11.9122 17.5916 11.5682 17.5916 10.9762C17.5916 10.3922 17.2076 10.0642 16.5596 10.0642L15.3516 10.0642Z" fill="white"/>
</svg>
