<svg width="24" height="24" viewBox="0 0 24 24" fill="none" xmlns="http://www.w3.org/2000/svg">
<path d="M23.6408 14.9029C22.0379 21.3315 15.5261 25.2438 9.09602 23.6407C2.66859 22.038 -1.24421 15.5266 0.359461 9.09838C1.96163 2.66907 8.47346 -1.24364 14.9016 0.359095C21.3313 1.96183 25.2437 8.47401 23.6408 14.9029Z" fill="#1275E9"/>
<path d="M6.67194 9.15203L6.67182 15L5.64782 15L5.64794 9.15201L6.67194 9.15203ZM7.63222 10.7841C7.63224 9.76005 8.48025 9.04807 9.71225 9.04809C10.8963 9.04811 11.6482 9.70413 11.6802 10.7601L10.6562 10.7601C10.6322 10.2561 10.2722 9.9601 9.69624 9.96009C9.06424 9.96008 8.65623 10.2641 8.65622 10.7521C8.65621 11.1681 8.88021 11.4001 9.36821 11.5121L10.2882 11.7121C11.2882 11.9281 11.7762 12.4401 11.7762 13.3121C11.7761 14.4001 10.9281 15.1041 9.64014 15.1041C8.39213 15.1041 7.57615 14.4401 7.55217 13.392L8.57617 13.3921C8.58416 13.8881 8.98415 14.1841 9.64015 14.1841C10.3202 14.1841 10.7522 13.8881 10.7522 13.4001C10.7522 13.0081 10.5522 12.7761 10.0722 12.6721L9.14419 12.4641C8.15219 12.2481 7.6322 11.6801 7.63222 10.7841ZM13.7266 9.15217L13.7266 12.2242L16.0946 9.15222L17.3026 9.15224L15.3666 11.6482L17.3265 15.0002L16.1425 15.0002L14.6946 12.5122L13.7265 13.7522L13.7265 15.0002L12.7025 15.0002L12.7026 9.15215L13.7266 9.15217Z" fill="white"/>
</svg>
