<svg width="24" height="24" viewBox="0 0 24 24" fill="none" xmlns="http://www.w3.org/2000/svg">
<path d="M23.6408 14.9029C22.0379 21.3315 15.5261 25.2438 9.09602 23.6407C2.66859 22.038 -1.24421 15.5266 0.359461 9.09838C1.96163 2.66907 8.47346 -1.24364 14.9016 0.359095C21.3313 1.96183 25.2437 8.47401 23.6408 14.9029Z" fill="#1275E9"/>
<path d="M3.15986 13.352L3.15986 13.008L4.14386 13.008L4.14386 13.352C4.14385 13.8 4.39184 14.152 4.96784 14.152C5.54384 14.152 5.78385 13.8241 5.78386 13.3121L5.78394 9.15205L6.80794 9.15207L6.80786 13.3681C6.80784 14.4001 6.08782 15.1041 4.97582 15.104C3.77582 15.104 3.15984 14.36 3.15986 13.352ZM9.05389 15.0001L8.06189 15.0001L8.062 9.1521L9.054 9.15212L10.9419 13.8082L12.83 9.15219L13.838 9.15221L13.8379 15.0002L12.8459 15.0002L12.8459 13.2002C12.8459 12.0242 12.846 11.6802 12.902 11.2642L11.4139 15.0002L10.4699 15.0001L8.98996 11.2721C9.04595 11.6241 9.05394 12.1761 9.05393 12.9041L9.05389 15.0001ZM17.2362 15.0003L15.1322 15.0002L15.1323 9.15224L17.1803 9.15228C18.9083 9.15231 20.1003 10.3443 20.1003 12.0883C20.1002 13.8083 18.9322 15.0003 17.2362 15.0003ZM17.0843 10.0963L16.1563 10.0963L16.1562 14.0563L17.1402 14.0563C18.3082 14.0563 19.0202 13.3043 19.0203 12.0883C19.0203 10.8483 18.2923 10.0963 17.0843 10.0963Z" fill="white"/>
</svg>
