<svg width="24" height="24" viewBox="0 0 24 24" fill="none" xmlns="http://www.w3.org/2000/svg">
<path d="M23.6408 14.9029C22.0379 21.3315 15.5261 25.2438 9.09602 23.6407C2.66859 22.038 -1.24421 15.5266 0.359461 9.09838C1.96163 2.66907 8.47346 -1.24364 14.9016 0.359095C21.3313 1.96183 25.2437 8.47401 23.6408 14.9029Z" fill="#1275E9"/>
<path d="M3.15986 13.352L3.15986 13.008L4.14386 13.008L4.14386 13.352C4.14385 13.8 4.39184 14.152 4.96784 14.152C5.54384 14.152 5.78385 13.8241 5.78386 13.3121L5.78394 9.15205L6.80794 9.15207L6.80786 13.3681C6.80784 14.4001 6.08782 15.1041 4.97582 15.104C3.77582 15.104 3.15984 14.36 3.15986 13.352ZM13.3979 12.0722C13.3979 13.8482 12.2299 15.0962 10.5499 15.0961C8.87789 15.0961 7.72591 13.8561 7.72594 12.0721C7.72598 10.2961 8.886 9.04811 10.558 9.04815C12.23 9.04818 13.398 10.2882 13.3979 12.0722ZM12.3179 12.0722C12.318 10.8242 11.63 10.0322 10.558 10.0321C9.48598 10.0321 8.79797 10.8241 8.79794 12.0721C8.79792 13.3201 9.4859 14.1121 10.5579 14.1121C11.6299 14.1122 12.3179 13.3042 12.3179 12.0722ZM16.4549 15.0003L14.3509 15.0002L14.3511 9.15222L16.3991 9.15226C18.1271 9.15229 19.319 10.3443 19.319 12.0883C19.319 13.8083 18.1509 15.0003 16.4549 15.0003ZM16.303 10.0963L15.375 10.0962L15.375 14.0562L16.359 14.0563C17.527 14.0563 18.239 13.3043 18.239 12.0883C18.239 10.8483 17.511 10.0963 16.303 10.0963Z" fill="white"/>
</svg>
