<svg width="24" height="24" viewBox="0 0 24 24" fill="none" xmlns="http://www.w3.org/2000/svg">
<path d="M23.6408 14.9029C22.0379 21.3315 15.5261 25.2438 9.09602 23.6407C2.66859 22.038 -1.24421 15.5266 0.359461 9.09838C1.96163 2.66907 8.47346 -1.24364 14.9016 0.359095C21.3313 1.96183 25.2437 8.47401 23.6408 14.9029Z" fill="#1275E9"/>
<path d="M4.15986 13.352L4.15986 13.008L5.14386 13.008L5.14386 13.352C5.14385 13.8 5.39184 14.152 5.96784 14.152C6.54384 14.152 6.78385 13.8241 6.78386 13.3121L6.78394 9.15205L7.80794 9.15207L7.80786 13.3681C7.80784 14.4001 7.08782 15.1041 5.97582 15.104C4.77582 15.104 4.15984 14.36 4.15986 13.352ZM11.3739 12.9841L10.0859 12.9841L10.0859 15.0001L9.06189 15.0001L9.062 9.1521L11.374 9.15214C12.55 9.15217 13.31 9.92018 13.31 11.0642C13.3099 12.1922 12.5419 12.9842 11.3739 12.9841ZM11.174 10.0641L10.086 10.0641L10.0859 12.0721L11.1579 12.0721C11.8619 12.0722 12.238 11.6962 12.238 11.0562C12.238 10.4162 11.854 10.0642 11.174 10.0641ZM15.5793 12.6962L13.6034 9.15219L14.7474 9.15221L15.8993 11.2802C15.9873 11.4402 16.0433 11.5682 16.1073 11.7122C16.1793 11.5682 16.2113 11.4722 16.3153 11.2802L17.4594 9.15226L18.5714 9.15228L16.6033 12.6962L16.6033 15.0002L15.5793 15.0002L15.5793 12.6962Z" fill="white"/>
</svg>
