<svg width="24" height="24" viewBox="0 0 24 24" fill="none" xmlns="http://www.w3.org/2000/svg">
<path d="M23.6408 14.9029C22.0379 21.3315 15.5261 25.2438 9.09602 23.6407C2.66859 22.038 -1.24421 15.5266 0.359461 9.09838C1.96163 2.66907 8.47346 -1.24364 14.9016 0.359095C21.3313 1.96183 25.2437 8.47401 23.6408 14.9029Z" fill="#1275E9"/>
<path d="M5.67194 9.15203L5.67188 12.224L8.03994 9.15208L9.24794 9.1521L7.31189 11.6481L9.27182 15.0001L8.08782 15.0001L6.63987 12.5121L5.67185 13.752L5.67182 15L4.64782 15L4.64794 9.15201L5.67194 9.15203ZM13.6704 15.0002L10.0384 15.0001L10.0386 9.15212L13.6706 9.15219L13.6705 10.0962L11.0625 10.0961L11.0625 11.6001L13.3985 11.6002L13.3985 12.5042L11.0625 12.5041L11.0625 14.0561L13.6705 14.0562L13.6704 15.0002ZM14.4447 10.7842C14.4447 9.7602 15.2928 9.04822 16.5248 9.04824C17.7088 9.04827 18.4607 9.70428 18.4927 10.7603L17.4687 10.7603C17.4447 10.2563 17.0847 9.96025 16.5087 9.96024C15.8767 9.96023 15.4687 10.2642 15.4687 10.7522C15.4687 11.1682 15.6927 11.4002 16.1807 11.5122L17.1007 11.7123C18.1007 11.9283 18.5887 12.4403 18.5887 13.3123C18.5886 14.4003 17.7406 15.1043 16.4526 15.1042C15.2046 15.1042 14.3886 14.4402 14.3647 13.3922L15.3887 13.3922C15.3967 13.8882 15.7967 14.1842 16.4527 14.1842C17.1327 14.1843 17.5647 13.8883 17.5647 13.4003C17.5647 13.0083 17.3647 12.7763 16.8847 12.6723L15.9567 12.4642C14.9647 12.2482 14.4447 11.6802 14.4447 10.7842Z" fill="white"/>
</svg>
