<svg width="24" height="24" viewBox="0 0 24 24" fill="none" xmlns="http://www.w3.org/2000/svg">
<path d="M23.6408 14.9029C22.0379 21.3315 15.5261 25.2438 9.09602 23.6407C2.66859 22.038 -1.24421 15.5266 0.359461 9.09838C1.96163 2.66907 8.47346 -1.24364 14.9016 0.359095C21.3313 1.96183 25.2437 8.47401 23.6408 14.9029Z" fill="#1275E9"/>
<path d="M5.67194 9.15203L5.67188 12.224L8.03994 9.15208L9.24794 9.1521L7.31189 11.6481L9.27182 15.0001L8.08782 15.0001L6.63987 12.5121L5.67185 13.752L5.67182 15L4.64782 15L4.64794 9.15201L5.67194 9.15203ZM12.1845 10.0162C11.0245 10.0161 10.3605 10.8561 10.3604 12.1201C10.3604 13.4241 11.1124 14.1361 12.1924 14.1362C13.2084 14.1362 13.8244 13.5762 13.8244 12.6402L13.8244 12.6162L12.0564 12.6162L12.0565 11.7122L14.7765 11.7122L14.7764 15.0002L13.9124 15.0002L13.8484 14.3282C13.5284 14.7762 12.8644 15.0882 12.0724 15.0882C10.4324 15.0881 9.28841 13.8961 9.28844 12.0961C9.28848 10.3201 10.4485 9.05613 12.2085 9.05616C13.5445 9.05619 14.5765 9.83221 14.7445 11.0242L13.6645 11.0242C13.4805 10.3362 12.8885 10.0162 12.1845 10.0162ZM15.5463 10.7842C15.5463 9.76022 16.3943 9.04824 17.6263 9.04827C18.8103 9.04829 19.5623 9.7043 19.5943 10.7603L18.5703 10.7603C18.5463 10.2563 18.1863 9.96028 17.6103 9.96026C16.9783 9.96025 16.5703 10.2642 16.5703 10.7522C16.5703 11.1682 16.7943 11.4002 17.2823 11.5123L18.2023 11.7123C19.2023 11.9283 19.6902 12.4403 19.6902 13.3123C19.6902 14.4003 18.8422 15.1043 17.5542 15.1043C16.3062 15.1042 15.4902 14.4402 15.4662 13.3922L16.4902 13.3922C16.4982 13.8882 16.8982 14.1843 17.5542 14.1843C18.2342 14.1843 18.6662 13.8883 18.6662 13.4003C18.6662 13.0083 18.4662 12.7763 17.9862 12.6723L17.0582 12.4643C16.0663 12.2482 15.5463 11.6802 15.5463 10.7842Z" fill="white"/>
</svg>
