<svg width="24" height="24" viewBox="0 0 24 24" fill="none" xmlns="http://www.w3.org/2000/svg">
<path d="M23.6408 14.9029C22.0379 21.3315 15.5261 25.2438 9.09602 23.6407C2.66859 22.038 -1.24421 15.5266 0.359461 9.09838C1.96163 2.66907 8.47346 -1.24364 14.9016 0.359095C21.3313 1.96183 25.2437 8.47401 23.6408 14.9029Z" fill="#1275E9"/>
<path d="M4.67194 9.15203L4.67188 12.224L7.03994 9.15208L8.24794 9.1521L6.31189 11.6481L8.27182 15.0001L7.08782 15.0001L5.63987 12.5121L4.67185 13.752L4.67182 15L3.64782 15L3.64794 9.15201L4.67194 9.15203ZM10.0624 15.0001L9.03845 15.0001L9.03856 9.15212L10.0626 9.15214L10.0625 11.5681L12.6545 11.5682L12.6546 9.15219L13.6786 9.15221L13.6784 15.0002L12.6544 15.0002L12.6545 12.5202L10.0625 12.5201L10.0624 15.0001ZM15.9999 15.0003L14.9759 15.0002L14.9761 9.15223L17.2081 9.15228C18.5361 9.1523 19.3121 9.82432 19.312 10.9763C19.312 11.7603 18.944 12.3203 18.256 12.6003L19.3679 15.0003L18.2479 15.0003L17.256 12.8163L16 12.8163L15.9999 15.0003ZM16 10.0643L16 11.9123L17.208 11.9123C17.856 11.9123 18.24 11.5683 18.24 10.9763C18.24 10.3923 17.856 10.0643 17.208 10.0643L16 10.0643Z" fill="white"/>
</svg>
