<svg width="24" height="24" viewBox="0 0 24 24" fill="none" xmlns="http://www.w3.org/2000/svg">
<path d="M23.6408 14.9029C22.0379 21.3315 15.5261 25.2438 9.09602 23.6407C2.66859 22.038 -1.24421 15.5266 0.359461 9.09838C1.96163 2.66907 8.47346 -1.24364 14.9016 0.359095C21.3313 1.96183 25.2437 8.47401 23.6408 14.9029Z" fill="#1275E9"/>
<path d="M4.67194 9.15203L4.67188 12.224L7.03994 9.15208L8.24794 9.1521L6.31189 11.6481L8.27182 15.0001L7.08782 15.0001L5.63987 12.5121L4.67185 13.752L4.67182 15L3.64782 15L3.64794 9.15201L4.67194 9.15203ZM10.0304 15.0001L9.03845 15.0001L9.03856 9.15212L10.0306 9.15214L11.9185 13.8082L13.8066 9.15221L14.8146 9.15223L14.8144 15.0002L13.8224 15.0002L13.8225 13.2002C13.8225 12.0242 13.8225 11.6802 13.8785 11.2642L12.3904 15.0002L11.4464 15.0002L9.96652 11.2721C10.0225 11.6241 10.0305 12.1761 10.0305 12.9041L10.0304 15.0001ZM19.3088 12.6083L17.1328 12.6083L17.1328 15.0003L16.1088 15.0003L16.1089 9.15226L19.7249 9.15233L19.7249 10.0963L17.1329 10.0963L17.1328 11.6883L19.3088 11.6883L19.3088 12.6083Z" fill="white"/>
</svg>
