<svg width="24" height="24" viewBox="0 0 24 24" fill="none" xmlns="http://www.w3.org/2000/svg">
<path d="M23.6408 14.9029C22.0379 21.3315 15.5261 25.2438 9.09602 23.6407C2.66859 22.038 -1.24421 15.5266 0.359461 9.09838C1.96163 2.66907 8.47346 -1.24364 14.9016 0.359095C21.3313 1.96183 25.2437 8.47401 23.6408 14.9029Z" fill="#1275E9"/>
<path d="M3.67194 9.15203L3.67188 12.224L6.03994 9.15208L7.24794 9.1521L5.31189 11.6481L7.27182 15.0001L6.08782 15.0001L4.63987 12.5121L3.67185 13.752L3.67182 15L2.64782 15L2.64794 9.15201L3.67194 9.15203ZM10.3505 12.9842L9.06249 12.9841L9.06245 15.0001L8.03845 15.0001L8.03856 9.15212L10.3506 9.15216C11.5266 9.15219 12.2865 9.9202 12.2865 11.0642C12.2865 12.1922 11.5185 12.9842 10.3505 12.9842ZM10.1505 10.0642L9.06255 10.0641L9.06251 12.0721L10.1345 12.0722C10.8385 12.0722 11.2145 11.6962 11.2145 11.0562C11.2145 10.4162 10.8305 10.0642 10.1505 10.0642ZM14.3638 15.0002L12.6199 9.15221L13.6839 9.15223L14.6119 12.2402C14.6999 12.5602 14.7879 12.8882 14.8759 13.4003C14.9719 12.8803 15.0599 12.5763 15.1639 12.2403L16.0839 9.15227L17.2119 9.1523L18.1159 12.2403C18.2119 12.5683 18.2999 12.9043 18.3959 13.4003C18.5079 12.8563 18.5879 12.5443 18.6759 12.2483L19.6199 9.15234L20.6599 9.15236L18.8838 15.0003L17.8918 15.0003L16.6439 10.7443L15.3718 15.0003L14.3638 15.0002Z" fill="white"/>
</svg>
