<svg width="24" height="24" viewBox="0 0 24 24" fill="none" xmlns="http://www.w3.org/2000/svg">
<path d="M23.6408 14.9029C22.0379 21.3315 15.5261 25.2438 9.09602 23.6407C2.66859 22.038 -1.24421 15.5266 0.359461 9.09838C1.96163 2.66907 8.47346 -1.24364 14.9016 0.359095C21.3313 1.96183 25.2437 8.47401 23.6408 14.9029Z" fill="#1275E9"/>
<path d="M3.67194 9.15203L3.67188 12.224L6.03994 9.15208L7.24794 9.1521L5.31189 11.6481L7.27182 15.0001L6.08782 15.0001L4.63987 12.5121L3.67185 13.752L3.67182 15L2.64782 15L2.64794 9.15201L3.67194 9.15203ZM9.06245 15.0001L8.03845 15.0001L8.03856 9.15212L10.2706 9.15216C11.5986 9.15219 12.3746 9.8242 12.3745 10.9762C12.3745 11.7602 12.0065 12.3202 11.3185 12.6002L12.4304 15.0002L11.3104 15.0002L10.3185 12.8162L9.06249 12.8161L9.06245 15.0001ZM9.06255 10.0641L9.06251 11.9121L10.2705 11.9122C10.9185 11.9122 11.3025 11.5682 11.3025 10.9762C11.3025 10.3922 10.9185 10.0642 10.2705 10.0642L9.06255 10.0641ZM14.5826 15.0002L12.8387 9.15221L13.9027 9.15223L14.8306 12.2402C14.9186 12.5603 15.0066 12.8883 15.0946 13.4003C15.1906 12.8803 15.2786 12.5763 15.3826 12.2403L16.3027 9.15228L17.4307 9.1523L18.3346 12.2403C18.4306 12.5683 18.5186 12.9043 18.6146 13.4003C18.7266 12.8563 18.8066 12.5443 18.8946 12.2483L19.8387 9.15235L20.8787 9.15237L19.1026 15.0003L18.1106 15.0003L16.8627 10.7443L15.5906 15.0003L14.5826 15.0002Z" fill="white"/>
</svg>
