<svg width="24" height="24" viewBox="0 0 24 24" fill="none" xmlns="http://www.w3.org/2000/svg">
<path d="M23.6408 14.9029C22.0379 21.3315 15.5261 25.2438 9.09602 23.6407C2.66859 22.038 -1.24421 15.5266 0.359461 9.09838C1.96163 2.66907 8.47346 -1.24364 14.9016 0.359095C21.3313 1.96183 25.2437 8.47401 23.6408 14.9029Z" fill="#1275E9"/>
<path d="M3.67194 9.15203L3.67188 12.224L6.03994 9.15208L7.24794 9.1521L5.31189 11.6481L7.27182 15.0001L6.08782 15.0001L4.63987 12.5121L3.67185 13.752L3.67182 15L2.64782 15L2.64794 9.15201L3.67194 9.15203ZM9.25445 15.0001L7.51056 9.15211L8.57456 9.15213L9.5025 12.2401C9.5905 12.5601 9.67849 12.8881 9.76648 13.4002C9.86249 12.8802 9.9505 12.5762 10.0545 12.2402L10.9746 9.15217L12.1026 9.1522L13.0065 12.2402C13.1025 12.5682 13.1905 12.9042 13.2865 13.4002C13.3985 12.8562 13.4785 12.5442 13.5665 12.2482L14.5106 9.15224L15.5506 9.15226L13.7744 15.0002L12.7824 15.0002L11.5345 10.7442L10.2624 15.0002L9.25445 15.0001ZM18.4237 15.0003L16.3197 15.0003L16.3198 9.15228L18.3678 9.15232C20.0958 9.15235 21.2878 10.3444 21.2878 12.0884C21.2877 13.8084 20.1197 15.0004 18.4237 15.0003ZM18.2718 10.0963L17.3438 10.0963L17.3437 14.0563L18.3277 14.0563C19.4957 14.0563 20.2077 13.3044 20.2078 12.0884C20.2078 10.8484 19.4798 10.0963 18.2718 10.0963Z" fill="white"/>
</svg>
