<svg width="24" height="24" viewBox="0 0 24 24" fill="none" xmlns="http://www.w3.org/2000/svg">
<path d="M23.6408 14.9029C22.0379 21.3315 15.5261 25.2438 9.09602 23.6407C2.66859 22.038 -1.24421 15.5266 0.359461 9.09838C1.96163 2.66907 8.47346 -1.24364 14.9016 0.359095C21.3313 1.96183 25.2437 8.47401 23.6408 14.9029Z" fill="#1275E9"/>
<path d="M5.67194 9.15203L5.67188 12.224L8.03994 9.15208L9.24794 9.1521L7.31189 11.6481L9.27182 15.0001L8.08782 15.0001L6.63987 12.5121L5.67185 13.752L5.67182 15L4.64782 15L4.64794 9.15201L5.67194 9.15203ZM11.4465 12.6961L9.47056 9.15211L10.6146 9.15213L11.7665 11.2802C11.8545 11.4402 11.9105 11.5682 11.9745 11.7122C12.0465 11.5682 12.0785 11.4722 12.1825 11.2802L13.3266 9.15218L14.4386 9.1522L12.4705 12.6962L12.4704 15.0002L11.4464 15.0001L11.4465 12.6961ZM17.2674 15.0003L15.1634 15.0002L15.1636 9.15222L17.2116 9.15226C18.9396 9.15229 20.1315 10.3443 20.1315 12.0883C20.1315 13.8083 18.9634 15.0003 17.2674 15.0003ZM17.1155 10.0963L16.1875 10.0962L16.1875 14.0562L17.1715 14.0563C18.3395 14.0563 19.0515 13.3043 19.0515 12.0883C19.0515 10.8483 18.3235 10.0963 17.1155 10.0963Z" fill="white"/>
</svg>
