<svg width="24" height="24" viewBox="0 0 24 24" fill="none" xmlns="http://www.w3.org/2000/svg">
<path d="M23.6408 14.9029C22.0379 21.3315 15.5261 25.2438 9.09602 23.6407C2.66859 22.038 -1.24421 15.5266 0.359461 9.09838C1.96163 2.66907 8.47346 -1.24364 14.9016 0.359095C21.3313 1.96183 25.2437 8.47401 23.6408 14.9029Z" fill="#1275E9"/>
<path d="M5.67194 9.15203L5.67188 12.224L8.03994 9.15208L9.24794 9.1521L7.31189 11.6481L9.27182 15.0001L8.08782 15.0001L6.63987 12.5121L5.67185 13.752L5.67182 15L4.64782 15L4.64794 9.15201L5.67194 9.15203ZM13.8464 15.0002L9.63845 15.0001L9.63847 14.0481L12.5265 10.0962L9.70255 10.0961L9.70256 9.15211L13.7986 9.15219L13.7985 10.0642L10.8865 14.0561L13.8465 14.0562L13.8464 15.0002ZM14.2297 10.0962L14.2297 9.1522L18.6777 9.15229L18.6777 10.0963L16.9657 10.0963L16.9656 15.0003L15.9416 15.0002L15.9417 10.0962L14.2297 10.0962Z" fill="white"/>
</svg>
