<svg width="24" height="24" viewBox="0 0 24 24" fill="none" xmlns="http://www.w3.org/2000/svg">
<path d="M23.6408 14.9029C22.0379 21.3315 15.5261 25.2438 9.09602 23.6407C2.66859 22.038 -1.24421 15.5266 0.359461 9.09838C1.96163 2.66907 8.47346 -1.24364 14.9016 0.359095C21.3313 1.96183 25.2437 8.47401 23.6408 14.9029Z" fill="#1275E9"/>
<path d="M5.67194 9.15203L5.67184 14.056L8.11984 14.0561L8.11982 15.0001L4.64782 15L4.64794 9.15201L5.67194 9.15203ZM9.61276 15.0001L8.54876 15.0001L10.6609 9.15213L11.7089 9.15215L13.8208 15.0002L12.7408 15.0002L12.2688 13.6482L10.0848 13.6481L9.61276 15.0001ZM11.0528 10.8961L10.3888 12.7841L11.9728 12.7842L11.3008 10.8961C11.2528 10.7441 11.1968 10.5681 11.1809 10.4481C11.1568 10.5601 11.1088 10.7361 11.0528 10.8961ZM15.5782 9.15223L15.5781 12.2242L17.9462 9.15227L19.1542 9.1523L17.2181 11.6483L19.1781 15.0003L17.9941 15.0003L16.5461 12.5122L15.5781 13.7522L15.5781 15.0002L14.5541 15.0002L14.5542 9.15221L15.5782 9.15223Z" fill="white"/>
</svg>
