<svg width="24" height="24" viewBox="0 0 24 24" fill="none" xmlns="http://www.w3.org/2000/svg">
<path d="M23.6408 14.9029C22.0379 21.3315 15.5261 25.2438 9.09602 23.6407C2.66859 22.038 -1.24421 15.5266 0.359461 9.09838C1.96163 2.66907 8.47346 -1.24364 14.9016 0.359095C21.3313 1.96183 25.2437 8.47401 23.6408 14.9029Z" fill="#1275E9"/>
<path d="M5.67194 9.15203L5.67184 14.056L8.11984 14.0561L8.11982 15.0001L4.64782 15L4.64794 9.15201L5.67194 9.15203ZM8.95251 15.0001L8.95263 9.1521L11.2806 9.15214C12.4326 9.15216 13.1366 9.75218 13.1366 10.7282C13.1366 11.3762 12.8486 11.8402 12.2966 12.0722C12.9126 12.2722 13.2246 12.7362 13.2245 13.4162C13.2245 14.4162 12.5285 15.0002 11.3205 15.0001L8.95251 15.0001ZM11.1926 10.0561L9.97661 10.0561L9.97658 11.6481L11.2166 11.6481C11.7766 11.6482 12.0886 11.3522 12.0886 10.8322C12.0886 10.3282 11.7686 10.0562 11.1926 10.0561ZM11.2806 12.5121L9.97656 12.5121L9.97653 14.0961L11.2805 14.0961C11.8565 14.0962 12.1765 13.8162 12.1765 13.2882C12.1766 12.7922 11.8486 12.5122 11.2806 12.5121ZM16.4755 12.9842L15.1875 12.9842L15.1874 15.0002L14.1634 15.0002L14.1636 9.1522L16.4756 9.15224C17.6516 9.15227 18.4115 9.92028 18.4115 11.0643C18.4115 12.1923 17.6435 12.9843 16.4755 12.9842ZM16.2755 10.0642L15.1875 10.0642L15.1875 12.0722L16.2595 12.0722C16.9635 12.0723 17.3395 11.6963 17.3395 11.0563C17.3395 10.4163 16.9555 10.0643 16.2755 10.0642Z" fill="white"/>
</svg>
