<svg width="24" height="24" viewBox="0 0 24 24" fill="none" xmlns="http://www.w3.org/2000/svg">
<path d="M23.6408 14.9029C22.0379 21.3315 15.5261 25.2438 9.09602 23.6407C2.66859 22.038 -1.24421 15.5266 0.359461 9.09838C1.96163 2.66907 8.47346 -1.24364 14.9016 0.359095C21.3313 1.96183 25.2437 8.47401 23.6408 14.9029V14.9029Z" fill="#1275E9"/>
<path d="M5.67194 9.15203L5.67184 14.056L8.11984 14.0561L8.11982 15.0001L4.64782 15L4.64794 9.15201L5.67194 9.15203ZM9.97663 9.15212L9.97657 12.2241L12.3446 9.15216L13.5526 9.15219L11.6166 11.6481L13.5765 15.0002L12.3925 15.0002L10.9446 12.5121L9.97654 13.7521L9.97651 15.0001L8.95251 15.0001L8.95263 9.1521L9.97663 9.15212ZM15.3671 15.0002L14.3431 15.0002L14.3433 9.1522L16.5753 9.15225C17.9033 9.15227 18.6792 9.82429 18.6792 10.9763C18.6792 11.7603 18.3112 12.3203 17.6232 12.6003L18.7351 15.0003L17.6151 15.0003L16.6232 12.8162L15.3672 12.8162L15.3671 15.0002ZM15.3672 10.0642L15.3672 11.9122L16.5752 11.9122C17.2232 11.9123 17.6072 11.5683 17.6072 10.9763C17.6072 10.3923 17.2232 10.0643 16.5752 10.0642L15.3672 10.0642Z" fill="white"/>
</svg>
