<svg width="24" height="24" viewBox="0 0 24 24" fill="none" xmlns="http://www.w3.org/2000/svg">
<path d="M23.6408 14.9029C22.0379 21.3315 15.5261 25.2438 9.09602 23.6407C2.66859 22.038 -1.24421 15.5266 0.359461 9.09838C1.96163 2.66907 8.47346 -1.24364 14.9016 0.359095C21.3313 1.96183 25.2437 8.47401 23.6408 14.9029Z" fill="#1275E9"/>
<path d="M6.35022 9.15216V14.0562H8.79822V15.0002H5.32622V9.15216H6.35022ZM10.6549 15.0002H9.63091V9.15216H11.8629C13.1909 9.15216 13.9669 9.82416 13.9669 10.9762C13.9669 11.7602 13.5989 12.3202 12.9109 12.6002L14.0229 15.0002H12.9029L11.9109 12.8162H10.6549V15.0002ZM10.6549 10.0642V11.9122H11.8629C12.5109 11.9122 12.8949 11.5682 12.8949 10.9762C12.8949 10.3922 12.5109 10.0642 11.8629 10.0642H10.6549ZM17.0943 15.0002H14.9903V9.15216H17.0383C18.7663 9.15216 19.9583 10.3442 19.9583 12.0882C19.9583 13.8082 18.7903 15.0002 17.0943 15.0002ZM16.9423 10.0962H16.0143V14.0562H16.9983C18.1663 14.0562 18.8783 13.3042 18.8783 12.0882C18.8783 10.8482 18.1503 10.0962 16.9423 10.0962Z" fill="white"/>
</svg>
