<svg width="24" height="24" viewBox="0 0 24 24" fill="none" xmlns="http://www.w3.org/2000/svg">
<path d="M23.6408 14.9029C22.0379 21.3315 15.5261 25.2438 9.09602 23.6407C2.66859 22.038 -1.24421 15.5266 0.359461 9.09838C1.96163 2.66907 8.47346 -1.24364 14.9016 0.359095C21.3313 1.96183 25.2437 8.47401 23.6408 14.9029Z" fill="#1275E9"/>
<path d="M6.672 9.15216V14.0562H9.12V15.0002H5.648V9.15216H6.672ZM10.7513 12.6962L8.77531 9.15216H9.91931L11.0713 11.2802C11.1593 11.4402 11.2153 11.5682 11.2793 11.7122C11.3513 11.5682 11.3833 11.4722 11.4873 11.2802L12.6313 9.15216H13.7433L11.7753 12.6962V15.0002H10.7513V12.6962ZM16.5723 15.0002H14.4683V9.15216H16.5163C18.2443 9.15216 19.4363 10.3442 19.4363 12.0882C19.4363 13.8082 18.2683 15.0002 16.5723 15.0002ZM16.4203 10.0962H15.4923V14.0562H16.4763C17.6443 14.0562 18.3563 13.3042 18.3563 12.0882C18.3563 10.8482 17.6283 10.0962 16.4203 10.0962Z" fill="white"/>
</svg>
