<svg width="24" height="24" viewBox="0 0 24 24" fill="none" xmlns="http://www.w3.org/2000/svg">
<path d="M23.6408 14.9029C22.0379 21.3315 15.5261 25.2438 9.09602 23.6407C2.66859 22.038 -1.24421 15.5266 0.359461 9.09838C1.96163 2.66907 8.47346 -1.24364 14.9016 0.359095C21.3313 1.96183 25.2437 8.47401 23.6408 14.9029Z" fill="#1275E9"/>
<path d="M4.64 15.0002H3.648V9.15216H4.64L6.528 13.8082L8.416 9.15216H9.424V15.0002H8.432V13.2002C8.432 12.0242 8.432 11.6802 8.488 11.2642L7 15.0002H6.056L4.576 11.2722C4.632 11.6242 4.64 12.1762 4.64 12.9042V15.0002ZM11.2223 15.0002H10.1583L12.2703 9.15216H13.3183L15.4303 15.0002H14.3503L13.8783 13.6482H11.6943L11.2223 15.0002ZM12.6623 10.8962L11.9983 12.7842H13.5823L12.9103 10.8962C12.8623 10.7442 12.8063 10.5682 12.7903 10.4482C12.7663 10.5602 12.7183 10.7362 12.6623 10.8962ZM18.2676 15.0002H16.1636V9.15216H18.2116C19.9396 9.15216 21.1316 10.3442 21.1316 12.0882C21.1316 13.8082 19.9636 15.0002 18.2676 15.0002ZM18.1156 10.0962H17.1876V14.0562H18.1716C19.3396 14.0562 20.0516 13.3042 20.0516 12.0882C20.0516 10.8482 19.3236 10.0962 18.1156 10.0962Z" fill="white"/>
</svg>
