<svg width="24" height="24" viewBox="0 0 24 24" fill="none" xmlns="http://www.w3.org/2000/svg">
<path d="M23.6408 14.9029C22.0379 21.3315 15.5261 25.2438 9.09602 23.6407C2.66859 22.038 -1.24421 15.5266 0.359461 9.09838C1.96163 2.66907 8.47346 -1.24364 14.9016 0.359095C21.3313 1.96183 25.2437 8.47401 23.6408 14.9029Z" fill="#1275E9"/>
<path d="M4.64 15.0002H3.648V9.15216H4.64L6.528 13.8082L8.416 9.15216H9.424V15.0002H8.432V13.2002C8.432 12.0242 8.432 11.6802 8.488 11.2642L7 15.0002H6.056L4.576 11.2722C4.632 11.6242 4.64 12.1762 4.64 12.9042V15.0002ZM12.8223 15.0002H10.7183V9.15216H12.7663C14.4943 9.15216 15.6863 10.3442 15.6863 12.0882C15.6863 13.8082 14.5183 15.0002 12.8223 15.0002ZM12.6703 10.0962H11.7423V14.0562H12.7263C13.8943 14.0562 14.6063 13.3042 14.6063 12.0882C14.6063 10.8482 13.8783 10.0962 12.6703 10.0962ZM17.6642 9.15216V14.0562H20.1122V15.0002H16.6402V9.15216H17.6642Z" fill="white"/>
</svg>
