<svg width="24" height="24" viewBox="0 0 24 24" fill="none" xmlns="http://www.w3.org/2000/svg">
<path d="M23.6408 14.9029C22.0379 21.3315 15.5261 25.2438 9.09602 23.6407C2.66859 22.038 -1.24421 15.5266 0.359461 9.09838C1.96163 2.66907 8.47346 -1.24364 14.9016 0.359095C21.3313 1.96183 25.2437 8.47401 23.6408 14.9029Z" fill="#1275E9"/>
<path d="M4.64 15.0002H3.648V9.15216H4.64L6.528 13.8082L8.416 9.15216H9.424V15.0002H8.432V13.2002C8.432 12.0242 8.432 11.6802 8.488 11.2642L7 15.0002H6.056L4.576 11.2722C4.632 11.6242 4.64 12.1762 4.64 12.9042V15.0002ZM13.2783 10.0162C12.1183 10.0162 11.4543 10.8562 11.4543 12.1202C11.4543 13.4242 12.2063 14.1362 13.2863 14.1362C14.3023 14.1362 14.9183 13.5762 14.9183 12.6402V12.6162H13.1503V11.7122H15.8703V15.0002H15.0063L14.9423 14.3282C14.6223 14.7762 13.9583 15.0882 13.1663 15.0882C11.5263 15.0882 10.3823 13.8962 10.3823 12.0962C10.3823 10.3202 11.5423 9.05616 13.3023 9.05616C14.6383 9.05616 15.6703 9.83216 15.8383 11.0242H14.7583C14.5743 10.3362 13.9823 10.0162 13.2783 10.0162ZM17.4801 15.0002H16.4161L18.5281 9.15216H19.5761L21.6881 15.0002H20.6081L20.1361 13.6482H17.9521L17.4801 15.0002ZM18.9201 10.8962L18.2561 12.7842H19.8401L19.1681 10.8962C19.1201 10.7442 19.0641 10.5682 19.0481 10.4482C19.0241 10.5602 18.9761 10.7362 18.9201 10.8962Z" fill="white"/>
</svg>
