<svg width="24" height="24" viewBox="0 0 24 24" fill="none" xmlns="http://www.w3.org/2000/svg">
<path d="M23.6408 14.9029C22.0379 21.3315 15.5261 25.2438 9.09602 23.6407C2.66859 22.038 -1.24421 15.5266 0.359461 9.09838C1.96163 2.66907 8.47346 -1.24364 14.9016 0.359095C21.3313 1.96183 25.2437 8.47401 23.6408 14.9029Z" fill="#1275E9"/>
<path d="M4.64 15.0002H3.648V9.15216H4.64L6.528 13.8082L8.416 9.15216H9.424V15.0002H8.432V13.2002C8.432 12.0242 8.432 11.6802 8.488 11.2642L7 15.0002H6.056L4.576 11.2722C4.632 11.6242 4.64 12.1762 4.64 12.9042V15.0002ZM11.7423 9.15216V12.2242L14.1103 9.15216H15.3183L13.3823 11.6482L15.3423 15.0002H14.1583L12.7103 12.5122L11.7423 13.7522V15.0002H10.7183V9.15216H11.7423ZM18.2129 15.0002H16.1089V9.15216H18.1569C19.8849 9.15216 21.0769 10.3442 21.0769 12.0882C21.0769 13.8082 19.9089 15.0002 18.2129 15.0002ZM18.0609 10.0962H17.1329V14.0562H18.1169C19.2849 14.0562 19.9969 13.3042 19.9969 12.0882C19.9969 10.8482 19.2689 10.0962 18.0609 10.0962Z" fill="white"/>
</svg>
