<svg width="24" height="24" viewBox="0 0 24 24" fill="none" xmlns="http://www.w3.org/2000/svg">
<path d="M23.6408 14.9029C22.0379 21.3315 15.5261 25.2438 9.09602 23.6407C2.66859 22.038 -1.24421 15.5266 0.359461 9.09838C1.96163 2.66907 8.47346 -1.24364 14.9016 0.359095C21.3313 1.96183 25.2437 8.47401 23.6408 14.9029Z" fill="#1275E9"/>
<path d="M3.63982 15L2.64782 15L2.64794 9.15201L3.63994 9.15203L5.52785 13.8081L7.41594 9.15211L8.42394 9.15213L8.42382 15.0001L7.43182 15.0001L7.43186 13.2001C7.43188 12.0241 7.43189 11.6801 7.4879 11.2641L5.99982 15.0001L5.05582 15.0001L3.5759 11.272C3.63189 11.624 3.63988 12.176 3.63987 12.904L3.63982 15ZM10.7101 15.0002L9.71814 15.0002L9.71825 9.15215L10.7103 9.15217L12.5982 13.8082L14.4863 9.15224L15.4943 9.15226L15.4941 15.0003L14.5021 15.0002L14.5022 13.2002C14.5022 12.0242 14.5022 11.6802 14.5582 11.2642L13.0701 15.0002L12.1261 15.0002L10.6462 11.2722C10.7022 11.6242 10.7102 12.1762 10.7102 12.9042L10.7101 15.0002ZM17.8126 9.15231L17.8125 12.2243L20.1806 9.15235L21.3886 9.15238L19.4525 11.6483L21.4124 15.0004L20.2284 15.0004L18.7805 12.5123L17.8125 13.7523L17.8124 15.0003L16.7884 15.0003L16.7886 9.15229L17.8126 9.15231Z" fill="white"/>
</svg>
