<svg width="24" height="24" viewBox="0 0 24 24" fill="none" xmlns="http://www.w3.org/2000/svg">
<path d="M23.6408 14.9029C22.0379 21.3315 15.5261 25.2438 9.09602 23.6407C2.66859 22.038 -1.24421 15.5266 0.359461 9.09838C1.96163 2.66907 8.47346 -1.24364 14.9016 0.359095C21.3313 1.96183 25.2437 8.47401 23.6408 14.9029Z" fill="#1275E9"/>
<path d="M4.64 15.0002H3.648V9.15216H4.64L6.528 13.8082L8.416 9.15216H9.424V15.0002H8.432V13.2002C8.432 12.0242 8.432 11.6802 8.488 11.2642L7 15.0002H6.056L4.576 11.2722C4.632 11.6242 4.64 12.1762 4.64 12.9042V15.0002ZM16.0543 12.0722C16.0543 13.8482 14.8863 15.0962 13.2063 15.0962C11.5343 15.0962 10.3823 13.8562 10.3823 12.0722C10.3823 10.2962 11.5423 9.04816 13.2143 9.04816C14.8863 9.04816 16.0543 10.2882 16.0543 12.0722ZM14.9743 12.0722C14.9743 10.8242 14.2863 10.0322 13.2143 10.0322C12.1423 10.0322 11.4543 10.8242 11.4543 12.0722C11.4543 13.3202 12.1423 14.1122 13.2143 14.1122C14.2863 14.1122 14.9743 13.3042 14.9743 12.0722ZM19.3194 12.9842H18.0314V15.0002H17.0074V9.15216H19.3194C20.4954 9.15216 21.2554 9.92016 21.2554 11.0642C21.2554 12.1922 20.4874 12.9842 19.3194 12.9842ZM19.1194 10.0642H18.0314V12.0722H19.1034C19.8074 12.0722 20.1834 11.6962 20.1834 11.0562C20.1834 10.4162 19.7994 10.0642 19.1194 10.0642Z" fill="white"/>
</svg>
