<svg width="24" height="24" viewBox="0 0 24 24" fill="none" xmlns="http://www.w3.org/2000/svg">
<path d="M23.6408 14.9029C22.0379 21.3315 15.5261 25.2438 9.09602 23.6407C2.66859 22.038 -1.24421 15.5266 0.359461 9.09838C1.96163 2.66907 8.47346 -1.24364 14.9016 0.359095C21.3313 1.96183 25.2437 8.47401 23.6408 14.9029Z" fill="#1275E9"/>
<path d="M4.64 15.0002H3.648V9.15216H4.64L6.528 13.8082L8.416 9.15216H9.424V15.0002H8.432V13.2002C8.432 12.0242 8.432 11.6802 8.488 11.2642L7 15.0002H6.056L4.576 11.2722C4.632 11.6242 4.64 12.1762 4.64 12.9042V15.0002ZM11.7423 15.0002H10.7183V9.15216H12.9503C14.2783 9.15216 15.0543 9.82416 15.0543 10.9762C15.0543 11.7602 14.6863 12.3202 13.9983 12.6002L15.1103 15.0002H13.9903L12.9983 12.8162H11.7423V15.0002ZM11.7423 10.0642V11.9122H12.9503C13.5983 11.9122 13.9823 11.5682 13.9823 10.9762C13.9823 10.3922 13.5983 10.0642 12.9503 10.0642H11.7423ZM16.0221 12.8642V9.15216H17.0461V12.8002C17.0461 13.6402 17.5021 14.1042 18.3341 14.1042C19.1661 14.1042 19.6301 13.6322 19.6301 12.8002V9.15216H20.6541V12.8642C20.6541 14.2322 19.7581 15.0962 18.3341 15.0962C16.9181 15.0962 16.0221 14.2402 16.0221 12.8642Z" fill="white"/>
</svg>
