<svg width="24" height="24" viewBox="0 0 24 24" fill="none" xmlns="http://www.w3.org/2000/svg">
<path d="M23.6408 14.9029C22.0379 21.3315 15.5261 25.2438 9.09602 23.6407C2.66859 22.038 -1.24421 15.5266 0.359461 9.09838C1.96163 2.66907 8.47346 -1.24364 14.9016 0.359095C21.3313 1.96183 25.2437 8.47401 23.6408 14.9029Z" fill="#1275E9"/>
<path d="M4.64 15.0002H3.648V9.15216H4.64L6.528 13.8082L8.416 9.15216H9.424V15.0002H8.432V13.2002C8.432 12.0242 8.432 11.6802 8.488 11.2642L7 15.0002H6.056L4.576 11.2722C4.632 11.6242 4.64 12.1762 4.64 12.9042V15.0002ZM10.6783 12.8642V9.15216H11.7023V12.8002C11.7023 13.6402 12.1583 14.1042 12.9903 14.1042C13.8223 14.1042 14.2863 13.6322 14.2863 12.8002V9.15216H15.3103V12.8642C15.3103 14.2322 14.4143 15.0962 12.9903 15.0962C11.5743 15.0962 10.6783 14.2402 10.6783 12.8642ZM17.5939 15.0002H16.5699V9.15216H18.8019C20.1299 9.15216 20.9059 9.82416 20.9059 10.9762C20.9059 11.7602 20.5379 12.3202 19.8499 12.6002L20.9619 15.0002H19.8419L18.8499 12.8162H17.5939V15.0002ZM17.5939 10.0642V11.9122H18.8019C19.4499 11.9122 19.8339 11.5682 19.8339 10.9762C19.8339 10.3922 19.4499 10.0642 18.8019 10.0642H17.5939Z" fill="white"/>
</svg>
