<svg width="24" height="24" viewBox="0 0 24 24" fill="none" xmlns="http://www.w3.org/2000/svg">
<path d="M23.6408 14.9029C22.0379 21.3315 15.5261 25.2438 9.09602 23.6407C2.66859 22.038 -1.24421 15.5266 0.359461 9.09838C1.96163 2.66907 8.47346 -1.24364 14.9016 0.359095C21.3313 1.96183 25.2437 8.47401 23.6408 14.9029Z" fill="#1275E9"/>
<path d="M4.64 15.0002H3.648V9.15216H4.64L6.528 13.8082L8.416 9.15216H9.424V15.0002H8.432V13.2002C8.432 12.0242 8.432 11.6802 8.488 11.2642L7 15.0002H6.056L4.576 11.2722C4.632 11.6242 4.64 12.1762 4.64 12.9042V15.0002ZM12.3583 15.0002L10.1503 9.15216H11.2383L12.5183 12.5202C12.6463 12.8722 12.7583 13.2162 12.8863 13.6882C13.0303 13.1762 13.1503 12.8162 13.2623 12.5202L14.5263 9.15216H15.5903L13.4143 15.0002H12.3583ZM17.3439 9.15216V12.2242L19.7119 9.15216H20.9199L18.9839 11.6482L20.9439 15.0002H19.7599L18.3119 12.5122L17.3439 13.7522V15.0002H16.3199V9.15216H17.3439Z" fill="white"/>
</svg>
