<svg width="24" height="24" viewBox="0 0 24 24" fill="none" xmlns="http://www.w3.org/2000/svg">
<path d="M23.6408 14.9029C22.0379 21.3315 15.5261 25.2438 9.09602 23.6407C2.66859 22.038 -1.24421 15.5266 0.359461 9.09838C1.96163 2.66907 8.47346 -1.24364 14.9016 0.359095C21.3313 1.96183 25.2437 8.47401 23.6408 14.9029V14.9029Z" fill="#1275E9"/>
<path d="M3.63982 15L2.64782 15L2.64794 9.15201L3.63994 9.15203L5.52785 13.8081L7.41594 9.15211L8.42394 9.15213L8.42382 15.0001L7.43182 15.0001L7.43186 13.2001C7.43188 12.0241 7.43189 11.6801 7.4879 11.2641L5.99982 15.0001L5.05582 15.0001L3.5759 11.272C3.63189 11.624 3.63988 12.176 3.63987 12.904L3.63982 15ZM10.9341 15.0002L9.19025 9.15214L10.2543 9.15216L11.1822 12.2402C11.2702 12.5602 11.3582 12.8882 11.4462 13.4002C11.5422 12.8802 11.6302 12.5762 11.7342 12.2402L12.6543 9.15221L13.7823 9.15223L14.6862 12.2402C14.7822 12.5682 14.8702 12.9043 14.9662 13.4003C15.0782 12.8563 15.1582 12.5443 15.2462 12.2483L16.1903 9.15228L17.2303 9.1523L15.4541 15.0003L14.4621 15.0002L13.2142 10.7442L11.9421 15.0002L10.9341 15.0002ZM19.0235 9.15233L19.0234 12.2243L21.3915 9.15238L22.5995 9.1524L20.6635 11.6484L22.6234 15.0004L21.4394 15.0004L19.9914 12.5124L19.0234 13.7523L19.0234 15.0003L17.9994 15.0003L17.9995 9.15231L19.0235 9.15233Z" fill="white"/>
</svg>
