<svg width="24" height="24" viewBox="0 0 24 24" fill="none" xmlns="http://www.w3.org/2000/svg">
<path d="M23.6408 14.9029C22.0379 21.3315 15.5261 25.2438 9.09602 23.6407C2.66859 22.038 -1.24421 15.5266 0.359461 9.09838C1.96163 2.66907 8.47346 -1.24364 14.9016 0.359095C21.3313 1.96183 25.2437 8.47401 23.6408 14.9029Z" fill="#1275E9"/>
<path d="M4.64 15.0002H3.648V9.15216H4.64L6.528 13.8082L8.416 9.15216H9.424V15.0002H8.432V13.2002C8.432 12.0242 8.432 11.6802 8.488 11.2642L7 15.0002H6.056L4.576 11.2722C4.632 11.6242 4.64 12.1762 4.64 12.9042V15.0002ZM12.1903 12.0802L10.2463 9.15216H11.4623L12.1743 10.2002C12.4143 10.5602 12.6143 10.8962 12.8303 11.2962L14.1903 9.15216H15.3823L13.4703 12.0722L15.3903 15.0002H14.1823L13.5263 14.0322C13.2703 13.6402 13.0623 13.2882 12.8303 12.8642L11.4063 15.0002H10.2063L12.1903 12.0802ZM17.1716 15.0002H16.1636V9.15216H17.1796L19.9236 13.2962V9.15216H20.9316V15.0002H19.9236L17.1716 10.8562V15.0002Z" fill="white"/>
</svg>
