<svg width="24" height="24" viewBox="0 0 24 24" fill="none" xmlns="http://www.w3.org/2000/svg">
<path d="M23.6408 14.9029C22.0379 21.3315 15.5261 25.2438 9.09602 23.6407C2.66859 22.038 -1.24421 15.5266 0.359461 9.09838C1.96163 2.66907 8.47346 -1.24364 14.9016 0.359095C21.3313 1.96183 25.2437 8.47401 23.6408 14.9029Z" fill="#1275E9"/>
<path d="M4.64 15.0002H3.648V9.15216H4.64L6.528 13.8082L8.416 9.15216H9.424V15.0002H8.432V13.2002C8.432 12.0242 8.432 11.6802 8.488 11.2642L7 15.0002H6.056L4.576 11.2722C4.632 11.6242 4.64 12.1762 4.64 12.9042V15.0002ZM12.1263 12.6962L10.1503 9.15216H11.2943L12.4463 11.2802C12.5343 11.4402 12.5903 11.5682 12.6543 11.7122C12.7263 11.5682 12.7583 11.4722 12.8623 11.2802L14.0063 9.15216H15.1183L13.1503 12.6962V15.0002H12.1263V12.6962ZM16.8673 15.0002H15.8433V9.15216H18.0753C19.4033 9.15216 20.1793 9.82416 20.1793 10.9762C20.1793 11.7602 19.8113 12.3202 19.1233 12.6002L20.2353 15.0002H19.1153L18.1233 12.8162H16.8673V15.0002ZM16.8673 10.0642V11.9122H18.0753C18.7233 11.9122 19.1073 11.5682 19.1073 10.9762C19.1073 10.3922 18.7233 10.0642 18.0753 10.0642H16.8673Z" fill="white"/>
</svg>
