<svg width="24" height="24" viewBox="0 0 24 24" fill="none" xmlns="http://www.w3.org/2000/svg">
<path d="M23.6408 14.9029C22.0379 21.3315 15.5261 25.2438 9.09602 23.6407C2.66859 22.038 -1.24421 15.5266 0.359461 9.09838C1.96163 2.66907 8.47346 -1.24364 14.9016 0.359095C21.3313 1.96183 25.2437 8.47401 23.6408 14.9029Z" fill="#1275E9"/>
<path d="M4.63982 15L3.64782 15L3.64794 9.15201L4.63994 9.15203L6.52785 13.8081L8.41594 9.15211L9.42394 9.15213L9.42382 15.0001L8.43182 15.0001L8.43186 13.2001C8.43188 12.0241 8.43189 11.6801 8.4879 11.2641L6.99982 15.0001L6.05582 15.0001L4.5759 11.272C4.63189 11.624 4.63988 12.176 4.63987 12.904L4.63982 15ZM14.5261 15.0002L10.3181 15.0001L10.3182 14.0481L13.2062 10.0962L10.3822 10.0961L10.3823 9.15214L14.4783 9.15222L14.4782 10.0642L11.5662 14.0562L14.5262 14.0562L14.5261 15.0002ZM16.4293 15.0003L15.4213 15.0002L15.4214 9.15224L16.4374 9.15226L19.1813 13.2963L19.1814 9.15232L20.1894 9.15234L20.1893 15.0003L19.1813 15.0003L16.4293 10.8563L16.4293 15.0003Z" fill="white"/>
</svg>
