<svg width="24" height="24" viewBox="0 0 24 24" fill="none" xmlns="http://www.w3.org/2000/svg">
<path d="M23.6408 14.9029C22.0379 21.3315 15.5261 25.2438 9.09602 23.6407C2.66859 22.038 -1.24421 15.5266 0.359461 9.09838C1.96163 2.66907 8.47346 -1.24364 14.9016 0.359095C21.3313 1.96183 25.2437 8.47401 23.6408 14.9029Z" fill="#1275E9"/>
<path d="M3.65582 15L2.64782 15L2.64794 9.15201L3.66394 9.15203L6.40786 13.2961L6.40794 9.15209L7.41594 9.15211L7.41582 15.0001L6.40782 15.0001L3.65591 10.856L3.65582 15ZM11.2704 10.0162C10.1104 10.0162 9.44641 10.8561 9.44638 12.1201C9.44636 13.4241 10.1983 14.1362 11.2783 14.1362C12.2943 14.1362 12.9104 13.5762 12.9104 12.6402L12.9104 12.6162L11.1424 12.6162L11.1424 11.7122L13.8624 11.7122L13.8623 15.0002L12.9983 15.0002L12.9343 14.3282C12.6143 14.7762 11.9503 15.0882 11.1583 15.0882C9.51832 15.0881 8.37435 13.8961 8.37438 12.0961C8.37442 10.3201 9.53444 9.05615 11.2944 9.05618C12.6304 9.05621 13.6624 9.83223 13.8304 11.0242L12.7504 11.0242C12.5664 10.3362 11.9744 10.0162 11.2704 10.0162ZM15.9761 15.0003L14.9681 15.0003L14.9683 9.15225L15.9843 9.15227L18.7282 13.2963L18.7283 9.15233L19.7363 9.15235L19.7361 15.0003L18.7281 15.0003L15.9762 10.8563L15.9761 15.0003Z" fill="white"/>
</svg>
