<svg width="24" height="24" viewBox="0 0 24 24" fill="none" xmlns="http://www.w3.org/2000/svg">
<path d="M23.6408 14.9029C22.0379 21.3315 15.5261 25.2438 9.09602 23.6407C2.66859 22.038 -1.24421 15.5266 0.359461 9.09838C1.96163 2.66907 8.47346 -1.24364 14.9016 0.359095C21.3313 1.96183 25.2437 8.47401 23.6408 14.9029Z" fill="#1275E9"/>
<path d="M5.65582 15L4.64782 15L4.64794 9.15201L5.66394 9.15203L8.40786 13.2961L8.40794 9.15209L9.41594 9.15211L9.41582 15.0001L8.40782 15.0001L5.65591 10.856L5.65582 15ZM11.7344 9.15215L11.7343 15.0002L10.7103 15.0001L10.7104 9.15213L11.7344 9.15215ZM18.3667 12.0723C18.3667 13.8483 17.1986 15.0963 15.5186 15.0962C13.8466 15.0962 12.6947 13.8562 12.6947 12.0722C12.6947 10.2962 13.8548 9.04819 15.5268 9.04822C17.1988 9.04826 18.3667 10.2883 18.3667 12.0723ZM17.2867 12.0723C17.2867 10.8243 16.5987 10.0322 15.5267 10.0322C14.4547 10.0322 13.7667 10.8242 13.7667 12.0722C13.7667 13.3202 14.4547 14.1122 15.5267 14.1122C16.5987 14.1122 17.2867 13.3043 17.2867 12.0723Z" fill="white"/>
</svg>
