<svg width="24" height="24" viewBox="0 0 24 24" fill="none" xmlns="http://www.w3.org/2000/svg">
<path d="M23.6408 14.9029C22.0379 21.3315 15.5261 25.2438 9.09602 23.6407C2.66859 22.038 -1.24421 15.5266 0.359461 9.09838C1.96163 2.66907 8.47346 -1.24364 14.9016 0.359095C21.3313 1.96183 25.2437 8.47401 23.6408 14.9029Z" fill="#1275E9"/>
<path d="M4.65582 15L3.64782 15L3.64794 9.15201L4.66394 9.15203L7.40786 13.2961L7.40794 9.15209L8.41594 9.15211L8.41582 15.0001L7.40782 15.0001L4.65591 10.856L4.65582 15ZM15.0464 12.0722C15.0463 13.8482 13.8783 15.0962 12.1983 15.0962C10.5263 15.0961 9.37435 13.8561 9.37438 12.0721C9.37442 10.2961 10.5344 9.04815 12.2064 9.04818C13.8784 9.04821 15.0464 10.2882 15.0464 12.0722ZM13.9664 12.0722C13.9664 10.8242 13.2784 10.0322 12.2064 10.0322C11.1344 10.0322 10.4464 10.8241 10.4464 12.0721C10.4464 13.3201 11.1343 14.1122 12.2063 14.1122C13.2783 14.1122 13.9664 13.3042 13.9664 12.0722ZM17.0235 9.15227L17.0234 12.2243L19.3915 9.15232L20.5995 9.15234L18.6635 11.6483L20.6234 15.0003L19.4394 15.0003L17.9914 12.5123L17.0234 13.7523L17.0234 15.0003L15.9994 15.0003L15.9995 9.15225L17.0235 9.15227Z" fill="white"/>
</svg>
