<svg width="24" height="24" viewBox="0 0 24 24" fill="none" xmlns="http://www.w3.org/2000/svg">
<path d="M23.6408 14.9029C22.0379 21.3315 15.5261 25.2438 9.09602 23.6407C2.66859 22.038 -1.24421 15.5266 0.359461 9.09838C1.96163 2.66907 8.47346 -1.24364 14.9016 0.359095C21.3313 1.96183 25.2437 8.47401 23.6408 14.9029Z" fill="#1275E9"/>
<path d="M4.65582 15L3.64782 15L3.64794 9.15201L4.66394 9.15203L7.40786 13.2961L7.40794 9.15209L8.41594 9.15211L8.41582 15.0001L7.40782 15.0001L4.65591 10.856L4.65582 15ZM12.0224 12.9842L10.7344 12.9842L10.7343 15.0002L9.71032 15.0001L9.71044 9.15213L12.0224 9.15218C13.1984 9.1522 13.9584 9.92021 13.9584 11.0642C13.9584 12.1922 13.1904 12.9842 12.0224 12.9842ZM11.8224 10.0642L10.7344 10.0642L10.7344 12.0722L11.8064 12.0722C12.5104 12.0722 12.8864 11.6962 12.8864 11.0562C12.8864 10.4162 12.5024 10.0642 11.8224 10.0642ZM15.8437 15.0003L14.8197 15.0002L14.8198 9.15223L17.0518 9.15227C18.3798 9.1523 19.1558 9.82431 19.1558 10.9763C19.1558 11.7603 18.7878 12.3203 18.0997 12.6003L19.2117 15.0003L18.0917 15.0003L17.0997 12.8163L15.8437 12.8163L15.8437 15.0003ZM15.8438 10.0643L15.8438 11.9123L17.0518 11.9123C17.6998 11.9123 18.0838 11.5683 18.0838 10.9763C18.0838 10.3923 17.6998 10.0643 17.0518 10.0643L15.8438 10.0643Z" fill="white"/>
</svg>
