<svg width="24" height="24" viewBox="0 0 24 24" fill="none" xmlns="http://www.w3.org/2000/svg">
<path d="M23.6408 14.9029C22.0379 21.3315 15.5261 25.2438 9.09602 23.6407C2.66859 22.038 -1.24421 15.5266 0.359461 9.09838C1.96163 2.66907 8.47346 -1.24364 14.9016 0.359095C21.3313 1.96183 25.2437 8.47401 23.6408 14.9029Z" fill="#1275E9"/>
<path d="M4.65582 15L3.64782 15L3.64794 9.15201L4.66394 9.15203L7.40786 13.2961L7.40794 9.15209L8.41594 9.15211L8.41582 15.0001L7.40782 15.0001L4.65591 10.856L4.65582 15ZM13.5183 15.0002L9.31032 15.0001L9.31034 14.0481L12.1984 10.0962L9.37442 10.0961L9.37444 9.15212L13.4704 9.1522L13.4704 10.0642L10.5583 14.0561L13.5183 14.0562L13.5183 15.0002ZM16.5174 15.0003L14.4134 15.0002L14.4136 9.15222L16.4616 9.15226C18.1896 9.1523 19.3815 10.3443 19.3815 12.0883C19.3815 13.8083 18.2134 15.0003 16.5174 15.0003ZM16.3655 10.0963L15.4375 10.0962L15.4375 14.0562L16.4215 14.0563C17.5895 14.0563 18.3015 13.3043 18.3015 12.0883C18.3015 10.8483 17.5735 10.0963 16.3655 10.0963Z" fill="white"/>
</svg>
