<svg width="24" height="24" viewBox="0 0 24 24" fill="none" xmlns="http://www.w3.org/2000/svg">
<path d="M23.6408 14.9029C22.0379 21.3315 15.5261 25.2438 9.09602 23.6407C2.66859 22.038 -1.24421 15.5266 0.359461 9.09838C1.96163 2.66907 8.47346 -1.24364 14.9016 0.359095C21.3313 1.96183 25.2437 8.47401 23.6408 14.9029Z" fill="#1275E9"/>
<path d="M7.98388 12.0721C7.98385 13.8481 6.81582 15.0961 5.13582 15.0961C3.46382 15.096 2.31185 13.856 2.31188 12.072C2.31192 10.296 3.47194 9.04803 5.14394 9.04806C6.81594 9.04809 7.98392 10.2881 7.98388 12.0721ZM6.90388 12.0721C6.90391 10.8241 6.21592 10.0321 5.14392 10.0321C4.07192 10.032 3.38391 10.824 3.38388 12.072C3.38386 13.32 4.07184 14.112 5.14384 14.1121C6.21584 14.1121 6.90386 13.3041 6.90388 12.0721ZM9.92889 15.0002L8.93689 15.0001L8.937 9.15214L9.929 9.15215L11.8169 13.8082L13.705 9.15223L14.713 9.15225L14.7129 15.0002L13.7209 15.0002L13.7209 13.2002C13.7209 12.0242 13.721 11.6802 13.777 11.2642L12.2889 15.0002L11.3449 15.0002L9.86496 11.2722C9.92095 11.6242 9.92894 12.1762 9.92893 12.9042L9.92889 15.0002ZM17.0312 15.0003L16.0072 15.0003L16.0073 9.15227L18.2393 9.15232C19.5673 9.15234 20.3433 9.82436 20.3433 10.9764C20.3433 11.7604 19.9753 12.3204 19.2872 12.6003L20.3992 15.0004L19.2792 15.0003L18.2872 12.8163L17.0312 12.8163L17.0312 15.0003ZM17.0313 10.0643L17.0313 11.9123L18.2393 11.9123C18.8873 11.9123 19.2713 11.5683 19.2713 10.9763C19.2713 10.3923 18.8873 10.0643 18.2393 10.0643L17.0313 10.0643Z" fill="white"/>
</svg>
