<svg width="24" height="24" viewBox="0 0 24 24" fill="none" xmlns="http://www.w3.org/2000/svg">
<path d="M23.6408 14.9029C22.0379 21.3315 15.5261 25.2438 9.09602 23.6407C2.66859 22.038 -1.24421 15.5266 0.359461 9.09838C1.96163 2.66907 8.47346 -1.24364 14.9016 0.359095C21.3313 1.96183 25.2437 8.47401 23.6408 14.9029Z" fill="#1275E9"/>
<path d="M6.95986 12.9841L5.67186 12.984L5.67182 15L4.64782 15L4.64794 9.15201L6.95994 9.15206C8.13594 9.15208 8.89592 9.9201 8.8959 11.0641C8.89588 12.1921 8.12786 12.9841 6.95986 12.9841ZM6.75992 10.0641L5.67192 10.064L5.67188 12.072L6.74388 12.0721C7.44788 12.0721 7.82389 11.6961 7.8239 11.0561C7.82391 10.4161 7.43992 10.0641 6.75992 10.0641ZM12.3173 10.0162C11.1573 10.0161 10.4933 10.8561 10.4933 12.1201C10.4932 13.4241 11.2452 14.1361 12.3252 14.1362C13.3412 14.1362 13.9572 13.5762 13.9572 12.6402L13.9572 12.6162L12.1892 12.6162L12.1893 11.7122L14.9093 11.7122L14.9092 15.0002L14.0452 15.0002L13.9812 14.3282C13.6612 14.7762 12.9972 15.0882 12.2052 15.0882C10.5652 15.0881 9.42122 13.8961 9.42126 12.0961C9.42129 10.3201 10.5813 9.05613 12.3413 9.05616C13.6773 9.05619 14.7093 9.83221 14.8773 11.0242L13.7973 11.0242C13.6133 10.3362 13.0213 10.0162 12.3173 10.0162ZM17.0391 9.15225L17.0391 12.2243L19.4071 9.1523L20.6151 9.15232L18.6791 11.6483L20.639 15.0003L19.455 15.0003L18.0071 12.5123L17.039 13.7523L17.039 15.0003L16.015 15.0002L16.0151 9.15223L17.0391 9.15225Z" fill="white"/>
</svg>
