<svg width="24" height="24" viewBox="0 0 24 24" fill="none" xmlns="http://www.w3.org/2000/svg">
<path d="M23.6408 14.9029C22.0379 21.3315 15.5261 25.2438 9.09602 23.6407C2.66859 22.038 -1.24421 15.5266 0.359461 9.09838C1.96163 2.66907 8.47346 -1.24364 14.9016 0.359095C21.3313 1.96183 25.2437 8.47401 23.6408 14.9029Z" fill="#1275E9"/>
<path d="M5.95986 12.9841L4.67186 12.984L4.67182 15L3.64782 15L3.64794 9.15201L5.95994 9.15206C7.13594 9.15208 7.89592 9.9201 7.8959 11.0641C7.89588 12.1921 7.12786 12.9841 5.95986 12.9841ZM5.75992 10.0641L4.67192 10.064L4.67188 12.072L5.74388 12.0721C6.44788 12.0721 6.82389 11.6961 6.8239 11.0561C6.82391 10.4161 6.43992 10.0641 5.75992 10.0641ZM9.7812 15.0001L8.7572 15.0001L8.75731 9.15211L9.78131 9.15213L9.78127 11.5681L12.3733 11.5682L12.3733 9.15218L13.3973 9.1522L13.3972 15.0002L12.3732 15.0002L12.3732 12.5202L9.78125 12.5201L9.7812 15.0001ZM17.0067 12.9843L15.7187 12.9842L15.7187 15.0002L14.6947 15.0002L14.6948 9.15223L17.0068 9.15227C18.1828 9.1523 18.9428 9.92031 18.9428 11.0643C18.9428 12.1923 18.1747 12.9843 17.0067 12.9843ZM16.8068 10.0643L15.7188 10.0642L15.7188 12.0722L16.7908 12.0723C17.4948 12.0723 17.8708 11.6963 17.8708 11.0563C17.8708 10.4163 17.4868 10.0643 16.8068 10.0643Z" fill="white"/>
</svg>
