<svg width="24" height="24" viewBox="0 0 24 24" fill="none" xmlns="http://www.w3.org/2000/svg">
<path d="M23.6408 14.9029C22.0379 21.3315 15.5261 25.2438 9.09602 23.6407C2.66859 22.038 -1.24421 15.5266 0.359461 9.09838C1.96163 2.66907 8.47346 -1.24364 14.9016 0.359095C21.3313 1.96183 25.2437 8.47401 23.6408 14.9029Z" fill="#1275E9"/>
<path d="M6.95986 12.9841L5.67186 12.984L5.67182 15L4.64782 15L4.64794 9.15201L6.95994 9.15206C8.13594 9.15208 8.89592 9.9201 8.8959 11.0641C8.89588 12.1921 8.12786 12.9841 6.95986 12.9841ZM6.75992 10.0641L5.67192 10.064L5.67188 12.072L6.74388 12.0721C7.44788 12.0721 7.82389 11.6961 7.8239 11.0561C7.82391 10.4161 7.43992 10.0641 6.75992 10.0641ZM10.7813 9.15213L10.7813 12.2241L13.1493 9.15218L14.3573 9.1522L12.4213 11.6482L14.3812 15.0002L13.1972 15.0002L11.7492 12.5122L10.7812 13.7521L10.7812 15.0001L9.7572 15.0001L9.75731 9.15211L10.7813 9.15213ZM16.1718 15.0002L15.1478 15.0002L15.1479 9.15222L17.3799 9.15226C18.7079 9.15229 19.4839 9.8243 19.4839 10.9763C19.4839 11.7603 19.1159 12.3203 18.4279 12.6003L19.5398 15.0003L18.4198 15.0003L17.4279 12.8163L16.1719 12.8162L16.1718 15.0002ZM16.1719 10.0642L16.1719 11.9122L17.3799 11.9123C18.0279 11.9123 18.4119 11.5683 18.4119 10.9763C18.4119 10.3923 18.0279 10.0643 17.3799 10.0643L16.1719 10.0642Z" fill="white"/>
</svg>
