<svg width="24" height="24" viewBox="0 0 24 24" fill="none" xmlns="http://www.w3.org/2000/svg">
<path d="M23.6408 14.9029C22.0379 21.3315 15.5261 25.2438 9.09602 23.6407C2.66859 22.038 -1.24421 15.5266 0.359461 9.09838C1.96163 2.66907 8.47346 -1.24364 14.9016 0.359095C21.3313 1.96183 25.2437 8.47401 23.6408 14.9029Z" fill="#1275E9"/>
<path d="M6.95986 12.9841L5.67186 12.984L5.67182 15L4.64782 15L4.64794 9.15201L6.95994 9.15206C8.13594 9.15208 8.89592 9.9201 8.8959 11.0641C8.89588 12.1921 8.12786 12.9841 6.95986 12.9841ZM6.75992 10.0641L5.67192 10.064L5.67188 12.072L6.74388 12.0721C7.44788 12.0721 7.82389 11.6961 7.8239 11.0561C7.82391 10.4161 7.43992 10.0641 6.75992 10.0641ZM10.7813 9.15213L10.7812 14.0561L13.2292 14.0562L13.2292 15.0002L9.7572 15.0001L9.75731 9.15211L10.7813 9.15213ZM15.0699 15.0002L14.0619 15.0002L14.062 9.1522L15.078 9.15222L17.8219 13.2963L17.822 9.15227L18.83 9.15229L18.8299 15.0003L17.8219 15.0003L15.07 10.8562L15.0699 15.0002Z" fill="white"/>
</svg>
