<svg width="24" height="24" viewBox="0 0 24 24" fill="none" xmlns="http://www.w3.org/2000/svg">
<path d="M23.6408 14.9029C22.0379 21.3315 15.5261 25.2438 9.09602 23.6407C2.66859 22.038 -1.24421 15.5266 0.359461 9.09838C1.96163 2.66907 8.47346 -1.24364 14.9016 0.359095C21.3313 1.96183 25.2437 8.47401 23.6408 14.9029Z" fill="#1275E9"/>
<path d="M5.95986 12.9841L4.67186 12.984L4.67182 15L3.64782 15L3.64794 9.15201L5.95994 9.15206C7.13594 9.15208 7.89592 9.9201 7.8959 11.0641C7.89588 12.1921 7.12786 12.9841 5.95986 12.9841ZM5.75992 10.0641L4.67192 10.064L4.67188 12.072L5.74388 12.0721C6.44788 12.0721 6.82389 11.6961 6.8239 11.0561C6.82391 10.4161 6.43992 10.0641 5.75992 10.0641ZM10.1652 12.6961L8.18931 9.1521L9.33331 9.15212L10.4853 11.2801C10.5733 11.4401 10.6293 11.5681 10.6933 11.7121C10.7653 11.5682 10.7973 11.4722 10.9013 11.2802L12.0453 9.15218L13.1573 9.1522L11.1892 12.6962L11.1892 15.0002L10.1652 15.0001L10.1652 12.6961ZM15.997 10.0163C14.837 10.0162 14.173 10.8562 14.1729 12.1202C14.1729 13.4242 14.9249 14.1362 16.0049 14.1363C17.0209 14.1363 17.6369 13.5763 17.6369 12.6403L17.6369 12.6163L15.8689 12.6163L15.869 11.7123L18.589 11.7123L18.5889 15.0003L17.7249 15.0003L17.6609 14.3283C17.3409 14.7763 16.6769 15.0883 15.8849 15.0883C14.2449 15.0882 13.1009 13.8962 13.1009 12.0962C13.101 10.3202 14.261 9.05622 16.021 9.05625C17.357 9.05628 18.389 9.8323 18.557 11.0243L17.477 11.0243C17.293 10.3363 16.701 10.0163 15.997 10.0163Z" fill="white"/>
</svg>
