<svg width="24" height="24" viewBox="0 0 24 24" fill="none" xmlns="http://www.w3.org/2000/svg">
<path d="M23.6408 14.9029C22.0379 21.3315 15.5261 25.2438 9.09602 23.6407C2.66859 22.038 -1.24421 15.5266 0.359461 9.09838C1.96163 2.66907 8.47346 -1.24364 14.9016 0.359095C21.3313 1.96183 25.2437 8.47401 23.6408 14.9029Z" fill="#1275E9"/>
<path d="M8.23982 15.4401L7.59983 14.7201C7.18383 14.9601 6.68782 15.0961 6.13582 15.0961C4.46382 15.096 3.31185 13.856 3.31188 12.072C3.31192 10.296 4.47194 9.04803 6.14394 9.04806C7.81594 9.04809 8.98392 10.2881 8.98388 12.0721C8.98387 12.9121 8.72785 13.6321 8.27184 14.1601L8.89583 14.8561L8.23982 15.4401ZM7.90388 12.0721C7.90391 10.8241 7.21592 10.0321 6.14392 10.0321C5.07192 10.032 4.38391 10.824 4.38388 12.072C4.38386 13.32 5.07184 14.112 6.14384 14.1121C6.43184 14.1121 6.68784 14.0561 6.91985 13.9441L6.14386 13.0721L6.79187 12.4881L7.56786 13.3601C7.78386 13.0241 7.90387 12.5841 7.90388 12.0721ZM10.3003 15.0001L9.23626 15.0001L11.3484 9.15216L12.3964 9.15218L14.5083 15.0002L13.4283 15.0002L12.9563 13.6482L10.7723 13.6482L10.3003 15.0001ZM11.7403 10.8962L11.0763 12.7842L12.6603 12.7842L11.9883 10.8962C11.9403 10.7442 11.8843 10.5682 11.8684 10.4482C11.8443 10.5602 11.7963 10.7362 11.7403 10.8962ZM16.2656 15.0003L15.2416 15.0002L15.2417 9.15224L17.4737 9.15228C18.8017 9.15231 19.5777 9.82432 19.5777 10.9763C19.5776 11.7603 19.2096 12.3203 18.5216 12.6003L19.6336 15.0003L18.5136 15.0003L17.5216 12.8163L16.2656 12.8163L16.2656 15.0003ZM16.2657 10.0643L16.2656 11.9123L17.4736 11.9123C18.1216 11.9123 18.5056 11.5683 18.5057 10.9763C18.5057 10.3923 18.1217 10.0643 17.4737 10.0643L16.2657 10.0643Z" fill="white"/>
</svg>
