<svg width="24" height="24" viewBox="0 0 24 24" fill="none" xmlns="http://www.w3.org/2000/svg">
<path d="M23.6408 14.9029C22.0379 21.3315 15.5261 25.2438 9.09602 23.6407C2.66859 22.038 -1.24421 15.5266 0.359461 9.09838C1.96163 2.66907 8.47346 -1.24364 14.9016 0.359095C21.3313 1.96183 25.2437 8.47401 23.6408 14.9029Z" fill="#1275E9"/>
<path d="M4.67182 15L3.64782 15L3.64794 9.15201L5.87994 9.15206C7.20794 9.15208 7.98393 9.8241 7.9839 10.9761C7.98389 11.7601 7.61588 12.3201 6.92787 12.6001L8.03982 15.0001L6.91982 15.0001L5.92787 12.8161L4.67187 12.816L4.67182 15ZM4.67192 10.064L4.67188 11.912L5.87988 11.9121C6.52788 11.9121 6.91189 11.5681 6.9119 10.9761C6.91191 10.3921 6.52792 10.0641 5.87992 10.0641L4.67192 10.064ZM14.3276 12.0722C14.3276 13.8482 13.1596 15.0962 11.4796 15.0962C9.80757 15.0961 8.6556 13.8561 8.65563 12.0721C8.65567 10.2961 9.81569 9.04813 11.4877 9.04817C13.1597 9.0482 14.3277 10.2882 14.3276 12.0722ZM13.2476 12.0722C13.2477 10.8242 12.5597 10.0322 11.4877 10.0322C10.4157 10.0321 9.72766 10.8241 9.72763 12.0721C9.72761 13.3201 10.4156 14.1121 11.4876 14.1122C12.5596 14.1122 13.2476 13.3042 13.2476 12.0722ZM16.2886 15.0003L15.2806 15.0002L15.2808 9.15224L16.2968 9.15226L19.0407 13.2963L19.0408 9.15231L20.0488 9.15233L20.0486 15.0003L19.0406 15.0003L16.2887 10.8563L16.2886 15.0003Z" fill="white"/>
</svg>
