<svg width="24" height="24" viewBox="0 0 24 24" fill="none" xmlns="http://www.w3.org/2000/svg">
<path d="M23.6408 14.9029C22.0379 21.3315 15.5261 25.2438 9.09602 23.6407C2.66859 22.038 -1.24421 15.5266 0.359461 9.09838C1.96163 2.66907 8.47346 -1.24364 14.9016 0.359095C21.3313 1.96183 25.2437 8.47401 23.6408 14.9029Z" fill="#1275E9"/>
<path d="M4.67182 15L3.64782 15L3.64794 9.15201L5.87994 9.15206C7.20794 9.15208 7.98393 9.8241 7.9839 10.9761C7.98389 11.7601 7.61588 12.3201 6.92787 12.6001L8.03982 15.0001L6.91982 15.0001L5.92787 12.8161L4.67187 12.816L4.67182 15ZM4.67192 10.064L4.67188 11.912L5.87988 11.9121C6.52788 11.9121 6.91189 11.5681 6.9119 10.9761C6.91191 10.3921 6.52792 10.0641 5.87992 10.0641L4.67192 10.064ZM8.67128 10.7841C8.6713 9.76011 9.51932 9.04813 10.7513 9.04815C11.9353 9.04817 12.6873 9.70419 12.7193 10.7602L11.6953 10.7602C11.6713 10.2562 11.3113 9.96016 10.7353 9.96015C10.1033 9.96014 9.69529 10.2641 9.69528 10.7521C9.69527 11.1681 9.91927 11.4001 10.4073 11.5121L11.3273 11.7122C12.3273 11.9282 12.8152 12.4402 12.8152 13.3122C12.8152 14.4002 11.9672 15.1042 10.6792 15.1041C9.4312 15.1041 8.61521 14.4401 8.59123 13.3921L9.61523 13.3921C9.62322 13.8881 10.0232 14.1841 10.6792 14.1841C11.3592 14.1842 11.7912 13.8882 11.7912 13.4002C11.7912 13.0082 11.5912 12.7762 11.1112 12.6722L10.1832 12.4641C9.19125 12.2481 8.67126 11.6801 8.67128 10.7841ZM15.8456 15.0003L13.7416 15.0002L13.7417 9.15221L15.7897 9.15225C17.5177 9.15228 18.7097 10.3443 18.7096 12.0883C18.7096 13.8083 17.5416 15.0003 15.8456 15.0003ZM15.6937 10.0962L14.7657 10.0962L14.7656 14.0562L15.7496 14.0562C16.9176 14.0563 17.6296 13.3043 17.6296 12.0883C17.6297 10.8483 16.9017 10.0963 15.6937 10.0962Z" fill="white"/>
</svg>
