<svg width="24" height="24" viewBox="0 0 24 24" fill="none" xmlns="http://www.w3.org/2000/svg">
<path d="M23.6408 14.9029C22.0379 21.3315 15.5261 25.2438 9.09602 23.6407C2.66859 22.038 -1.24421 15.5266 0.359461 9.09838C1.96163 2.66907 8.47346 -1.24364 14.9016 0.359095C21.3313 1.96183 25.2437 8.47401 23.6408 14.9029Z" fill="#1275E9"/>
<path d="M4.67182 15L3.64782 15L3.64794 9.15201L5.87994 9.15206C7.20794 9.15208 7.98393 9.8241 7.9839 10.9761C7.98389 11.7601 7.61588 12.3201 6.92787 12.6001L8.03982 15.0001L6.91982 15.0001L5.92787 12.8161L4.67187 12.816L4.67182 15ZM4.67192 10.064L4.67188 11.912L5.87988 11.9121C6.52788 11.9121 6.91189 11.5681 6.9119 10.9761C6.91191 10.3921 6.52792 10.0641 5.87992 10.0641L4.67192 10.064ZM8.95162 12.8641L8.95169 9.15212L9.97569 9.15214L9.97562 12.8001C9.9756 13.6401 10.4316 14.1041 11.2636 14.1042C12.0956 14.1042 12.5596 13.6322 12.5596 12.8002L12.5597 9.15219L13.5837 9.15221L13.5836 12.8642C13.5836 14.2322 12.6876 15.0962 11.2636 15.0962C9.84757 15.0961 8.95159 14.2401 8.95162 12.8641ZM14.8431 15.0002L14.8433 9.15223L17.1713 9.15228C18.3233 9.1523 19.0272 9.75231 19.0272 10.7283C19.0272 11.3763 18.7392 11.8403 18.1872 12.0723C18.8032 12.2723 19.1152 12.7363 19.1152 13.4163C19.1151 14.4163 18.4191 15.0003 17.2111 15.0003L14.8431 15.0002ZM17.0832 10.0563L15.8672 10.0563L15.8672 11.6483L17.1072 11.6483C17.6672 11.6483 17.9792 11.3523 17.9792 10.8323C17.9792 10.3283 17.6592 10.0563 17.0832 10.0563ZM17.1712 12.5123L15.8672 12.5123L15.8672 14.0963L17.1712 14.0963C17.7472 14.0963 18.0672 13.8163 18.0672 13.2883C18.0672 12.7923 17.7392 12.5123 17.1712 12.5123Z" fill="white"/>
</svg>
