<svg width="24" height="24" viewBox="0 0 24 24" fill="none" xmlns="http://www.w3.org/2000/svg">
<path d="M23.6408 14.9029C22.0379 21.3315 15.5261 25.2438 9.09602 23.6407C2.66859 22.038 -1.24421 15.5266 0.359461 9.09838C1.96163 2.66907 8.47346 -1.24364 14.9016 0.359095C21.3313 1.96183 25.2437 8.47401 23.6408 14.9029Z" fill="#1275E9"/>
<path d="M3.67182 15L2.64782 15L2.64794 9.15201L4.87994 9.15206C6.20794 9.15208 6.98393 9.8241 6.9839 10.9761C6.98389 11.7601 6.61588 12.3201 5.92787 12.6001L7.03982 15.0001L5.91982 15.0001L4.92787 12.8161L3.67187 12.816L3.67182 15ZM3.67192 10.064L3.67188 11.912L4.87988 11.9121C5.52788 11.9121 5.91189 11.5681 5.9119 10.9761C5.91191 10.3921 5.52792 10.0641 4.87992 10.0641L3.67192 10.064ZM9.19195 15.0001L7.44806 9.15211L8.51206 9.15213L9.44 12.2401C9.528 12.5601 9.61599 12.8881 9.70398 13.4002C9.79999 12.8802 9.888 12.5762 9.992 12.2402L10.9121 9.15217L12.0401 9.1522L12.944 12.2402C13.04 12.5682 13.128 12.9042 13.224 13.4002C13.336 12.8562 13.416 12.5442 13.504 12.2482L14.4481 9.15224L15.4881 9.15226L13.7119 15.0002L12.7199 15.0002L11.472 10.7442L10.1999 15.0002L9.19195 15.0001ZM19.4572 12.6083L17.2812 12.6083L17.2812 15.0003L16.2572 15.0003L16.2573 9.15228L19.8733 9.15235L19.8733 10.0963L17.2813 10.0963L17.2813 11.6883L19.4573 11.6883L19.4572 12.6083Z" fill="white"/>
</svg>
