<svg width="24" height="24" viewBox="0 0 24 24" fill="none" xmlns="http://www.w3.org/2000/svg">
<path d="M23.6408 14.9029C22.0379 21.3315 15.5261 25.2438 9.09602 23.6407C2.66859 22.038 -1.24421 15.5266 0.359461 9.09838C1.96163 2.66907 8.47346 -1.24364 14.9016 0.359095C21.3313 1.96183 25.2437 8.47401 23.6408 14.9029Z" fill="#1275E9"/>
<path d="M4.31191 10.784C4.31193 9.76001 5.15994 9.04802 6.39194 9.04805C7.57594 9.04807 8.32793 9.70408 8.35991 10.7601L7.33591 10.7601C7.31192 10.2561 6.95192 9.96006 6.37592 9.96005C5.74392 9.96003 5.33592 10.264 5.33591 10.752C5.3359 11.168 5.55989 11.4 6.04789 11.512L6.96789 11.7121C7.96788 11.9281 8.45587 12.4401 8.45586 13.3121C8.45584 14.4001 7.60782 15.1041 6.31982 15.104C5.07182 15.104 4.25584 14.44 4.23186 13.392L5.25586 13.392C5.26385 13.888 5.66384 14.184 6.31984 14.184C6.99984 14.1841 7.43185 13.8881 7.43186 13.4001C7.43186 13.0081 7.23187 12.7761 6.75187 12.6721L5.82387 12.464C4.83188 12.248 4.31189 11.68 4.31191 10.784ZM9.8862 15.0001L8.8222 15.0001L10.9343 9.15214L11.9823 9.15216L14.0942 15.0002L13.0142 15.0002L12.5422 13.6482L10.3582 13.6481L9.8862 15.0001ZM11.3263 10.8961L10.6622 12.7841L12.2462 12.7842L11.5743 10.8961C11.5263 10.7441 11.4703 10.5681 11.4543 10.4481C11.4303 10.5601 11.3823 10.7361 11.3263 10.8961ZM15.8515 15.0002L14.8275 15.0002L14.8276 9.15221L17.0596 9.15225C18.3876 9.15228 19.1636 9.8243 19.1636 10.9763C19.1636 11.7603 18.7956 12.3203 18.1076 12.6003L19.2195 15.0003L18.0995 15.0003L17.1076 12.8163L15.8516 12.8162L15.8515 15.0002ZM15.8516 10.0642L15.8516 11.9122L17.0596 11.9123C17.7076 11.9123 18.0916 11.5683 18.0916 10.9763C18.0916 10.3923 17.7076 10.0643 17.0596 10.0643L15.8516 10.0642Z" fill="white"/>
</svg>
