<svg width="24" height="24" viewBox="0 0 24 24" fill="none" xmlns="http://www.w3.org/2000/svg">
<path d="M23.6408 14.9029C22.0379 21.3315 15.5261 25.2438 9.09602 23.6407C2.66859 22.038 -1.24421 15.5266 0.359461 9.09838C1.96163 2.66907 8.47346 -1.24364 14.9016 0.359095C21.3313 1.96183 25.2437 8.47401 23.6408 14.9029Z" fill="#1275E9"/>
<path d="M4.31191 10.784C4.31193 9.76001 5.15994 9.04802 6.39194 9.04805C7.57594 9.04807 8.32793 9.70408 8.35991 10.7601L7.33591 10.7601C7.31192 10.2561 6.95192 9.96006 6.37592 9.96005C5.74392 9.96003 5.33592 10.264 5.33591 10.752C5.3359 11.168 5.55989 11.4 6.04789 11.512L6.96789 11.7121C7.96788 11.9281 8.45587 12.4401 8.45586 13.3121C8.45584 14.4001 7.60782 15.1041 6.31982 15.104C5.07182 15.104 4.25584 14.44 4.23186 13.392L5.25586 13.392C5.26385 13.888 5.66384 14.184 6.31984 14.184C6.99984 14.1841 7.43185 13.8881 7.43186 13.4001C7.43186 13.0081 7.23187 12.7761 6.75187 12.6721L5.82387 12.464C4.83188 12.248 4.31189 11.68 4.31191 10.784ZM9.3822 15.0001L9.38231 9.1521L11.7103 9.15215C12.8623 9.15217 13.5663 9.75219 13.5663 10.7282C13.5663 11.3762 13.2783 11.8402 12.7263 12.0722C13.3423 12.2722 13.6542 12.7362 13.6542 13.4162C13.6542 14.4162 12.9582 15.0002 11.7502 15.0002L9.3822 15.0001ZM11.6223 10.0561L10.4063 10.0561L10.4063 11.6481L11.6463 11.6481C12.2063 11.6482 12.5183 11.3522 12.5183 10.8322C12.5183 10.3282 12.1983 10.0562 11.6223 10.0561ZM11.7102 12.5122L10.4062 12.5121L10.4062 14.0961L11.7102 14.0962C12.2862 14.0962 12.6062 13.8162 12.6062 13.2882C12.6062 12.7922 12.2782 12.5122 11.7102 12.5122ZM16.6971 15.0002L14.5931 15.0002L14.5933 9.15221L16.6413 9.15225C18.3693 9.15228 19.5612 10.3443 19.5612 12.0883C19.5612 13.8083 18.3931 15.0003 16.6971 15.0002ZM16.5452 10.0962L15.6172 10.0962L15.6172 14.0562L16.6012 14.0562C17.7692 14.0563 18.4812 13.3043 18.4812 12.0883C18.4812 10.8483 17.7532 10.0963 16.5452 10.0962Z" fill="white"/>
</svg>
