<svg width="24" height="24" viewBox="0 0 24 24" fill="none" xmlns="http://www.w3.org/2000/svg">
<path d="M23.6408 14.9029C22.0379 21.3315 15.5261 25.2438 9.09602 23.6407C2.66859 22.038 -1.24421 15.5266 0.359461 9.09838C1.96163 2.66907 8.47346 -1.24364 14.9016 0.359095C21.3313 1.96183 25.2437 8.47401 23.6408 14.9029Z" fill="#1275E9"/>
<path d="M3.31191 10.784C3.31193 9.76001 4.15994 9.04802 5.39194 9.04805C6.57594 9.04807 7.32793 9.70408 7.35991 10.7601L6.33591 10.7601C6.31192 10.2561 5.95192 9.96006 5.37592 9.96005C4.74392 9.96003 4.33592 10.264 4.33591 10.752C4.3359 11.168 4.55989 11.4 5.04789 11.512L5.96789 11.7121C6.96788 11.9281 7.45587 12.4401 7.45586 13.3121C7.45584 14.4001 6.60782 15.1041 5.31982 15.104C4.07182 15.104 3.25584 14.44 3.23186 13.392L4.25586 13.392C4.26385 13.888 4.66384 14.184 5.31984 14.184C5.99984 14.1841 6.43185 13.8881 6.43186 13.4001C6.43186 13.0081 6.23187 12.7761 5.75187 12.6721L4.82387 12.464C3.83188 12.248 3.31189 11.68 3.31191 10.784ZM10.8542 15.0962C9.1502 15.0961 8.04622 13.9121 8.04626 12.0801C8.04629 10.2641 9.19032 9.05612 10.9023 9.05615C12.2863 9.05618 13.3183 9.8642 13.5183 11.1202L12.4383 11.1202C12.2383 10.4402 11.6543 10.0402 10.8783 10.0402C9.7983 10.0401 9.11828 10.8241 9.11826 12.0721C9.11823 13.3121 9.80622 14.1121 10.8782 14.1122C11.6702 14.1122 12.2782 13.6962 12.4702 13.0482L13.5342 13.0482C13.3102 14.2802 12.2382 15.0962 10.8542 15.0962ZM15.4765 15.0002L14.4525 15.0002L14.4526 9.15222L16.6846 9.15227C18.0126 9.15229 18.7886 9.82431 18.7886 10.9763C18.7886 11.7603 18.4206 12.3203 17.7326 12.6003L18.8445 15.0003L17.7245 15.0003L16.7326 12.8163L15.4766 12.8162L15.4765 15.0002ZM15.4766 10.0642L15.4766 11.9122L16.6846 11.9123C17.3326 11.9123 17.7166 11.5683 17.7166 10.9763C17.7166 10.3923 17.3326 10.0643 16.6846 10.0643L15.4766 10.0642Z" fill="white"/>
</svg>
