<svg width="24" height="24" viewBox="0 0 24 24" fill="none" xmlns="http://www.w3.org/2000/svg">
<path d="M23.6408 14.9029C22.0379 21.3315 15.5261 25.2438 9.09602 23.6407C2.66859 22.038 -1.24421 15.5266 0.359461 9.09838C1.96163 2.66907 8.47346 -1.24364 14.9016 0.359095C21.3313 1.96183 25.2437 8.47401 23.6408 14.9029Z" fill="#1275E9"/>
<path d="M3.31191 10.784C3.31193 9.76001 4.15994 9.04802 5.39194 9.04805C6.57594 9.04807 7.32793 9.70408 7.35991 10.7601L6.33591 10.7601C6.31192 10.2561 5.95192 9.96006 5.37592 9.96005C4.74392 9.96003 4.33592 10.264 4.33591 10.752C4.3359 11.168 4.55989 11.4 5.04789 11.512L5.96789 11.7121C6.96788 11.9281 7.45587 12.4401 7.45586 13.3121C7.45584 14.4001 6.60782 15.1041 5.31982 15.104C4.07182 15.104 3.25584 14.44 3.23186 13.392L4.25586 13.392C4.26385 13.888 4.66384 14.184 5.31984 14.184C5.99984 14.1841 6.43185 13.8881 6.43186 13.4001C6.43186 13.0081 6.23187 12.7761 5.75187 12.6721L4.82387 12.464C3.83188 12.248 3.31189 11.68 3.31191 10.784ZM10.4862 15.0001L8.3822 15.0001L8.38231 9.1521L10.4303 9.15214C12.1583 9.15218 13.3503 10.3442 13.3503 12.0882C13.3502 13.8082 12.1822 15.0002 10.4862 15.0001ZM10.3343 10.0961L9.4063 10.0961L9.40622 14.0561L10.3902 14.0561C11.5582 14.0562 12.2702 13.3042 12.2703 12.0882C12.2703 10.8482 11.5423 10.0962 10.3343 10.0961ZM16.8642 10.0163C15.7042 10.0162 15.0402 10.8562 15.0401 12.1202C15.0401 13.4242 15.7921 14.1362 16.8721 14.1363C17.8881 14.1363 18.5041 13.5763 18.5041 12.6403L18.5041 12.6163L16.7361 12.6163L16.7361 11.7123L19.4561 11.7123L19.4561 15.0003L18.5921 15.0003L18.5281 14.3283C18.2081 14.7763 17.5441 15.0883 16.7521 15.0883C15.1121 15.0882 13.9681 13.8962 13.9681 12.0962C13.9682 10.3202 15.1282 9.05624 16.8882 9.05627C18.2242 9.0563 19.2562 9.83232 19.4242 11.0243L18.3442 11.0243C18.1602 10.3363 17.5682 10.0163 16.8642 10.0163Z" fill="white"/>
</svg>
