<svg width="24" height="24" viewBox="0 0 24 24" fill="none" xmlns="http://www.w3.org/2000/svg">
<path d="M23.6408 14.9029C22.0379 21.3315 15.5261 25.2438 9.09602 23.6407C2.66859 22.038 -1.24421 15.5266 0.359461 9.09838C1.96163 2.66907 8.47346 -1.24364 14.9016 0.359095C21.3313 1.96183 25.2437 8.47401 23.6408 14.9029Z" fill="#1275E9"/>
<path d="M3.31191 10.784C3.31193 9.76001 4.15994 9.04802 5.39194 9.04805C6.57594 9.04807 7.32793 9.70408 7.35991 10.7601L6.33591 10.7601C6.31192 10.2561 5.95192 9.96006 5.37592 9.96005C4.74392 9.96003 4.33592 10.264 4.33591 10.752C4.3359 11.168 4.55989 11.4 5.04789 11.512L5.96789 11.7121C6.96788 11.9281 7.45587 12.4401 7.45586 13.3121C7.45584 14.4001 6.60782 15.1041 5.31982 15.104C4.07182 15.104 3.25584 14.44 3.23186 13.392L4.25586 13.392C4.26385 13.888 4.66384 14.184 5.31984 14.184C5.99984 14.1841 6.43185 13.8881 6.43186 13.4001C6.43186 13.0081 6.23187 12.7761 5.75187 12.6721L4.82387 12.464C3.83188 12.248 3.31189 11.68 3.31191 10.784ZM10.9423 10.0162C9.7823 10.0161 9.11828 10.8561 9.11826 12.1201C9.11823 13.4241 9.87022 14.1361 10.9502 14.1362C11.9662 14.1362 12.5822 13.5762 12.5822 12.6402L12.5822 12.6162L10.8142 12.6162L10.8143 11.7122L13.5343 11.7122L13.5342 15.0002L12.6702 15.0002L12.6062 14.3282C12.2862 14.7762 11.6222 15.0882 10.8302 15.0882C9.1902 15.0881 8.04622 13.8961 8.04626 12.0961C8.04629 10.3201 9.20632 9.05612 10.9663 9.05616C12.3023 9.05618 13.3343 9.8322 13.5023 11.0242L12.4223 11.0242C12.2383 10.3362 11.6463 10.0162 10.9423 10.0162ZM16.744 15.0003L14.64 15.0002L14.6401 9.15223L16.6881 9.15227C18.4161 9.1523 19.6081 10.3443 19.6081 12.0883C19.608 13.8083 18.44 15.0003 16.744 15.0003ZM16.5921 10.0963L15.6641 10.0962L15.664 14.0562L16.648 14.0563C17.816 14.0563 18.528 13.3043 18.5281 12.0883C18.5281 10.8483 17.8001 10.0963 16.5921 10.0963Z" fill="white"/>
</svg>
