<svg width="24" height="24" viewBox="0 0 24 24" fill="none" xmlns="http://www.w3.org/2000/svg">
<path d="M23.6408 14.9029C22.0379 21.3315 15.5261 25.2438 9.09602 23.6407C2.66859 22.038 -1.24421 15.5266 0.359461 9.09838C1.96163 2.66907 8.47346 -1.24364 14.9016 0.359095C21.3313 1.96183 25.2437 8.47401 23.6408 14.9029Z" fill="#1275E9"/>
<path d="M4.31191 10.784C4.31193 9.76001 5.15994 9.04802 6.39194 9.04805C7.57594 9.04807 8.32793 9.70408 8.35991 10.7601L7.33591 10.7601C7.31192 10.2561 6.95192 9.96006 6.37592 9.96005C5.74392 9.96003 5.33592 10.264 5.33591 10.752C5.3359 11.168 5.55989 11.4 6.04789 11.512L6.96789 11.7121C7.96788 11.9281 8.45587 12.4401 8.45586 13.3121C8.45584 14.4001 7.60782 15.1041 6.31982 15.104C5.07182 15.104 4.25584 14.44 4.23186 13.392L5.25586 13.392C5.26385 13.888 5.66384 14.184 6.31984 14.184C6.99984 14.1841 7.43185 13.8881 7.43186 13.4001C7.43186 13.0081 7.23187 12.7761 6.75187 12.6721L5.82387 12.464C4.83188 12.248 4.31189 11.68 4.31191 10.784ZM10.4062 15.0001L9.3822 15.0001L9.38231 9.1521L10.4063 9.15212L10.4063 11.5681L12.9983 11.5682L12.9983 9.15218L14.0223 9.1522L14.0222 15.0002L12.9982 15.0002L12.9982 12.5202L10.4062 12.5201L10.4062 15.0001ZM17.6317 12.9843L16.3437 12.9842L16.3437 15.0002L15.3197 15.0002L15.3198 9.15222L17.6318 9.15227C18.8078 9.15229 19.5678 9.9203 19.5678 11.0643C19.5678 12.1923 18.7997 12.9843 17.6317 12.9843ZM17.4318 10.0643L16.3438 10.0642L16.3438 12.0722L17.4158 12.0723C18.1198 12.0723 18.4958 11.6963 18.4958 11.0563C18.4958 10.4163 18.1118 10.0643 17.4318 10.0643Z" fill="white"/>
</svg>
