<svg width="24" height="24" viewBox="0 0 24 24" fill="none" xmlns="http://www.w3.org/2000/svg">
<path d="M23.6408 14.9029C22.0379 21.3315 15.5261 25.2438 9.09602 23.6407C2.66859 22.038 -1.24421 15.5266 0.359461 9.09838C1.96163 2.66907 8.47346 -1.24364 14.9016 0.359095C21.3313 1.96183 25.2437 8.47401 23.6408 14.9029Z" fill="#1275E9"/>
<path d="M5.31191 10.784C5.31193 9.76001 6.15994 9.04802 7.39194 9.04805C8.57594 9.04807 9.32793 9.70408 9.35991 10.7601L8.33591 10.7601C8.31192 10.2561 7.95192 9.96006 7.37592 9.96005C6.74392 9.96003 6.33592 10.264 6.33591 10.752C6.3359 11.168 6.55989 11.4 7.04789 11.512L7.96789 11.7121C8.96788 11.9281 9.45587 12.4401 9.45586 13.3121C9.45584 14.4001 8.60782 15.1041 7.31982 15.104C6.07182 15.104 5.25584 14.44 5.23186 13.392L6.25586 13.392C6.26385 13.888 6.66384 14.184 7.31984 14.184C7.99984 14.1841 8.43185 13.8881 8.43186 13.4001C8.43186 13.0081 8.23187 12.7761 7.75187 12.6721L6.82387 12.464C5.83188 12.248 5.31189 11.68 5.31191 10.784ZM11.4063 9.15212L11.4062 14.0561L13.8542 14.0562L13.8542 15.0002L10.3822 15.0001L10.3823 9.1521L11.4063 9.15212ZM18.3189 15.0003L14.6869 15.0002L14.687 9.15219L18.319 9.15226L18.319 10.0963L15.711 10.0962L15.711 11.6002L18.047 11.6003L18.0469 12.5043L15.7109 12.5042L15.7109 14.0562L18.3189 14.0563L18.3189 15.0003Z" fill="white"/>
</svg>
