<svg width="24" height="24" viewBox="0 0 24 24" fill="none" xmlns="http://www.w3.org/2000/svg">
<path d="M23.6408 14.9029C22.0379 21.3315 15.5261 25.2438 9.09602 23.6407C2.66859 22.038 -1.24421 15.5266 0.359461 9.09838C1.96163 2.66907 8.47346 -1.24364 14.9016 0.359095C21.3313 1.96183 25.2437 8.47401 23.6408 14.9029Z" fill="#1275E9"/>
<path d="M4.31191 10.784C4.31193 9.76001 5.15994 9.04802 6.39194 9.04805C7.57594 9.04807 8.32793 9.70408 8.35991 10.7601L7.33591 10.7601C7.31192 10.2561 6.95192 9.96006 6.37592 9.96005C5.74392 9.96003 5.33592 10.264 5.33591 10.752C5.3359 11.168 5.55989 11.4 6.04789 11.512L6.96789 11.7121C7.96788 11.9281 8.45587 12.4401 8.45586 13.3121C8.45584 14.4001 7.60782 15.1041 6.31982 15.104C5.07182 15.104 4.25584 14.44 4.23186 13.392L5.25586 13.392C5.26385 13.888 5.66384 14.184 6.31984 14.184C6.99984 14.1841 7.43185 13.8881 7.43186 13.4001C7.43186 13.0081 7.23187 12.7761 6.75187 12.6721L5.82387 12.464C4.83188 12.248 4.31189 11.68 4.31191 10.784ZM14.7183 12.0722C14.7182 13.8482 13.5502 15.0962 11.8702 15.0962C10.1982 15.0961 9.04622 13.8561 9.04626 12.0721C9.04629 10.2961 10.2063 9.04812 11.8783 9.04815C13.5503 9.04819 14.7183 10.2882 14.7183 12.0722ZM13.6383 12.0722C13.6383 10.8242 12.9503 10.0322 11.8783 10.0322C10.8063 10.0321 10.1183 10.8241 10.1183 12.0721C10.1182 13.3201 10.8062 14.1121 11.8782 14.1122C12.9502 14.1122 13.6382 13.3042 13.6383 12.0722ZM15.3353 10.7842C15.3354 9.76022 16.1834 9.04824 17.4154 9.04826C18.5994 9.04828 19.3514 9.7043 19.3833 10.7603L18.3593 10.7603C18.3354 10.2563 17.9754 9.96027 17.3994 9.96026C16.7674 9.96025 16.3594 10.2642 16.3593 10.7522C16.3593 11.1682 16.5833 11.4002 17.0713 11.5123L17.9913 11.7123C18.9913 11.9283 19.4793 12.4403 19.4793 13.3123C19.4793 14.4003 18.6313 15.1043 17.3433 15.1043C16.0953 15.1042 15.2793 14.4402 15.2553 13.3922L16.2793 13.3922C16.2873 13.8882 16.6873 14.1842 17.3433 14.1843C18.0233 14.1843 18.4553 13.8883 18.4553 13.4003C18.4553 13.0083 18.2553 12.7763 17.7753 12.6723L16.8473 12.4643C15.8553 12.2482 15.3353 11.6802 15.3353 10.7842Z" fill="white"/>
</svg>
