<svg width="24" height="24" viewBox="0 0 24 24" fill="none" xmlns="http://www.w3.org/2000/svg">
<path d="M23.6408 14.9029C22.0379 21.3315 15.5261 25.2438 9.09602 23.6407C2.66859 22.038 -1.24421 15.5266 0.359461 9.09838C1.96163 2.66907 8.47346 -1.24364 14.9016 0.359095C21.3313 1.96183 25.2437 8.47401 23.6408 14.9029Z" fill="#1275E9"/>
<path d="M3.31191 10.784C3.31193 9.76001 4.15994 9.04802 5.39194 9.04805C6.57594 9.04807 7.32793 9.70408 7.35991 10.7601L6.33591 10.7601C6.31192 10.2561 5.95192 9.96006 5.37592 9.96005C4.74392 9.96003 4.33592 10.264 4.33591 10.752C4.3359 11.168 4.55989 11.4 5.04789 11.512L5.96789 11.7121C6.96788 11.9281 7.45587 12.4401 7.45586 13.3121C7.45584 14.4001 6.60782 15.1041 5.31982 15.104C4.07182 15.104 3.25584 14.44 3.23186 13.392L4.25586 13.392C4.26385 13.888 4.66384 14.184 5.31984 14.184C5.99984 14.1841 6.43185 13.8881 6.43186 13.4001C6.43186 13.0081 6.23187 12.7761 5.75187 12.6721L4.82387 12.464C3.83188 12.248 3.31189 11.68 3.31191 10.784ZM9.4062 15.0001L8.3822 15.0001L8.38231 9.1521L10.6143 9.15215C11.9423 9.15217 12.7183 9.82419 12.7183 10.9762C12.7183 11.7602 12.3503 12.3202 11.6622 12.6002L12.7742 15.0002L11.6542 15.0002L10.6622 12.8161L9.40624 12.8161L9.4062 15.0001ZM9.4063 10.0641L9.40626 11.9121L10.6143 11.9121C11.2623 11.9122 11.6463 11.5682 11.6463 10.9762C11.6463 10.3922 11.2623 10.0642 10.6143 10.0641L9.4063 10.0641ZM15.8456 15.0003L13.7416 15.0002L13.7417 9.15221L15.7897 9.15225C17.5177 9.15228 18.7097 10.3443 18.7096 12.0883C18.7096 13.8083 17.5416 15.0003 15.8456 15.0003ZM15.6937 10.0962L14.7657 10.0962L14.7656 14.0562L15.7496 14.0562C16.9176 14.0563 17.6296 13.3043 17.6296 12.0883C17.6297 10.8483 16.9017 10.0963 15.6937 10.0962Z" fill="white"/>
</svg>
