<svg width="24" height="24" viewBox="0 0 24 24" fill="none" xmlns="http://www.w3.org/2000/svg">
<path d="M23.6408 14.9029C22.0379 21.3315 15.5261 25.2438 9.09602 23.6407C2.66859 22.038 -1.24421 15.5266 0.359461 9.09838C1.96163 2.66907 8.47346 -1.24364 14.9016 0.359095C21.3313 1.96183 25.2437 8.47401 23.6408 14.9029Z" fill="#1275E9"/>
<path d="M4.31191 10.784C4.31193 9.76001 5.15994 9.04802 6.39194 9.04805C7.57594 9.04807 8.32793 9.70408 8.35991 10.7601L7.33591 10.7601C7.31192 10.2561 6.95192 9.96006 6.37592 9.96005C5.74392 9.96003 5.33592 10.264 5.33591 10.752C5.3359 11.168 5.55989 11.4 6.04789 11.512L6.96789 11.7121C7.96788 11.9281 8.45587 12.4401 8.45586 13.3121C8.45584 14.4001 7.60782 15.1041 6.31982 15.104C5.07182 15.104 4.25584 14.44 4.23186 13.392L5.25586 13.392C5.26385 13.888 5.66384 14.184 6.31984 14.184C6.99984 14.1841 7.43185 13.8881 7.43186 13.4001C7.43186 13.0081 7.23187 12.7761 6.75187 12.6721L5.82387 12.464C4.83188 12.248 4.31189 11.68 4.31191 10.784ZM9.10097 10.7841C9.10099 9.7601 9.949 9.04812 11.181 9.04814C12.365 9.04816 13.117 9.70418 13.149 10.7602L12.125 10.7602C12.101 10.2562 11.741 9.96015 11.165 9.96014C10.533 9.96013 10.125 10.2641 10.125 10.7521C10.125 11.1681 10.349 11.4001 10.837 11.5121L11.757 11.7122C12.7569 11.9282 13.2449 12.4402 13.2449 13.3122C13.2449 14.4002 12.3969 15.1042 11.1089 15.1041C9.86088 15.1041 9.0449 14.4401 9.02092 13.3921L10.0449 13.3921C10.0529 13.8881 10.4529 14.1841 11.1089 14.1841C11.7889 14.1842 12.2209 13.8882 12.2209 13.4002C12.2209 13.0082 12.0209 12.7762 11.5409 12.6721L10.6129 12.4641C9.62094 12.2481 9.10095 11.6801 9.10097 10.7841ZM16.4833 12.9842L15.1953 12.9842L15.1953 15.0002L14.1713 15.0002L14.1714 9.1522L16.4834 9.15224C17.6594 9.15227 18.4194 9.92028 18.4193 11.0643C18.4193 12.1923 17.6513 12.9843 16.4833 12.9842ZM16.2834 10.0642L15.1954 10.0642L15.1953 12.0722L16.2673 12.0722C16.9713 12.0723 17.3473 11.6963 17.3473 11.0563C17.3474 10.4163 16.9634 10.0643 16.2834 10.0642Z" fill="white"/>
</svg>
