<svg width="24" height="24" viewBox="0 0 24 24" fill="none" xmlns="http://www.w3.org/2000/svg">
<path d="M23.6408 14.9029C22.0379 21.3315 15.5261 25.2438 9.09602 23.6407C2.66859 22.038 -1.24421 15.5266 0.359461 9.09838C1.96163 2.66907 8.47346 -1.24364 14.9016 0.359095C21.3313 1.96183 25.2437 8.47401 23.6408 14.9029Z" fill="#1275E9"/>
<path d="M4.31191 10.784C4.31193 9.76001 5.15994 9.04802 6.39194 9.04805C7.57594 9.04807 8.32793 9.70408 8.35991 10.7601L7.33591 10.7601C7.31192 10.2561 6.95192 9.96006 6.37592 9.96005C5.74392 9.96003 5.33592 10.264 5.33591 10.752C5.3359 11.168 5.55989 11.4 6.04789 11.512L6.96789 11.7121C7.96788 11.9281 8.45587 12.4401 8.45586 13.3121C8.45584 14.4001 7.60782 15.1041 6.31982 15.104C5.07182 15.104 4.25584 14.44 4.23186 13.392L5.25586 13.392C5.26385 13.888 5.66384 14.184 6.31984 14.184C6.99984 14.1841 7.43185 13.8881 7.43186 13.4001C7.43186 13.0081 7.23187 12.7761 6.75187 12.6721L5.82387 12.464C4.83188 12.248 4.31189 11.68 4.31191 10.784ZM10.634 12.6961L8.65806 9.15209L9.80206 9.15211L10.954 11.2801C11.042 11.4401 11.098 11.5681 11.162 11.7121C11.234 11.5681 11.266 11.4721 11.37 11.2801L12.5141 9.15217L13.6261 9.15219L11.658 12.6961L11.6579 15.0001L10.6339 15.0001L10.634 12.6961ZM16.663 12.9842L15.375 12.9842L15.3749 15.0002L14.3509 15.0002L14.3511 9.1522L16.6631 9.15225C17.8391 9.15227 18.599 9.92028 18.599 11.0643C18.599 12.1923 17.831 12.9843 16.663 12.9842ZM16.463 10.0642L15.375 10.0642L15.375 12.0722L16.447 12.0722C17.151 12.0723 17.527 11.6963 17.527 11.0563C17.527 10.4163 17.143 10.0643 16.463 10.0642Z" fill="white"/>
</svg>
