<svg width="24" height="24" viewBox="0 0 24 24" fill="none" xmlns="http://www.w3.org/2000/svg">
<path d="M23.6408 14.9029C22.0379 21.3315 15.5261 25.2438 9.09602 23.6407C2.66859 22.038 -1.24421 15.5266 0.359461 9.09838C1.96163 2.66907 8.47346 -1.24364 14.9016 0.359095C21.3313 1.96183 25.2437 8.47401 23.6408 14.9029Z" fill="#1275E9"/>
<path d="M4.13592 10.096L4.13594 9.152L8.58394 9.15209L8.58392 10.0961L6.87192 10.0961L6.87182 15.0001L5.84782 15L5.84792 10.096L4.13592 10.096ZM10.3906 15.0001L9.36657 15.0001L9.36669 9.1521L10.3907 9.15212L10.3906 11.5681L12.9826 11.5682L12.9827 9.15218L14.0067 9.1522L14.0066 15.0002L12.9826 15.0002L12.9826 12.5202L10.3906 12.5201L10.3906 15.0001ZM15.3041 15.0002L15.3042 9.15222L17.6322 9.15227C18.7842 9.15229 19.4882 9.7523 19.4882 10.7283C19.4881 11.3763 19.2001 11.8403 18.6481 12.0723C19.2641 12.2723 19.5761 12.7363 19.5761 13.4163C19.5761 14.4163 18.8801 15.0003 17.6721 15.0003L15.3041 15.0002ZM17.5442 10.0563L16.3282 10.0562L16.3281 11.6482L17.5681 11.6483C18.1281 11.6483 18.4401 11.3523 18.4402 10.8323C18.4402 10.3283 18.1202 10.0563 17.5442 10.0563ZM17.6321 12.5123L16.3281 12.5122L16.3281 14.0962L17.6321 14.0963C18.2081 14.0963 18.5281 13.8163 18.5281 13.2883C18.5281 12.7923 18.2001 12.5123 17.6321 12.5123Z" fill="white"/>
</svg>
