<svg width="24" height="24" viewBox="0 0 24 24" fill="none" xmlns="http://www.w3.org/2000/svg">
<path d="M23.6408 14.9029C22.0379 21.3315 15.5261 25.2438 9.09602 23.6407C2.66859 22.038 -1.24421 15.5266 0.359461 9.09838C1.96163 2.66907 8.47346 -1.24364 14.9016 0.359095C21.3313 1.96183 25.2437 8.47401 23.6408 14.9029Z" fill="#1275E9"/>
<path d="M5.13592 10.096L5.13594 9.152L9.58394 9.15209L9.58392 10.0961L7.87192 10.0961L7.87182 15.0001L6.84782 15L6.84792 10.096L5.13592 10.096ZM9.32392 13.3521L9.32393 13.0081L10.3079 13.0081L10.3079 13.3521C10.3079 13.8001 10.5559 14.1521 11.1319 14.1521C11.7079 14.1521 11.9479 13.8241 11.9479 13.3121L11.948 9.15214L12.972 9.15216L12.9719 13.3682C12.9719 14.4002 12.2519 15.1041 11.1399 15.1041C9.93988 15.1041 9.3239 14.3601 9.32392 13.3521ZM13.89 10.7842C13.8901 9.76017 14.7381 9.04819 15.9701 9.04821C17.1541 9.04824 17.9061 9.70425 17.938 10.7603L16.914 10.7602C16.89 10.2562 16.53 9.96022 15.954 9.96021C15.322 9.9602 14.914 10.2642 14.914 10.7522C14.914 11.1682 15.138 11.4002 15.626 11.5122L16.546 11.7122C17.546 11.9282 18.034 12.4403 18.034 13.3123C18.034 14.4003 17.1859 15.1042 15.8979 15.1042C14.6499 15.1042 13.834 14.4402 13.81 13.3922L14.834 13.3922C14.842 13.8882 15.242 14.1842 15.898 14.1842C16.578 14.1842 17.01 13.8882 17.01 13.4002C17.01 13.0082 16.81 12.7762 16.33 12.6722L15.402 12.4642C14.41 12.2482 13.89 11.6802 13.89 10.7842Z" fill="white"/>
</svg>
