<svg width="24" height="24" viewBox="0 0 24 24" fill="none" xmlns="http://www.w3.org/2000/svg">
<path d="M23.6408 14.9029C22.0379 21.3315 15.5261 25.2438 9.09602 23.6407C2.66859 22.038 -1.24421 15.5266 0.359461 9.09838C1.96163 2.66907 8.47346 -1.24364 14.9016 0.359095C21.3313 1.96183 25.2437 8.47401 23.6408 14.9029Z" fill="#1275E9"/>
<path d="M3.13592 10.096L3.13594 9.152L7.58394 9.15209L7.58392 10.0961L5.87192 10.0961L5.87182 15.0001L4.84782 15L4.84792 10.096L3.13592 10.096ZM9.35857 15.0001L8.36657 15.0001L8.36669 9.1521L9.35869 9.15212L11.2466 13.8082L13.1347 9.1522L14.1427 9.15222L14.1426 15.0002L13.1506 15.0002L13.1506 13.2002C13.1506 12.0242 13.1506 11.6802 13.2066 11.2642L11.7186 15.0002L10.7746 15.0002L9.29465 11.2721C9.35064 11.6241 9.35863 12.1761 9.35862 12.9041L9.35857 15.0001ZM14.925 10.0962L14.925 9.15223L19.373 9.15232L19.373 10.0963L17.661 10.0963L17.6609 15.0003L16.6369 15.0003L16.637 10.0963L14.925 10.0962Z" fill="white"/>
</svg>
