<svg width="24" height="24" viewBox="0 0 24 24" fill="none" xmlns="http://www.w3.org/2000/svg">
<path d="M23.6408 14.9029C22.0379 21.3315 15.5261 25.2438 9.09602 23.6407C2.66859 22.038 -1.24421 15.5266 0.359461 9.09838C1.96163 2.66907 8.47346 -1.24364 14.9016 0.359095C21.3313 1.96183 25.2437 8.47401 23.6408 14.9029Z" fill="#1275E9"/>
<path d="M3.13592 10.096L3.13594 9.152L7.58394 9.15209L7.58392 10.0961L5.87192 10.0961L5.87182 15.0001L4.84782 15L4.84792 10.096L3.13592 10.096ZM9.37457 15.0001L8.36657 15.0001L8.36669 9.1521L9.38269 9.15212L12.1266 13.2962L12.1267 9.15218L13.1347 9.1522L13.1346 15.0002L12.1266 15.0002L9.37466 10.8561L9.37457 15.0001ZM16.5331 15.0003L14.4291 15.0002L14.4292 9.15222L16.4772 9.15226C18.2052 9.1523 19.3972 10.3443 19.3971 12.0883C19.3971 13.8083 18.2291 15.0003 16.5331 15.0003ZM16.3812 10.0963L15.4532 10.0962L15.4531 14.0562L16.4371 14.0563C17.6051 14.0563 18.3171 13.3043 18.3171 12.0883C18.3172 10.8483 17.5892 10.0963 16.3812 10.0963Z" fill="white"/>
</svg>
