<svg width="24" height="24" viewBox="0 0 24 24" fill="none" xmlns="http://www.w3.org/2000/svg">
<path d="M23.6408 14.9029C22.0379 21.3315 15.5261 25.2438 9.09602 23.6407C2.66859 22.038 -1.24421 15.5266 0.359461 9.09838C1.96163 2.66907 8.47346 -1.24364 14.9016 0.359095C21.3313 1.96183 25.2437 8.47401 23.6408 14.9029Z" fill="#1275E9"/>
<path d="M4.13592 10.096L4.13594 9.152L8.58394 9.15209L8.58392 10.0961L6.87192 10.0961L6.87182 15.0001L5.84782 15L5.84792 10.096L4.13592 10.096ZM14.4683 12.0722C14.4682 13.8482 13.3002 15.0962 11.6202 15.0961C9.9482 15.0961 8.79622 13.8561 8.79626 12.0721C8.79629 10.2961 9.95632 9.04812 11.6283 9.04815C13.3003 9.04818 14.4683 10.2882 14.4683 12.0722ZM13.3883 12.0722C13.3883 10.8242 12.7003 10.0322 11.6283 10.0321C10.5563 10.0321 9.86828 10.8241 9.86826 12.0721C9.86823 13.3201 10.5562 14.1121 11.6282 14.1121C12.7002 14.1122 13.3882 13.3042 13.3883 12.0722ZM17.7333 12.9843L16.4453 12.9842L16.4453 15.0002L15.4213 15.0002L15.4214 9.15222L17.7334 9.15227C18.9094 9.15229 19.6694 9.92031 19.6693 11.0643C19.6693 12.1923 18.9013 12.9843 17.7333 12.9843ZM17.5334 10.0643L16.4454 10.0642L16.4453 12.0722L17.5173 12.0723C18.2213 12.0723 18.5973 11.6963 18.5973 11.0563C18.5974 10.4163 18.2134 10.0643 17.5334 10.0643Z" fill="white"/>
</svg>
