<svg width="24" height="24" viewBox="0 0 24 24" fill="none" xmlns="http://www.w3.org/2000/svg">
<path d="M23.6408 14.9029C22.0379 21.3315 15.5261 25.2438 9.09602 23.6407C2.66859 22.038 -1.24421 15.5266 0.359461 9.09838C1.96163 2.66907 8.47346 -1.24364 14.9016 0.359095C21.3313 1.96183 25.2437 8.47401 23.6408 14.9029Z" fill="#1275E9"/>
<path d="M4.13592 10.096L4.13594 9.152L8.58394 9.15209L8.58392 10.0961L6.87192 10.0961L6.87182 15.0001L5.84782 15L5.84792 10.096L4.13592 10.096ZM10.3906 15.0001L9.36657 15.0001L9.36669 9.1521L11.5987 9.15215C12.9267 9.15217 13.7027 9.82419 13.7027 10.9762C13.7026 11.7602 13.3346 12.3202 12.6466 12.6002L13.7586 15.0002L12.6386 15.0002L11.6466 12.8161L10.3906 12.8161L10.3906 15.0001ZM10.3907 10.0641L10.3906 11.9121L11.5986 11.9121C12.2466 11.9122 12.6306 11.5682 12.6307 10.9762C12.6307 10.3922 12.2467 10.0642 11.5987 10.0641L10.3907 10.0641ZM16.0012 12.6962L14.0253 9.1522L15.1693 9.15222L16.3212 11.2802C16.4092 11.4402 16.4652 11.5682 16.5292 11.7122C16.6012 11.5682 16.6332 11.4722 16.7372 11.2802L17.8813 9.15227L18.9933 9.15229L17.0252 12.6963L17.0251 15.0003L16.0011 15.0002L16.0012 12.6962Z" fill="white"/>
</svg>
