<svg width="24" height="24" viewBox="0 0 24 24" fill="none" xmlns="http://www.w3.org/2000/svg">
<path d="M23.6408 14.9029C22.0379 21.3315 15.5261 25.2438 9.09602 23.6407C2.66859 22.038 -1.24421 15.5266 0.359461 9.09838C1.96163 2.66907 8.47346 -1.24364 14.9016 0.359095C21.3313 1.96183 25.2437 8.47401 23.6408 14.9029Z" fill="#1275E9"/>
<path d="M4.13592 10.096L4.13594 9.152L8.58394 9.15209L8.58392 10.0961L6.87192 10.0961L6.87182 15.0001L5.84782 15L5.84792 10.096L4.13592 10.096ZM9.09686 10.0961L9.09688 9.1521L13.5449 9.15219L13.5449 10.0962L11.8329 10.0962L11.8328 15.0002L10.8088 15.0001L10.8089 10.0961L9.09686 10.0961ZM16.4315 15.0002L14.3275 15.0002L14.3276 9.1522L16.3756 9.15224C18.1036 9.15227 19.2956 10.3443 19.2956 12.0883C19.2955 13.8083 18.1275 15.0003 16.4315 15.0002ZM16.2796 10.0962L15.3516 10.0962L15.3515 14.0562L16.3355 14.0562C17.5035 14.0563 18.2155 13.3043 18.2156 12.0883C18.2156 10.8483 17.4876 10.0963 16.2796 10.0962Z" fill="white"/>
</svg>
