<svg width="24" height="24" viewBox="0 0 24 24" fill="none" xmlns="http://www.w3.org/2000/svg">
<path d="M23.6408 14.9029C22.0379 21.3315 15.5261 25.2438 9.09602 23.6407C2.66859 22.038 -1.24421 15.5266 0.359461 9.09838C1.96163 2.66907 8.47346 -1.24364 14.9016 0.359095C21.3313 1.96183 25.2437 8.47401 23.6408 14.9029Z" fill="#1275E9"/>
<path d="M2.13592 10.096L2.13594 9.152L6.58394 9.15209L6.58392 10.0961L4.87192 10.0961L4.87182 15.0001L3.84782 15L3.84792 10.096L2.13592 10.096ZM8.6607 15.0001L6.91681 9.1521L7.98081 9.15212L8.90875 12.2401C8.99675 12.5601 9.08474 12.8881 9.17273 13.4001C9.26874 12.8801 9.35675 12.5761 9.46075 12.2401L10.3808 9.15216L11.5088 9.15219L12.4128 12.2402C12.5087 12.5682 12.5967 12.9042 12.6927 13.4002C12.8047 12.8562 12.8847 12.5442 12.9728 12.2482L13.9168 9.15223L14.9568 9.15225L13.1807 15.0002L12.1887 15.0002L10.9408 10.7442L9.6687 15.0001L8.6607 15.0001ZM17.8299 15.0003L15.7259 15.0003L15.7261 9.15227L17.7741 9.15231C19.5021 9.15234 20.694 10.3444 20.694 12.0884C20.694 13.8084 19.5259 15.0003 17.8299 15.0003ZM17.678 10.0963L16.75 10.0963L16.75 14.0563L17.734 14.0563C18.902 14.0563 19.614 13.3043 19.614 12.0883C19.614 10.8483 18.886 10.0963 17.678 10.0963Z" fill="white"/>
</svg>
