<svg width="24" height="24" viewBox="0 0 24 24" fill="none" xmlns="http://www.w3.org/2000/svg">
<path d="M23.6408 14.9029C22.0379 21.3315 15.5261 25.2438 9.09602 23.6407C2.66859 22.038 -1.24421 15.5266 0.359461 9.09838C1.96163 2.66907 8.47346 -1.24364 14.9016 0.359095C21.3313 1.96183 25.2437 8.47401 23.6408 14.9029Z" fill="#1275E9"/>
<path d="M5.13592 10.096L5.13594 9.152L9.58394 9.15209L9.58392 10.0961L7.87192 10.0961L7.87182 15.0001L6.84782 15L6.84792 10.096L5.13592 10.096ZM14.1746 15.0002L9.96657 15.0001L9.96659 14.0481L12.8547 10.0962L10.0307 10.0961L10.0307 9.1521L14.1267 9.15218L14.1267 10.0642L11.2146 14.0561L14.1746 14.0562L14.1746 15.0002ZM14.7338 10.7842C14.7338 9.76019 15.5818 9.04821 16.8138 9.04823C17.9978 9.04825 18.7498 9.70427 18.7818 10.7603L17.7578 10.7602C17.7338 10.2562 17.3738 9.96024 16.7978 9.96023C16.1658 9.96022 15.7578 10.2642 15.7578 10.7522C15.7578 11.1682 15.9818 11.4002 16.4698 11.5122L17.3898 11.7122C18.3898 11.9283 18.8777 12.4403 18.8777 13.3123C18.8777 14.4003 18.0297 15.1043 16.7417 15.1042C15.4937 15.1042 14.6777 14.4402 14.6537 13.3922L15.6777 13.3922C15.6857 13.8882 16.0857 14.1842 16.7417 14.1842C17.4217 14.1842 17.8537 13.8883 17.8537 13.4003C17.8537 13.0083 17.6537 12.7762 17.1737 12.6722L16.2457 12.4642C15.2538 12.2482 14.7338 11.6802 14.7338 10.7842Z" fill="white"/>
</svg>
