<svg width="24" height="24" viewBox="0 0 24 24" fill="none" xmlns="http://www.w3.org/2000/svg">
<path d="M23.6408 14.9029C22.0379 21.3315 15.5261 25.2438 9.09602 23.6407C2.66859 22.038 -1.24421 15.5266 0.359461 9.09838C1.96163 2.66907 8.47346 -1.24364 14.9016 0.359095C21.3313 1.96183 25.2437 8.47401 23.6408 14.9029Z" fill="#1275E9"/>
<path d="M3.60787 12.864L3.60794 9.15201L4.63194 9.15203L4.63187 12.8C4.63185 13.64 5.08784 14.104 5.91984 14.1041C6.75184 14.1041 7.21585 13.6321 7.21587 12.8001L7.21594 9.15208L8.23994 9.1521L8.23987 12.8641C8.23984 14.2321 7.34382 15.0961 5.91982 15.0961C4.50382 15.096 3.60784 14.24 3.60787 12.864ZM9.7612 15.0001L8.6972 15.0001L10.8093 9.15215L11.8573 9.15217L13.9692 15.0002L12.8892 15.0002L12.4172 13.6482L10.2332 13.6481L9.7612 15.0001ZM11.2013 10.8962L10.5372 12.7841L12.1212 12.7842L11.4493 10.8962C11.4013 10.7442 11.3453 10.5682 11.3293 10.4482C11.3053 10.5602 11.2573 10.7362 11.2013 10.8962ZM15.7265 15.0002L14.7025 15.0002L14.7026 9.15223L15.7266 9.15225L15.7266 11.5682L18.3186 11.5683L18.3186 9.1523L19.3426 9.15232L19.3425 15.0003L18.3185 15.0003L18.3186 12.5203L15.7266 12.5202L15.7265 15.0002Z" fill="white"/>
</svg>
