<svg width="24" height="24" viewBox="0 0 24 24" fill="none" xmlns="http://www.w3.org/2000/svg">
<path d="M23.6408 14.9029C22.0379 21.3315 15.5261 25.2438 9.09602 23.6407C2.66859 22.038 -1.24421 15.5266 0.359461 9.09838C1.96163 2.66907 8.47346 -1.24364 14.9016 0.359095C21.3313 1.96183 25.2437 8.47401 23.6408 14.9029Z" fill="#1275E9"/>
<path d="M3.60787 12.864L3.60794 9.15201L4.63194 9.15203L4.63187 12.8C4.63185 13.64 5.08784 14.104 5.91984 14.1041C6.75184 14.1041 7.21585 13.6321 7.21587 12.8001L7.21594 9.15208L8.23994 9.1521L8.23987 12.8641C8.23984 14.2321 7.34382 15.0961 5.91982 15.0961C4.50382 15.096 3.60784 14.24 3.60787 12.864ZM12.0595 10.0162C10.8995 10.0162 10.2355 10.8561 10.2354 12.1201C10.2354 13.4241 10.9874 14.1362 12.0674 14.1362C13.0834 14.1362 13.6994 13.5762 13.6994 12.6402L13.6994 12.6162L11.9314 12.6162L11.9315 11.7122L14.6515 11.7122L14.6514 15.0002L13.7874 15.0002L13.7234 14.3282C13.4034 14.7762 12.7394 15.0882 11.9474 15.0882C10.3074 15.0881 9.16341 13.8961 9.16344 12.0961C9.16348 10.3201 10.3235 9.05614 12.0835 9.05618C13.4195 9.0562 14.4515 9.83222 14.6195 11.0242L13.5395 11.0242C13.3555 10.3362 12.7635 10.0162 12.0595 10.0162ZM17.2293 12.0803L15.2853 9.15224L16.5013 9.15226L17.2133 10.2003C17.4533 10.5603 17.6533 10.8963 17.8693 11.2963L19.2293 9.15232L20.4213 9.15234L18.5093 12.0723L20.4292 15.0003L19.2212 15.0003L18.5652 14.0323C18.3092 13.6403 18.1012 13.2883 17.8692 12.8643L16.4452 15.0003L15.2452 15.0002L17.2293 12.0803Z" fill="white"/>
</svg>
