<svg width="24" height="24" viewBox="0 0 24 24" fill="none" xmlns="http://www.w3.org/2000/svg">
<path d="M23.6408 14.9029C22.0379 21.3315 15.5261 25.2438 9.09602 23.6407C2.66859 22.038 -1.24421 15.5266 0.359461 9.09838C1.96163 2.66907 8.47346 -1.24364 14.9016 0.359095C21.3313 1.96183 25.2437 8.47401 23.6408 14.9029Z" fill="#1275E9"/>
<path d="M3.60787 12.864L3.60794 9.15201L4.63194 9.15203L4.63187 12.8C4.63185 13.64 5.08784 14.104 5.91984 14.1041C6.75184 14.1041 7.21585 13.6321 7.21587 12.8001L7.21594 9.15208L8.23994 9.1521L8.23987 12.8641C8.23984 14.2321 7.34382 15.0961 5.91982 15.0961C4.50382 15.096 3.60784 14.24 3.60787 12.864ZM10.9074 12.6962L8.9315 9.15212L10.0755 9.15214L11.2275 11.2802C11.3155 11.4402 11.3715 11.5682 11.4355 11.7122C11.5075 11.5682 11.5395 11.4722 11.6435 11.2802L12.7875 9.15219L13.8995 9.15221L11.9314 12.6962L11.9314 15.0002L10.9074 15.0002L10.9074 12.6962ZM14.5844 12.8642L14.5845 9.15223L15.6085 9.15225L15.6084 12.8002C15.6084 13.6402 16.0644 14.1043 16.8964 14.1043C17.7284 14.1043 18.1924 13.6323 18.1924 12.8003L18.1925 9.1523L19.2165 9.15232L19.2164 12.8643C19.2164 14.2323 18.3204 15.0963 16.8964 15.0963C15.4804 15.0962 14.5844 14.2402 14.5844 12.8642Z" fill="white"/>
</svg>
