<svg width="24" height="24" viewBox="0 0 24 24" fill="none" xmlns="http://www.w3.org/2000/svg">
<path d="M23.6408 14.9029C22.0379 21.3315 15.5261 25.2438 9.09602 23.6407C2.66859 22.038 -1.24421 15.5266 0.359461 9.09838C1.96163 2.66907 8.47346 -1.24364 14.9016 0.359095C21.3313 1.96183 25.2437 8.47401 23.6408 14.9029Z" fill="#1275E9"/>
<path d="M4.60787 12.864L4.60794 9.15201L5.63194 9.15203L5.63187 12.8C5.63185 13.64 6.08784 14.104 6.91984 14.1041C7.75184 14.1041 8.21585 13.6321 8.21587 12.8001L8.21594 9.15208L9.23994 9.1521L9.23987 12.8641C9.23984 14.2321 8.34382 15.0961 6.91982 15.0961C5.50382 15.096 4.60784 14.24 4.60787 12.864ZM14.3074 15.0002L10.0994 15.0001L10.0994 14.0481L12.9875 10.0962L10.1635 10.0961L10.1635 9.15212L14.2595 9.1522L14.2595 10.0642L11.3474 14.0561L14.3074 14.0562L14.3074 15.0002ZM14.8666 10.7842C14.8666 9.76021 15.7146 9.04823 16.9466 9.04825C18.1306 9.04828 18.8826 9.70429 18.9146 10.7603L17.8906 10.7603C17.8666 10.2563 17.5066 9.96026 16.9306 9.96025C16.2986 9.96024 15.8906 10.2642 15.8906 10.7522C15.8906 11.1682 16.1146 11.4002 16.6026 11.5122L17.5226 11.7123C18.5226 11.9283 19.0106 12.4403 19.0105 13.3123C19.0105 14.4003 18.1625 15.1043 16.8745 15.1043C15.6265 15.1042 14.8105 14.4402 14.7865 13.3922L15.8105 13.3922C15.8185 13.8882 16.2185 14.1842 16.8745 14.1843C17.5545 14.1843 17.9865 13.8883 17.9865 13.4003C17.9866 13.0083 17.7866 12.7763 17.3066 12.6723L16.3786 12.4642C15.3866 12.2482 14.8666 11.6802 14.8666 10.7842Z" fill="white"/>
</svg>
