<svg width="24" height="24" viewBox="0 0 24 24" fill="none" xmlns="http://www.w3.org/2000/svg">
<path d="M23.6408 14.9029C22.0379 21.3315 15.5261 25.2438 9.09602 23.6407C2.66859 22.038 -1.24421 15.5266 0.359461 9.09838C1.96163 2.66907 8.47346 -1.24364 14.9016 0.359095C21.3313 1.96183 25.2437 8.47401 23.6408 14.9029Z" fill="#1275E9"/>
<path d="M5.28782 15L3.07994 9.152L4.16794 9.15202L5.44787 12.52C5.57587 12.8721 5.68786 13.2161 5.81585 13.6881C5.95986 13.1761 6.07987 12.8161 6.19187 12.5201L7.45594 9.15209L8.51994 9.15211L6.34382 15.0001L5.28782 15ZM12.8814 15.0002L9.24939 15.0001L9.2495 9.15212L12.8815 9.15219L12.8815 10.0962L10.2735 10.0961L10.2735 11.6001L12.6095 11.6002L12.6094 12.5042L10.2734 12.5041L10.2734 14.0561L12.8814 14.0562L12.8814 15.0002ZM16.0956 15.0003L13.9916 15.0002L13.9917 9.15221L16.0397 9.15225C17.7677 9.15229 18.9597 10.3443 18.9596 12.0883C18.9596 13.8083 17.7916 15.0003 16.0956 15.0003ZM15.9437 10.0963L15.0157 10.0962L15.0156 14.0562L15.9996 14.0563C17.1676 14.0563 17.8796 13.3043 17.8796 12.0883C17.8797 10.8483 17.1517 10.0963 15.9437 10.0963Z" fill="white"/>
</svg>
