<svg width="24" height="24" viewBox="0 0 24 24" fill="none" xmlns="http://www.w3.org/2000/svg">
<path d="M23.6408 14.9029C22.0379 21.3315 15.5261 25.2438 9.09602 23.6407C2.66859 22.038 -1.24421 15.5266 0.359461 9.09838C1.96163 2.66907 8.47346 -1.24364 14.9016 0.359095C21.3313 1.96183 25.2437 8.47401 23.6408 14.9029Z" fill="#1275E9"/>
<path d="M5.28782 15L3.07994 9.152L4.16794 9.15202L5.44787 12.52C5.57587 12.8721 5.68786 13.2161 5.81585 13.6881C5.95986 13.1761 6.07987 12.8161 6.19187 12.5201L7.45594 9.15209L8.51994 9.15211L6.34382 15.0001L5.28782 15ZM10.2574 15.0001L9.24939 15.0001L9.2495 9.15212L10.2655 9.15214L13.0094 13.2962L13.0095 9.1522L14.0175 9.15221L14.0174 15.0002L13.0094 15.0002L10.2575 10.8561L10.2574 15.0001ZM17.4159 15.0003L15.3119 15.0002L15.312 9.15224L17.36 9.15228C19.088 9.15231 20.28 10.3443 20.2799 12.0883C20.2799 13.8083 19.1119 15.0003 17.4159 15.0003ZM17.264 10.0963L16.336 10.0963L16.3359 14.0563L17.3199 14.0563C18.4879 14.0563 19.1999 13.3043 19.1999 12.0883C19.2 10.8483 18.472 10.0963 17.264 10.0963Z" fill="white"/>
</svg>
