<svg width="24" height="24" viewBox="0 0 24 24" fill="none" xmlns="http://www.w3.org/2000/svg">
<path d="M23.6408 14.9029C22.0379 21.3315 15.5261 25.2438 9.09602 23.6407C2.66859 22.038 -1.24421 15.5266 0.359461 9.09838C1.96163 2.66907 8.47346 -1.24364 14.9016 0.359095C21.3313 1.96183 25.2437 8.47401 23.6408 14.9029Z" fill="#1275E9"/>
<path d="M5.28782 15L3.07994 9.152L4.16794 9.15202L5.44787 12.52C5.57587 12.8721 5.68786 13.2161 5.81585 13.6881C5.95986 13.1761 6.07987 12.8161 6.19187 12.5201L7.45594 9.15209L8.51994 9.15211L6.34382 15.0001L5.28782 15ZM9.20943 12.8641L9.2095 9.15212L10.2335 9.15214L10.2334 12.8001C10.2334 13.6401 10.6894 14.1041 11.5214 14.1042C12.3534 14.1042 12.8174 13.6322 12.8174 12.8002L12.8175 9.15219L13.8415 9.15221L13.8414 12.8642C13.8414 14.2322 12.9454 15.0962 11.5214 15.0962C10.1054 15.0961 9.2094 14.2401 9.20943 12.8641ZM16.7409 15.0003L14.5331 9.15222L15.6211 9.15225L16.901 12.5203C17.029 12.8723 17.141 13.2163 17.269 13.6883C17.413 13.1763 17.533 12.8163 17.645 12.5203L18.9091 9.15231L19.9731 9.15233L17.7969 15.0003L16.7409 15.0003Z" fill="white"/>
</svg>
