<svg width="24" height="24" viewBox="0 0 24 24" fill="none" xmlns="http://www.w3.org/2000/svg">
<path d="M23.6408 14.9029C22.0379 21.3315 15.5261 25.2438 9.09602 23.6407C2.66859 22.038 -1.24421 15.5266 0.359461 9.09838C1.96163 2.66907 8.47346 -1.24364 14.9016 0.359095C21.3313 1.96183 25.2437 8.47401 23.6408 14.9029Z" fill="#1275E9"/>
<path d="M4.86382 15L3.11994 9.152L4.18394 9.15202L5.11188 12.24C5.19987 12.56 5.28787 12.888 5.37586 13.4C5.47187 12.88 5.55987 12.576 5.66388 12.2401L6.58394 9.15207L7.71194 9.15209L8.61588 12.2401C8.71187 12.5681 8.79987 12.9041 8.89586 13.4001C9.00787 12.8561 9.08787 12.5441 9.17588 12.2481L10.1199 9.15214L11.1599 9.15216L9.38382 15.0001L8.39182 15.0001L7.14391 10.7441L5.87182 15.0001L4.86382 15ZM11.5385 10.7842C11.5385 9.76017 12.3865 9.04818 13.6185 9.04821C14.8025 9.04823 15.5545 9.70424 15.5865 10.7602L14.5625 10.7602C14.5385 10.2562 14.1785 9.96022 13.6025 9.96021C12.9705 9.96019 12.5625 10.2642 12.5625 10.7522C12.5625 11.1682 12.7865 11.4002 13.2745 11.5122L14.1945 11.7122C15.1944 11.9282 15.6824 12.4402 15.6824 13.3122C15.6824 14.4002 14.8344 15.1042 13.5464 15.1042C12.2984 15.1042 11.4824 14.4402 11.4584 13.3922L12.4824 13.3922C12.4904 13.8882 12.8904 14.1842 13.5464 14.1842C14.2264 14.1842 14.6584 13.8882 14.6584 13.4002C14.6584 13.0082 14.4584 12.7762 13.9784 12.6722L13.0504 12.4642C12.0584 12.2482 11.5385 11.6802 11.5385 10.7842ZM16.0187 10.0963L16.0188 9.15225L20.4668 9.15234L20.4667 10.0963L18.7547 10.0963L18.7546 15.0003L17.7306 15.0003L17.7307 10.0963L16.0187 10.0963Z" fill="white"/>
</svg>
