<svg width="24" height="24" viewBox="0 0 24 24" fill="none" xmlns="http://www.w3.org/2000/svg">
<path d="M23.6408 14.9029C22.0379 21.3315 15.5261 25.2438 9.09602 23.6407C2.66859 22.038 -1.24421 15.5266 0.359461 9.09838C1.96163 2.66907 8.47346 -1.24364 14.9016 0.359095C21.3313 1.96183 25.2437 8.47401 23.6408 14.9029Z" fill="#1275E9"/>
<path d="M6.11988 12.08L4.17594 9.152L5.39194 9.15203L6.10392 10.2C6.34391 10.56 6.5439 10.896 6.7599 11.2961L8.11994 9.15208L9.31194 9.1521L7.39988 12.0721L9.31982 15.0001L8.11182 15.0001L7.45584 14.0321C7.19985 13.6401 6.99186 13.2881 6.75987 12.8641L5.33582 15L4.13582 15L6.11988 12.08ZM10.5971 15.0001L9.53314 15.0001L11.6453 9.15215L12.6933 9.15217L14.8051 15.0002L13.7251 15.0002L13.2532 13.6482L11.0692 13.6481L10.5971 15.0001ZM12.0372 10.8962L11.3732 12.7841L12.9572 12.7842L12.2852 10.8962C12.2372 10.7442 12.1812 10.5682 12.1652 10.4482C12.1412 10.5602 12.0932 10.7362 12.0372 10.8962ZM18.7385 12.6083L16.5625 12.6082L16.5624 15.0002L15.5384 15.0002L15.5386 9.15222L19.1546 9.1523L19.1545 10.0963L16.5625 10.0962L16.5625 11.6882L18.7385 11.6883L18.7385 12.6083Z" fill="white"/>
</svg>
