<svg width="24" height="24" viewBox="0 0 24 24" fill="none" xmlns="http://www.w3.org/2000/svg">
<path d="M23.6408 14.9029C22.0379 21.3315 15.5261 25.2438 9.09602 23.6407C2.66859 22.038 -1.24421 15.5266 0.359461 9.09838C1.96163 2.66907 8.47346 -1.24364 14.9016 0.359095C21.3313 1.96183 25.2437 8.47401 23.6408 14.9029Z" fill="#1275E9"/>
<path d="M5.11988 12.08L3.17594 9.152L4.39194 9.15203L5.10392 10.2C5.34391 10.56 5.5439 10.896 5.7599 11.2961L7.11994 9.15208L8.31194 9.1521L6.39988 12.0721L8.31982 15.0001L7.11182 15.0001L6.45584 14.0321C6.19985 13.6401 5.99186 13.2881 5.75987 12.8641L4.33582 15L3.13582 15L5.11988 12.08ZM11.2917 15.0962C9.5877 15.0961 8.48372 13.9121 8.48376 12.0801C8.48379 10.2641 9.62782 9.05613 11.3398 9.05616C12.7238 9.05619 13.7558 9.86421 13.9558 11.1202L12.8758 11.1202C12.6758 10.4402 12.0918 10.0402 11.3158 10.0402C10.2358 10.0401 9.55578 10.8241 9.55576 12.0721C9.55573 13.3121 10.2437 14.1121 11.3157 14.1122C12.1077 14.1122 12.7157 13.6962 12.9077 13.0482L13.9717 13.0482C13.7477 14.2802 12.6757 15.0962 11.2917 15.0962ZM16.994 15.0003L14.89 15.0002L14.8901 9.15223L16.9381 9.15227C18.6661 9.15231 19.8581 10.3443 19.8581 12.0883C19.858 13.8083 18.69 15.0003 16.994 15.0003ZM16.8421 10.0963L15.9141 10.0963L15.914 14.0563L16.898 14.0563C18.066 14.0563 18.778 13.3043 18.7781 12.0883C18.7781 10.8483 18.0501 10.0963 16.8421 10.0963Z" fill="white"/>
</svg>
