<svg width="24" height="24" viewBox="0 0 24 24" fill="none" xmlns="http://www.w3.org/2000/svg">
<path d="M23.6408 14.9029C22.0379 21.3315 15.5261 25.2438 9.09602 23.6407C2.66859 22.038 -1.24421 15.5266 0.359461 9.09838C1.96163 2.66907 8.47346 -1.24364 14.9016 0.359095C21.3313 1.96183 25.2437 8.47401 23.6408 14.9029Z" fill="#1275E9"/>
<path d="M6.11988 12.08L4.17594 9.152L5.39194 9.15203L6.10392 10.2C6.34391 10.56 6.5439 10.896 6.7599 11.2961L8.11994 9.15208L9.31194 9.1521L7.39988 12.0721L9.31982 15.0001L8.11182 15.0001L7.45584 14.0321C7.19985 13.6401 6.99186 13.2881 6.75987 12.8641L5.33582 15L4.13582 15L6.11988 12.08ZM15.1558 12.0722C15.1557 13.8482 13.9877 15.0962 12.3077 15.0962C10.6357 15.0961 9.48372 13.8561 9.48376 12.0721C9.48379 10.2961 10.6438 9.04813 12.3158 9.04816C13.9878 9.04819 15.1558 10.2882 15.1558 12.0722ZM14.0758 12.0722C14.0758 10.8242 13.3878 10.0322 12.3158 10.0322C11.2438 10.0321 10.5558 10.8241 10.5558 12.0721C10.5557 13.3201 11.2437 14.1121 12.3157 14.1122C13.3877 14.1122 14.0757 13.3042 14.0758 12.0722ZM19.3088 12.6083L17.1328 12.6083L17.1328 15.0003L16.1088 15.0002L16.1089 9.15224L19.7249 9.15231L19.7249 10.0963L17.1329 10.0963L17.1328 11.6883L19.3088 11.6883L19.3088 12.6083Z" fill="white"/>
</svg>
