<svg width="24" height="24" viewBox="0 0 24 24" fill="none" xmlns="http://www.w3.org/2000/svg">
<path d="M23.6408 14.9029C22.0379 21.3315 15.5261 25.2438 9.09602 23.6407C2.66859 22.038 -1.24421 15.5266 0.359461 9.09838C1.96163 2.66907 8.47346 -1.24364 14.9016 0.359095C21.3313 1.96183 25.2437 8.47401 23.6408 14.9029Z" fill="#1275E9"/>
<path d="M6.11988 12.08L4.17594 9.152L5.39194 9.15203L6.10392 10.2C6.34391 10.56 6.5439 10.896 6.7599 11.2961L8.11994 9.15208L9.31194 9.1521L7.39988 12.0721L9.31982 15.0001L8.11182 15.0001L7.45584 14.0321C7.19985 13.6401 6.99186 13.2881 6.75987 12.8641L5.33582 15L4.13582 15L6.11988 12.08ZM12.4052 12.9842L11.1172 12.9841L11.1171 15.0001L10.0931 15.0001L10.0933 9.15212L12.4053 9.15216C13.5813 9.15219 14.3412 9.9202 14.3412 11.0642C14.3412 12.1922 13.5732 12.9842 12.4052 12.9842ZM12.2052 10.0642L11.1172 10.0641L11.1172 12.0721L12.1892 12.0722C12.8932 12.0722 13.2692 11.6962 13.2692 11.0562C13.2692 10.4162 12.8852 10.0642 12.2052 10.0642ZM18.4026 12.6083L16.2266 12.6082L16.2265 15.0002L15.2025 15.0002L15.2026 9.15222L18.8186 9.15229L18.8186 10.0963L16.2266 10.0962L16.2266 11.6882L18.4026 11.6883L18.4026 12.6083Z" fill="white"/>
</svg>
