<svg width="24" height="24" viewBox="0 0 24 24" fill="none" xmlns="http://www.w3.org/2000/svg">
<path d="M23.6408 14.9029C22.0379 21.3315 15.5261 25.2438 9.09602 23.6407C2.66859 22.038 -1.24421 15.5266 0.359461 9.09838C1.96163 2.66907 8.47346 -1.24364 14.9016 0.359095C21.3313 1.96183 25.2437 8.47401 23.6408 14.9029Z" fill="#1275E9"/>
<path d="M6.05587 12.696L4.07994 9.152L5.22394 9.15202L6.3759 11.28C6.46389 11.44 6.51989 11.568 6.58389 11.7121C6.65589 11.5681 6.68789 11.4721 6.7919 11.2801L7.93594 9.15208L9.04794 9.1521L7.07987 12.6961L7.07982 15.0001L6.05582 15L6.05587 12.696ZM13.4048 15.0002L9.77282 15.0001L9.77294 9.15211L13.4049 9.15218L13.4049 10.0962L10.7969 10.0961L10.7969 11.6001L13.1329 11.6002L13.1329 12.5042L10.7969 12.5041L10.7968 14.0561L13.4048 14.0562L13.4048 15.0002ZM15.539 15.0002L14.515 15.0002L14.5151 9.1522L16.7471 9.15225C18.0751 9.15227 18.8511 9.82429 18.8511 10.9763C18.8511 11.7603 18.4831 12.3203 17.7951 12.6003L18.907 15.0003L17.787 15.0003L16.7951 12.8162L15.5391 12.8162L15.539 15.0002ZM15.5391 10.0642L15.5391 11.9122L16.7471 11.9122C17.3951 11.9123 17.7791 11.5683 17.7791 10.9763C17.7791 10.3923 17.3951 10.0643 16.7471 10.0642L15.5391 10.0642Z" fill="white"/>
</svg>
