<svg width="24" height="24" viewBox="0 0 24 24" fill="none" xmlns="http://www.w3.org/2000/svg">
<path d="M23.6408 14.9029C22.0379 21.3315 15.5261 25.2438 9.09602 23.6407C2.66859 22.038 -1.24421 15.5266 0.359461 9.09838C1.96163 2.66907 8.47346 -1.24364 14.9016 0.359095C21.3313 1.96183 25.2437 8.47401 23.6408 14.9029Z" fill="#1275E9"/>
<path d="M8.456 15.0002H4.248V14.0482L7.136 10.0962H4.312V9.15216H8.408V10.0642L5.496 14.0562H8.456V15.0002ZM9.85513 15.0002H8.79113L10.9031 9.15216H11.9511L14.0631 15.0002H12.9831L12.5111 13.6482H10.3271L9.85513 15.0002ZM11.2951 10.8962L10.6311 12.7842H12.2151L11.5431 10.8962C11.4951 10.7442 11.4391 10.5682 11.4231 10.4482C11.3991 10.5602 11.3511 10.7362 11.2951 10.8962ZM15.8204 15.0002H14.7964V9.15216H17.0284C18.3564 9.15216 19.1324 9.82416 19.1324 10.9762C19.1324 11.7602 18.7644 12.3202 18.0764 12.6002L19.1884 15.0002H18.0684L17.0764 12.8162H15.8204V15.0002ZM15.8204 10.0642V11.9122H17.0284C17.6764 11.9122 18.0604 11.5682 18.0604 10.9762C18.0604 10.3922 17.6764 10.0642 17.0284 10.0642H15.8204Z" fill="white"/>
</svg>
