<svg width="24" height="24" viewBox="0 0 24 24" fill="none" xmlns="http://www.w3.org/2000/svg">
<path d="M23.6408 14.9029C22.0379 21.3315 15.5261 25.2438 9.09602 23.6407C2.66859 22.038 -1.24421 15.5266 0.359461 9.09838C1.96163 2.66907 8.47346 -1.24364 14.9016 0.359095C21.3313 1.96183 25.2437 8.47401 23.6408 14.9029Z" fill="#1275E9"/>
<path d="M6.45582 15.0001L2.24782 15L2.24784 14.048L5.13592 10.0961L2.31192 10.096L2.31194 9.15201L6.40794 9.15209L6.40792 10.0641L3.49584 14.056L6.45584 14.0561L6.45582 15.0001ZM8.34295 15.0001L7.35095 15.0001L7.35106 9.1521L8.34306 9.15212L10.231 13.8082L12.1191 9.1522L13.1271 9.15222L13.1269 15.0002L12.1349 15.0002L12.135 13.2002C12.135 12.0242 12.135 11.6802 12.191 11.2642L10.7029 15.0002L9.75895 15.0002L8.27902 11.2721C8.33502 11.6241 8.343 12.1761 8.34299 12.9041L8.34295 15.0001ZM15.6373 15.0003L13.8934 9.15223L14.9574 9.15225L15.8853 12.2403C15.9733 12.5603 16.0613 12.8883 16.1493 13.4003C16.2453 12.8803 16.3333 12.5763 16.4373 12.2403L17.3574 9.1523L18.4854 9.15232L19.3893 12.2403C19.4853 12.5683 19.5733 12.9043 19.6693 13.4003C19.7813 12.8563 19.8613 12.5443 19.9493 12.2483L20.8934 9.15237L21.9334 9.15239L20.1573 15.0004L19.1653 15.0003L17.9173 10.7443L16.6453 15.0003L15.6373 15.0003Z" fill="white"/>
</svg>
