<svg width="24" height="24" viewBox="0 0 24 24" fill="none" xmlns="http://www.w3.org/2000/svg">
<path d="M23.6408 14.9029C22.0379 21.3315 15.5261 25.2438 9.09602 23.6407C2.66859 22.038 -1.24421 15.5266 0.359461 9.09838C1.96163 2.66907 8.47346 -1.24364 14.9016 0.359095C21.3313 1.96183 25.2437 8.47401 23.6408 14.9029Z" fill="#1275E9"/>
<path d="M7.45582 15.0001L3.24782 15L3.24784 14.048L6.13592 10.0961L3.31192 10.096L3.31194 9.15201L7.40794 9.15209L7.40792 10.0641L4.49584 14.056L7.45584 14.0561L7.45582 15.0001ZM9.56695 15.0001L7.82306 9.15209L8.88706 9.15211L9.815 12.2401C9.903 12.5601 9.99099 12.8881 10.079 13.4001C10.175 12.8801 10.263 12.5761 10.367 12.2401L11.2871 9.15216L12.4151 9.15218L13.319 12.2402C13.415 12.5682 13.503 12.9042 13.599 13.4002C13.711 12.8562 13.791 12.5442 13.879 12.2482L14.8231 9.15223L15.8631 9.15225L14.0869 15.0002L13.0949 15.0002L11.847 10.7442L10.5749 15.0001L9.56695 15.0001ZM17.6563 9.15229L17.6562 14.0563L20.1042 14.0563L20.1042 15.0003L16.6322 15.0003L16.6323 9.15227L17.6563 9.15229Z" fill="white"/>
</svg>
