<svg width="24" height="24" viewBox="0 0 24 24" fill="none" xmlns="http://www.w3.org/2000/svg">
<path d="M23.6408 14.9029C22.0379 21.3315 15.5261 25.2438 9.09602 23.6407C2.66859 22.038 -1.24421 15.5266 0.359461 9.09838C1.96163 2.66907 8.47346 -1.24364 14.9016 0.359095C21.3313 1.96183 25.2437 8.47401 23.6408 14.9029Z" fill="#1275E9"/>
<path d="M4.60787 12.864L4.60794 9.15201L5.63194 9.15203L5.63187 12.8C5.63185 13.64 6.08784 14.104 6.91984 14.1041C7.75184 14.1041 8.21585 13.6321 8.21587 12.8001L8.21594 9.15208L9.23994 9.1521L9.23987 12.8641C9.23984 14.2321 8.34382 15.0961 6.91982 15.0961C5.50382 15.096 4.60784 14.24 4.60787 12.864ZM10.1635 10.7841C10.1635 9.76012 11.0115 9.04814 12.2435 9.04816C13.4275 9.04818 14.1795 9.7042 14.2115 10.7602L13.1875 10.7602C13.1635 10.2562 12.8035 9.96017 12.2275 9.96016C11.5955 9.96015 11.1875 10.2641 11.1875 10.7521C11.1875 11.1681 11.4115 11.4001 11.8995 11.5122L12.8195 11.7122C13.8194 11.9282 14.3074 12.4402 14.3074 13.3122C14.3074 14.4002 13.4594 15.1042 12.1714 15.1042C10.9234 15.1041 10.1074 14.4401 10.0834 13.3921L11.1074 13.3921C11.1154 13.8881 11.5154 14.1841 12.1714 14.1842C12.8514 14.1842 13.2834 13.8882 13.2834 13.4002C13.2834 13.0082 13.0834 12.7762 12.6034 12.6722L11.6754 12.4641C10.6834 12.2481 10.1635 11.6801 10.1635 10.7841ZM17.3378 15.0003L15.2338 15.0002L15.2339 9.15222L17.2819 9.15226C19.0099 9.15229 20.2019 10.3443 20.2018 12.0883C20.2018 13.8083 19.0338 15.0003 17.3378 15.0003ZM17.1859 10.0963L16.2579 10.0962L16.2578 14.0562L17.2418 14.0563C18.4098 14.0563 19.1218 13.3043 19.1218 12.0883C19.1218 10.8483 18.3939 10.0963 17.1859 10.0963Z" fill="white"/>
</svg>
